<svg width="583" height="128" viewBox="0 0 583 128" fill="none" xmlns="http://www.w3.org/2000/svg">
<path fill-rule="evenodd" clip-rule="evenodd" d="M190.663 2.42904C190.663 4.52774 196.511 4.85809 233.576 4.85809C270.642 4.85809 276.489 4.52774 276.489 2.42904C276.489 0.33035 270.642 0 233.576 0C196.511 0 190.663 0.33035 190.663 2.42904ZM420.613 63.1552C420.613 118.214 420.924 126.31 423.042 126.31C425.16 126.31 425.471 118.214 425.471 63.1552C425.471 8.09682 425.16 0 423.042 0C420.924 0 420.613 8.09682 420.613 63.1552ZM53.2067 2.59098C53.5484 3.39257 65.4863 26.6385 79.7367 54.2487C93.9871 81.8588 105.881 105.361 106.17 106.473C106.579 108.057 96.9635 108.497 62.0419 108.497C37.4843 108.497 17.3912 108.102 17.3912 107.621C17.3912 107.139 26.173 89.6982 36.9045 68.8634L56.4195 30.9817L52.1622 22.582C49.8206 17.9604 47.3025 14.8156 46.5673 15.5912C45.8305 16.3685 34.869 37.2745 22.2088 62.0491C1.7093 102.166 -0.705176 107.739 0.141751 112.964C0.664806 116.189 2.59347 120.33 4.42659 122.165C7.63454 125.374 9.74782 125.518 60.5035 125.99C107.059 126.42 113.719 126.168 117.274 123.839C122.052 120.707 126.279 111.496 124.826 107.374C124.261 105.765 112.845 83.0928 99.4573 56.9886C81.9698 22.8913 73.8082 8.5972 70.4691 6.21997C65.7065 2.82903 52.0877 -0.0340069 53.2067 2.59098ZM133.985 63.9649V126.31H171.231H208.476V117.404V108.497H180.137H151.798V55.0584V1.61936H142.892H133.985V63.9649ZM317.046 3.30674C299.624 6.91792 281.848 20.2356 274.174 35.4252C268.862 45.9381 266.316 59.748 267.68 70.6544C269.171 82.5908 278.05 100.128 286.444 107.709C290.1 111.014 297.92 116.001 303.819 118.792C313.364 123.306 316.149 123.865 329.119 123.865C342.124 123.865 344.862 123.313 354.544 118.733C367.384 112.659 378.226 102.373 384.384 90.422C388.091 83.2239 388.946 79.2047 389.492 66.3939C390.049 53.3483 389.594 49.5331 386.501 41.2938C383.748 33.9597 380.237 28.9607 372.179 20.9044C364.354 13.078 359.08 9.32429 352.415 6.84019C341.421 2.73996 326.821 1.28092 317.046 3.30674ZM459.882 2.76263C457.877 3.14804 456.239 4.1229 456.239 4.92772C456.239 5.76493 462.676 5.96735 471.291 5.4022C484.351 4.54393 487.347 4.85647 493.92 7.76485C507.004 13.5525 511.446 25.9066 504.978 38.5247C503.284 41.8282 498.175 49.6302 493.623 55.8616C489.071 62.0929 486.096 67.44 487.015 67.7461C489.105 68.4424 492.919 63.9827 503.38 48.6036C511.462 36.7223 511.613 36.2818 510.981 26.3665C510.44 17.8713 509.571 15.4342 505.555 11.1639C498.455 3.61766 492.231 1.5886 476.937 1.8396C469.561 1.96105 461.887 2.37561 459.882 2.76263ZM519.394 3.23873C519.394 4.25407 529.649 4.85809 546.923 4.85809C564.197 4.85809 574.452 4.25407 574.452 3.23873C574.452 2.22339 564.197 1.61936 546.923 1.61936C529.649 1.61936 519.394 2.22339 519.394 3.23873ZM190.663 8.9065C190.663 11.0052 196.511 11.3355 233.576 11.3355C270.642 11.3355 276.489 11.0052 276.489 8.9065C276.489 6.8078 270.642 6.47745 233.576 6.47745C196.511 6.47745 190.663 6.8078 190.663 8.9065ZM462.836 9.517C460.676 10.121 458.611 11.5056 458.248 12.5954C457.453 14.9791 456.987 14.9629 467.759 12.9177C479.166 10.7526 489.327 12.3914 495.218 17.3482C498.896 20.4428 499.961 22.6921 499.961 27.3559C499.961 33.8107 495.298 42.2524 482.644 58.7019C477.933 64.8264 476.307 68.0133 477.894 68.0133C481.157 68.0133 501.108 41.1772 503.437 33.6552C504.917 28.8732 504.829 26.3778 503.011 21.51C499.83 12.9938 489.929 8.0369 476.542 8.25875C471.164 8.34782 464.996 8.91298 462.836 9.517ZM519.394 10.5259C519.394 12.5905 523.533 12.9549 546.923 12.9549C570.313 12.9549 574.452 12.5905 574.452 10.5259C574.452 8.46117 570.313 8.09682 546.923 8.09682C523.533 8.09682 519.394 8.46117 519.394 10.5259ZM190.663 17.0033C190.663 19.102 196.511 19.4324 233.576 19.4324C270.642 19.4324 276.489 19.102 276.489 17.0033C276.489 14.9046 270.642 14.5743 233.576 14.5743C196.511 14.5743 190.663 14.9046 190.663 17.0033ZM461.502 17.2657C460.389 17.7158 459.477 18.7393 459.477 19.5425C459.477 20.357 463.697 20.5611 469.02 20.004C474.27 19.4566 481.183 19.4988 484.385 20.0995C490.857 21.3141 494.26 25.8353 492.87 31.3735C492.381 33.3216 486.53 42.1812 479.87 51.0601C473.21 59.9391 468.564 67.4853 469.548 67.8303C471.425 68.4894 472.385 67.3445 487.411 46.5324C497.976 31.8998 499.071 26.4912 492.747 20.1692C489.18 16.6001 487.484 16.2066 476.149 16.3216C469.207 16.3912 462.616 16.8171 461.502 17.2657ZM519.394 35.626C519.394 47.5008 520.024 55.0584 521.013 55.0584C521.994 55.0584 522.633 48.0417 522.633 37.2454C522.633 26.4491 523.271 19.4324 524.252 19.4324C525.233 19.4324 525.871 26.4491 525.871 37.2454C525.871 47.6255 526.524 55.0584 527.436 55.0584C528.316 55.0584 529.201 47.4522 529.46 37.6502C529.73 27.4304 530.588 20.242 531.539 20.242C532.49 20.242 533.348 27.4304 533.618 37.6502C533.877 47.4522 534.762 55.0584 535.642 55.0584C536.554 55.0584 537.207 47.6255 537.207 37.2454V19.4324H555.829C567.165 19.4324 574.452 18.7992 574.452 17.813C574.452 16.7977 564.197 16.1936 546.923 16.1936H519.394V35.626ZM349.179 25.0062C355.66 28.3567 364.777 37.5271 368.217 44.1536C369.711 47.0344 371.275 54.6551 371.693 61.0889C372.36 71.3848 371.931 73.8527 368.111 81.6629C363.438 91.2139 357.666 96.9173 347.119 102.404C342.201 104.964 337.484 105.884 329.119 105.916C320.549 105.95 315.924 105.058 310.162 102.261C301.418 98.0152 293.583 89.7694 289.266 80.2637C285.551 72.0827 285.258 55.6008 288.685 47.402C296.665 28.3 315.501 18.0413 336.655 21.2752C340.799 21.9084 346.436 23.5876 349.179 25.0062ZM224.67 23.4808C224.67 25.3463 226.739 25.9098 233.576 25.9098C240.413 25.9098 242.483 25.3463 242.483 23.4808C242.483 21.6153 240.413 21.0517 233.576 21.0517C226.739 21.0517 224.67 21.6153 224.67 23.4808ZM464.74 23.8144C462.736 24.1998 461.097 25.288 461.097 26.2321C461.097 27.3656 464.3 27.5859 470.549 26.8782C475.747 26.2904 481.212 26.2742 482.694 26.8426C488.171 28.9445 487.405 30.3436 463.048 62.7503C460.206 66.5332 459.741 68.0133 461.4 68.0133C463.969 68.0133 490.245 33.3071 490.245 29.9129C490.245 25.2588 485.272 22.6678 476.771 22.8913C472.157 23.0128 466.745 23.4273 464.74 23.8144ZM224.67 30.7679C224.67 33.6147 225.75 34.0066 233.576 34.0066C241.403 34.0066 242.483 33.6147 242.483 30.7679C242.483 27.9211 241.403 27.5292 233.576 27.5292C225.75 27.5292 224.67 27.9211 224.67 30.7679ZM540.85 30.1234C536.025 32.3031 539.584 33.8803 549.163 33.8074C564.239 33.6909 571.649 38.238 576.912 50.8318C579.848 57.8599 579.025 64.4296 574.216 72.3515C566.833 84.5146 543.974 88.2844 526.396 80.2362C521.382 77.9416 516.856 76.4874 516.338 77.0072C514.586 78.7577 523.381 84.1988 532.232 86.84C543.142 90.0949 556.74 89.1119 565.973 84.4012C580.769 76.8534 586.398 60.7925 579.351 46.2344C574.638 36.5004 565.029 30.6983 552.186 29.8351C547.065 29.4902 541.964 29.6198 540.85 30.1234ZM224.67 38.055C224.67 39.9205 226.739 40.4841 233.576 40.4841C240.413 40.4841 242.483 39.9205 242.483 38.055C242.483 36.1895 240.413 35.626 233.576 35.626C226.739 35.626 224.67 36.1895 224.67 38.055ZM538.826 38.8647C538.826 39.7554 542.87 40.4841 547.814 40.4841C552.756 40.4841 558.937 41.5901 561.551 42.9407C567.094 45.8069 571.213 52.9159 571.213 59.6169C571.213 65.5988 565.751 72.6122 558.848 75.4963C551.935 78.3853 541.326 78.2314 533.158 75.1223C522.688 71.1386 521.013 70.7824 521.013 72.5378C521.013 73.4527 524.158 75.7247 528.002 77.5853C532.966 79.9884 538.146 80.9682 545.88 80.9682C564.577 80.9682 574.943 72.677 574.739 57.8841C574.635 50.3104 571.257 44.6896 564.244 40.4128C560.576 38.1765 556.121 37.2551 548.947 37.2518C543.276 37.2486 538.826 37.9579 538.826 38.8647ZM224.67 44.5325C224.67 46.398 226.739 46.9615 233.576 46.9615C240.413 46.9615 242.483 46.398 242.483 44.5325C242.483 42.667 240.413 42.1034 233.576 42.1034C226.739 42.1034 224.67 42.667 224.67 44.5325ZM539.906 44.8029C537.472 47.2352 539.263 47.938 547.684 47.857C554.665 47.789 557.282 48.5096 560.032 51.2577C564.691 55.9118 564.543 62.9414 559.706 66.8587C556.531 69.4302 553.982 69.8302 544.525 69.2407C538.272 68.8505 531.784 67.9339 530.104 67.2052C527.829 66.2174 527.24 66.4619 527.798 68.1606C528.953 71.6746 540.379 74.8324 549.067 74.0373C557.855 73.2341 564.836 68.8618 566.993 62.8119C570.629 52.6099 561.99 43.7406 548.408 43.7293C544.325 43.726 540.499 44.2086 539.906 44.8029ZM224.67 52.6293C224.67 54.4948 226.739 55.0584 233.576 55.0584C240.413 55.0584 242.483 54.4948 242.483 52.6293C242.483 50.7638 240.413 50.2003 233.576 50.2003C226.739 50.2003 224.67 50.7638 224.67 52.6293ZM540.85 51.2723C539.738 51.7225 538.826 52.8479 538.826 53.7758C538.826 54.7863 540.774 55.0729 543.684 54.4916C549.656 53.2965 556.639 55.7466 556.639 59.0355C556.639 62.2143 550.171 63.7592 541.134 62.7406C533.918 61.9277 530.106 63.5681 534.92 65.4142C539.038 66.9947 553.344 66.538 556.746 64.7179C560.995 62.4443 560.738 55.8437 556.278 52.7216C552.817 50.2958 545.072 49.5687 540.85 51.2723ZM224.67 59.1068C224.67 60.9723 226.739 61.5358 233.576 61.5358C240.413 61.5358 242.483 60.9723 242.483 59.1068C242.483 57.2413 240.413 56.6777 233.576 56.6777C226.739 56.6777 224.67 57.2413 224.67 59.1068ZM224.67 65.5842C224.67 67.4497 226.739 68.0133 233.576 68.0133C240.413 68.0133 242.483 67.4497 242.483 65.5842C242.483 63.7187 240.413 63.1552 233.576 63.1552C226.739 63.1552 224.67 63.7187 224.67 65.5842ZM457.858 72.1038C457.858 74.23 461.285 74.5134 482.42 74.128C500.303 73.8025 507.166 73.1304 507.655 71.6568C508.175 70.0958 502.561 69.6326 483.093 69.6326C461.55 69.6326 457.858 69.9937 457.858 72.1038ZM224.67 73.681C224.67 75.5465 226.739 76.1101 233.576 76.1101C240.413 76.1101 242.483 75.5465 242.483 73.681C242.483 71.8155 240.413 71.252 233.576 71.252C226.739 71.252 224.67 71.8155 224.67 73.681ZM224.67 80.1585C224.67 82.024 226.739 82.5875 233.576 82.5875C240.413 82.5875 242.483 82.024 242.483 80.1585C242.483 78.293 240.413 77.7294 233.576 77.7294C226.739 77.7294 224.67 78.293 224.67 80.1585ZM457.858 79.3488C457.858 80.3593 467.304 80.9682 482.958 80.9682C498.613 80.9682 508.058 80.3593 508.058 79.3488C508.058 78.3383 498.613 77.7294 482.958 77.7294C467.304 77.7294 457.858 78.3383 457.858 79.3488ZM457.858 86.678C457.858 88.8043 461.285 89.0877 482.42 88.7022C500.303 88.3768 507.166 87.7047 507.655 86.2311C508.175 84.67 502.561 84.2069 483.093 84.2069C461.55 84.2069 457.858 84.568 457.858 86.678ZM224.67 88.2553C224.67 90.1208 226.739 90.6843 233.576 90.6843C240.413 90.6843 242.483 90.1208 242.483 88.2553C242.483 86.3898 240.413 85.8263 233.576 85.8263C226.739 85.8263 224.67 86.3898 224.67 88.2553ZM224.67 94.7328C224.67 96.5983 226.739 97.1618 233.576 97.1618C240.413 97.1618 242.483 96.5983 242.483 94.7328C242.483 92.8672 240.413 92.3037 233.576 92.3037C226.739 92.3037 224.67 92.8672 224.67 94.7328ZM469.056 101.503C463.809 115.096 459.477 126.77 459.477 127.313C459.477 127.653 461.003 127.93 462.868 127.93C464.896 127.93 466.598 126.629 467.105 124.691C467.765 122.166 469.313 121.452 474.131 121.452C478.889 121.452 480.547 122.197 481.339 124.691C481.904 126.472 483.774 127.93 485.496 127.93C487.217 127.93 488.589 127.382 488.545 126.715C488.5 126.048 486.114 119.307 483.243 111.736C479.06 100.707 477.307 97.8695 474.421 97.4549C471.726 97.0679 470.374 98.0881 469.056 101.503ZM491.865 112.546C491.865 126.725 492.112 127.93 495.026 127.93C497.772 127.93 498.251 126.603 498.669 117.844L499.152 107.759L505.629 117.83C509.498 123.846 513.248 127.907 514.941 127.915C517.441 127.928 517.774 126.122 517.774 112.546C517.774 100.175 517.315 97.1618 515.423 97.1618C513.669 97.1618 512.949 99.735 512.589 107.283L512.107 117.404L505.629 107.356C500.91 100.035 498.162 97.2881 495.508 97.2347C491.98 97.1634 491.865 97.6492 491.865 112.546ZM527.986 101.069C524.213 104.315 523.442 106.263 523.442 112.546C523.442 118.829 524.213 120.777 527.986 124.022C534.483 129.611 542.575 129.288 548.667 123.196C552.298 119.566 553.4 116.975 553.4 112.081C553.4 98.7617 538.284 92.2114 527.986 101.069ZM558.99 101.102C556.976 104.177 556.804 105.78 558.21 108.408C559.201 110.259 562.662 113.041 565.9 114.589C569.139 116.137 572.085 118.314 572.446 119.426C573.503 122.686 568.116 123.702 564.953 120.839C561.428 117.648 558.259 117.436 558.259 120.392C558.259 124.011 563.878 127.93 569.066 127.93C571.824 127.93 575.174 126.578 576.76 124.824C581.237 119.877 579.391 114.704 571.618 110.424C567.834 108.34 564.736 105.597 564.736 104.327C564.736 101.634 570.661 101.173 571.536 103.798C571.863 104.776 573.766 105.322 575.767 105.012C579.21 104.48 579.266 104.251 576.837 100.805C574.919 98.0832 572.663 97.1618 567.92 97.1618C562.982 97.1618 560.998 98.0379 558.99 101.102ZM224.67 101.21C224.67 103.076 226.739 103.639 233.576 103.639C240.413 103.639 242.483 103.076 242.483 101.21C242.483 99.3447 240.413 98.7812 233.576 98.7812C226.739 98.7812 224.67 99.3447 224.67 101.21ZM543.323 104.541C545.785 106.264 546.923 108.722 546.923 112.314C546.923 115.203 546.048 118.44 544.98 119.509C542.228 122.26 534.666 121.919 531.654 118.908C528.15 115.402 528.467 109.14 532.349 105.259C536.247 101.361 538.567 101.209 543.323 104.541ZM224.67 109.307C224.67 111.173 226.739 111.736 233.576 111.736C240.413 111.736 242.483 111.173 242.483 109.307C242.483 107.442 240.413 106.878 233.576 106.878C226.739 106.878 224.67 107.442 224.67 109.307ZM477.047 111.736C478.63 116.272 478.479 116.594 474.777 116.594C472.597 116.594 470.823 116.047 470.836 115.38C470.892 112.248 472.942 106.878 474.082 106.878C474.782 106.878 476.116 109.064 477.047 111.736ZM224.67 115.784C224.67 117.65 226.739 118.214 233.576 118.214C240.413 118.214 242.483 117.65 242.483 115.784C242.483 113.919 240.413 113.355 233.576 113.355C226.739 113.355 224.67 113.919 224.67 115.784ZM224.67 123.881C224.67 125.747 226.739 126.31 233.576 126.31C240.413 126.31 242.483 125.747 242.483 123.881C242.483 122.016 240.413 121.452 233.576 121.452C226.739 121.452 224.67 122.016 224.67 123.881Z" fill="white"/>
</svg>
