<svg width="809" height="128" viewBox="0 0 809 128" fill="none" xmlns="http://www.w3.org/2000/svg">
<path fill-rule="evenodd" clip-rule="evenodd" d="M151.387 64.9766H158.302V49.2622H161.823C163.777 49.2783 165.276 49.7845 166.322 50.7799C167.367 51.7753 168.158 53.5004 168.692 55.9563C169.21 58.3459 169.693 60.3037 170.139 61.8285C170.586 63.3533 170.955 64.4024 171.245 64.9766H178.389C178.019 64.1851 177.582 62.8185 177.077 60.8778C176.572 58.9371 176.008 56.7478 175.383 54.3107C174.938 52.4541 174.283 50.8917 173.42 49.6244C172.557 48.3571 171.435 47.4619 170.054 46.9387V46.7688C171.932 46.1347 173.547 45.0078 174.9 43.3873C176.254 41.7668 176.963 39.7169 177.026 37.2369C177.021 35.5851 176.735 34.1068 176.169 32.8028C175.603 31.4989 174.792 30.4051 173.738 29.5206C172.449 28.451 170.845 27.672 168.924 27.1837C167.003 26.6945 164.673 26.4539 161.934 26.4611C159.898 26.4647 157.969 26.5425 156.147 26.6945C154.325 26.8466 152.738 27.0522 151.385 27.3107V64.9766H151.387ZM158.302 32.0722C158.641 31.9836 159.169 31.9049 159.885 31.8378C160.601 31.7708 161.511 31.735 162.618 31.7314C164.914 31.7278 166.722 32.2313 168.04 33.2428C169.357 34.2543 170.03 35.7944 170.056 37.8621C170.033 39.7885 169.355 41.3142 168.019 42.4393C166.684 43.5635 164.827 44.1385 162.448 44.1636H158.303V32.0722H158.302Z" fill="white"/>
<path fill-rule="evenodd" clip-rule="evenodd" d="M206.327 53.1192C206.386 52.8053 206.438 52.3992 206.482 51.9011C206.528 51.4029 206.551 50.827 206.554 50.1732C206.573 48.0957 206.208 46.0342 205.457 43.9889C204.707 41.9444 203.46 40.2363 201.714 38.8661C199.968 37.496 197.611 36.7841 194.64 36.7305C191.686 36.7725 189.208 37.4889 187.205 38.8813C185.202 40.2729 183.691 42.0911 182.672 44.3341C181.653 46.5771 181.141 48.9954 181.139 51.5908C181.172 55.8719 182.424 59.2552 184.896 61.7397C187.368 64.2241 190.862 65.4923 195.378 65.5451C197.37 65.5352 199.177 65.3707 200.798 65.0496C202.419 64.7285 203.827 64.3082 205.022 63.7895L204.001 59.0272C202.943 59.4028 201.801 59.7024 200.578 59.9286C199.355 60.1549 197.943 60.2703 196.343 60.2765C194.062 60.2908 192.109 59.7229 190.488 58.5728C188.867 57.4227 187.979 55.6054 187.827 53.121H206.327V53.1192ZM187.828 48.2477C187.917 47.2702 188.194 46.2659 188.659 45.2338C189.124 44.2017 189.814 43.328 190.726 42.6107C191.639 41.8944 192.812 41.5205 194.244 41.4892C195.782 41.5259 196.972 41.9203 197.813 42.6733C198.653 43.4264 199.234 44.3225 199.552 45.359C199.87 46.3964 200.012 47.3588 199.979 48.2468H187.828V48.2477Z" fill="white"/>
<path fill-rule="evenodd" clip-rule="evenodd" d="M230.167 24.6465V40.3H230.053C229.421 39.259 228.443 38.4085 227.123 37.7503C225.802 37.0921 224.186 36.7522 222.275 36.7307C220.031 36.7415 217.974 37.3308 216.105 38.498C214.236 39.666 212.739 41.3473 211.615 43.5429C210.49 45.7385 209.922 48.3839 209.91 51.4774C209.989 55.7908 211.135 59.209 213.347 61.7319C215.56 64.2548 218.366 65.5445 221.765 65.6008C223.774 65.5847 225.56 65.1357 227.123 64.2548C228.685 63.3739 229.889 62.1612 230.734 60.6149H230.847L231.187 64.9766H237.366C237.307 64.0107 237.255 62.8364 237.21 61.452C237.165 60.0675 237.142 58.6518 237.139 57.2039V24.6465H230.167ZM230.167 53.0059C230.177 53.7473 230.101 54.4296 229.94 55.053C229.569 56.5743 228.834 57.7736 227.74 58.65C226.644 59.5265 225.371 59.9727 223.922 59.9906C221.696 59.9432 219.988 59.116 218.798 57.508C217.608 55.8999 217.007 53.7947 216.995 51.1939C217.006 48.5807 217.609 46.4289 218.805 44.7377C220.001 43.0465 221.725 42.1719 223.979 42.1129C225.582 42.1495 226.904 42.6298 227.946 43.5527C228.988 44.4766 229.671 45.6231 229.997 46.9932C230.053 47.2839 230.096 47.596 230.125 47.9296C230.153 48.2623 230.167 48.5753 230.167 48.866V53.0059V53.0059Z" fill="white"/>
<path fill-rule="evenodd" clip-rule="evenodd" d="M267.523 53.1192C267.582 52.8053 267.634 52.3992 267.68 51.9011C267.724 51.4029 267.748 50.827 267.75 50.1732C267.769 48.0957 267.404 46.0342 266.654 43.9889C265.904 41.9444 264.656 40.2363 262.91 38.8661C261.164 37.496 258.807 36.7841 255.838 36.7305C252.884 36.7725 250.406 37.4889 248.402 38.8813C246.399 40.2729 244.888 42.0911 243.869 44.3341C242.849 46.5771 242.339 48.9954 242.336 51.5908C242.369 55.8719 243.621 59.2552 246.093 61.7397C248.565 64.2241 252.059 65.4923 256.576 65.5451C258.568 65.5352 260.375 65.3707 261.996 65.0496C263.618 64.7285 265.025 64.3082 266.22 63.7895L265.2 59.0272C264.141 59.4028 263 59.7024 261.776 59.9286C260.554 60.1549 259.141 60.2703 257.541 60.2765C255.26 60.2908 253.309 59.7229 251.686 58.5728C250.065 57.4227 249.178 55.6054 249.025 53.121H267.523V53.1192ZM249.025 48.2477C249.113 47.2702 249.39 46.2659 249.856 45.2338C250.321 44.2017 251.009 43.328 251.922 42.6107C252.835 41.8944 254.008 41.5205 255.441 41.4892C256.978 41.5259 258.167 41.9203 259.009 42.6733C259.851 43.4264 260.43 44.3225 260.749 45.359C261.066 46.3964 261.209 47.3588 261.176 48.2468H249.025V48.2477Z" fill="white"/>
<path fill-rule="evenodd" clip-rule="evenodd" d="M298.847 61.4666C297.721 62.0112 296.411 62.4396 294.917 62.7509C293.423 63.0621 291.857 63.2204 290.222 63.2258C285.054 63.1631 281.075 61.6142 278.284 58.5797C275.493 55.5452 274.082 51.4 274.049 46.1457C274.097 40.5919 275.577 36.2651 278.49 33.1653C281.403 30.0656 285.465 28.4907 290.676 28.4415C292.302 28.4495 293.788 28.6033 295.138 28.9029C296.487 29.2025 297.647 29.5969 298.62 30.0879L299.472 27.8253C298.912 27.5069 297.904 27.1617 296.45 26.7887C294.996 26.4158 293.052 26.2128 290.62 26.1797C286.575 26.2155 283.108 27.0955 280.219 28.8198C277.329 30.544 275.111 32.8988 273.564 35.8841C272.017 38.8694 271.236 42.2715 271.221 46.0903C271.273 50.5995 272.151 54.2904 273.856 57.1622C275.562 60.0339 277.781 62.1517 280.513 63.5164C283.245 64.8812 286.179 65.5573 289.315 65.5466C291.685 65.526 293.753 65.3256 295.521 64.9456C297.288 64.5655 298.662 64.1246 299.642 63.6237L298.847 61.4666Z" fill="white"/>
<path fill-rule="evenodd" clip-rule="evenodd" d="M315.547 65.6008C317.601 65.6089 319.615 65.108 321.589 64.0956C323.563 63.0833 325.201 61.511 326.507 59.3762C327.811 57.2423 328.489 54.4958 328.538 51.1367C328.482 46.9029 327.318 43.5259 325.044 41.0039C322.769 38.4819 319.717 37.1896 315.887 37.127C313.601 37.1332 311.488 37.694 309.547 38.8083C307.606 39.9226 306.039 41.5548 304.848 43.7039C303.656 45.853 303.044 48.4814 303.01 51.5901C303.09 55.8982 304.29 59.2975 306.61 61.7874C308.93 64.2772 311.891 65.548 315.489 65.5999H315.547V65.6008ZM315.604 63.3381C312.758 63.2675 310.417 62.1326 308.579 59.9334C306.741 57.7342 305.79 54.8965 305.727 51.4211C305.722 49.433 306.078 47.5263 306.795 45.7036C307.511 43.881 308.616 42.383 310.108 41.2096C311.6 40.0362 313.507 39.4299 315.831 39.3896C318.223 39.4433 320.155 40.0988 321.625 41.3545C323.095 42.611 324.164 44.1448 324.833 45.9558C325.502 47.7669 325.831 49.5323 325.822 51.2503C325.753 54.808 324.769 57.6949 322.87 59.9119C320.971 62.129 318.568 63.2711 315.661 63.3381H315.604Z" fill="white"/>
<path fill-rule="evenodd" clip-rule="evenodd" d="M334.923 64.977H337.64V48.184C337.643 47.7002 337.681 47.2351 337.754 46.7871C337.827 46.339 337.922 45.916 338.038 45.518C338.573 43.8724 339.505 42.454 340.834 41.2628C342.164 40.0715 343.748 39.4473 345.588 39.3909C347.807 39.4401 349.487 40.2495 350.626 41.8163C351.766 43.3832 352.339 45.4116 352.343 47.9014V64.9779H355.06V47.5034C355.065 46.9928 355.112 46.5107 355.203 46.0564C355.293 45.603 355.397 45.1773 355.515 44.7802C356.072 43.3144 356.973 42.0623 358.218 41.0213C359.463 39.9812 360.947 39.4374 362.668 39.39C365.025 39.4133 366.797 40.2745 367.983 41.9711C369.168 43.6685 369.762 46.06 369.764 49.1481V64.977H372.481V48.9218C372.42 45.5261 371.849 42.9781 370.765 41.2762C369.682 39.5742 368.45 38.4465 367.07 37.892C365.69 37.3375 364.526 37.0826 363.576 37.1282C362.15 37.1318 360.929 37.3223 359.915 37.7006C358.9 38.0789 357.963 38.6236 357.105 39.3337C356.588 39.7603 356.089 40.2826 355.608 40.9005C355.126 41.5185 354.699 42.226 354.325 43.021H354.212C353.6 41.286 352.615 39.8783 351.257 38.798C349.898 37.7176 348.274 37.1604 346.383 37.1273C344.162 37.1569 342.345 37.6639 340.932 38.6486C339.52 39.6333 338.385 40.9202 337.527 42.5104H337.413L337.243 37.7516H334.696C334.78 38.8105 334.839 39.8551 334.873 40.8853C334.907 41.9156 334.924 43.0452 334.923 44.274V64.977V64.977Z" fill="white"/>
<path fill-rule="evenodd" clip-rule="evenodd" d="M380.832 76.2105H383.549V60.5578H383.662C384.623 62.207 385.909 63.459 387.522 64.3131C389.136 65.1672 390.932 65.5965 392.915 65.601C395.141 65.5992 397.185 65.0483 399.048 63.9491C400.91 62.85 402.408 61.2107 403.539 59.033C404.67 56.8544 405.251 54.1481 405.282 50.9115C405.231 46.836 404.157 43.5395 402.057 41.0193C399.958 38.4999 397.138 37.2031 393.597 37.1289C391.214 37.1468 389.182 37.6628 387.502 38.6788C385.821 39.6948 384.485 41.1051 383.493 42.9099H383.38L383.21 37.7532H380.605C380.69 39.0446 380.749 40.3914 380.783 41.7956C380.817 43.1997 380.834 44.746 380.833 46.4336V76.2105H380.832ZM383.548 48.9288C383.554 48.5549 383.599 48.1677 383.683 47.7661C383.767 47.3637 383.855 46.9764 383.946 46.6026C384.595 44.339 385.751 42.5754 387.416 41.3135C389.08 40.0516 390.931 39.4104 392.971 39.3907C395.038 39.4211 396.784 39.972 398.209 41.0452C399.634 42.1175 400.715 43.5315 401.452 45.2844C402.19 47.0381 402.561 48.9511 402.564 51.0242C402.545 54.7151 401.689 57.6763 399.996 59.9058C398.302 62.1354 395.885 63.2802 392.744 63.3392C390.604 63.3133 388.726 62.6845 387.111 61.4522C385.495 60.2207 384.384 58.542 383.776 56.4162C383.692 56.0745 383.633 55.7221 383.598 55.359C383.564 54.9959 383.547 54.6293 383.549 54.259V48.9288H383.548Z" fill="white"/>
<path fill-rule="evenodd" clip-rule="evenodd" d="M432.266 51.077C432.32 50.8319 432.354 50.5869 432.365 50.3418C432.377 50.0968 432.381 49.7954 432.38 49.4376C432.414 48.0532 432.157 46.4094 431.61 44.5063C431.062 42.6031 430.019 40.9173 428.482 39.4497C426.945 37.9821 424.708 37.2076 421.773 37.1289C418.182 37.1763 415.26 38.499 413.007 41.098C410.753 43.6969 409.59 47.2886 409.52 51.8729C409.56 55.9439 410.698 59.2235 412.936 61.7106C415.174 64.1978 418.271 65.4758 422.227 65.5446C424.607 65.5071 426.503 65.2853 427.917 64.8801C429.331 64.475 430.29 64.1119 430.795 63.7917L430.116 61.6936C429.38 62.08 428.428 62.4279 427.258 62.7364C426.088 63.045 424.525 63.2086 422.568 63.2265C419.676 63.2632 417.243 62.3241 415.267 60.4094C413.29 58.4946 412.262 55.3841 412.18 51.0779H432.266V51.077ZM412.348 48.9288C412.51 47.488 412.925 46.0419 413.593 44.5886C414.261 43.1353 415.236 41.9154 416.516 40.9298C417.796 39.9434 419.434 39.43 421.431 39.3907C423.605 39.4381 425.287 39.9809 426.475 41.0184C427.664 42.0558 428.483 43.3052 428.933 44.7656C429.384 46.2261 429.588 47.6141 429.549 48.9288H412.348V48.9288Z" fill="white"/>
<path fill-rule="evenodd" clip-rule="evenodd" d="M439.819 32.7596V37.7518H435.223V39.9572H439.819V57.1526C439.811 58.5523 439.939 59.8106 440.201 60.9267C440.462 62.0428 440.901 62.9595 441.516 63.6777C442.031 64.2993 442.686 64.7661 443.478 65.0773C444.272 65.3886 445.167 65.5442 446.167 65.5442C446.989 65.5397 447.714 65.478 448.344 65.3608C448.974 65.2428 449.516 65.0961 449.968 64.9226L449.628 62.8853C449.288 63.0007 448.86 63.0955 448.343 63.1688C447.827 63.2422 447.215 63.2797 446.506 63.2824C445.076 63.2645 444.051 62.761 443.435 61.7719C442.819 60.7818 442.52 59.4126 442.535 57.6642V39.9572H450.308V37.7518H442.535V31.7383L439.819 32.7596Z" fill="white"/>
<path fill-rule="evenodd" clip-rule="evenodd" d="M476.025 51.0766C476.079 50.8316 476.112 50.5865 476.124 50.3415C476.136 50.0964 476.14 49.7951 476.138 49.4373C476.172 48.0529 475.916 46.4091 475.368 44.506C474.821 42.6028 473.778 40.917 472.241 39.4494C470.703 37.9818 468.467 37.2073 465.531 37.1286C461.941 37.176 459.018 38.4987 456.764 41.0976C454.511 43.6966 453.348 47.2882 453.277 51.8726C453.317 55.9436 454.456 59.2231 456.694 61.7103C458.931 64.1974 462.028 65.4754 465.985 65.5443C468.365 65.5067 470.262 65.2849 471.676 64.8798C473.09 64.4747 474.049 64.1116 474.554 63.7914L473.875 61.6933C473.139 62.0797 472.186 62.4275 471.016 62.7361C469.847 63.0446 468.283 63.2083 466.326 63.2262C463.434 63.2629 461 62.3238 459.024 60.409C457.049 58.4943 456.019 55.3838 455.938 51.0775H476.025V51.0766ZM456.107 48.9284C456.269 47.4877 456.684 46.0415 457.352 44.5882C458.02 43.1349 458.994 41.9151 460.275 40.9295C461.554 39.9431 463.193 39.4297 465.19 39.3904C467.364 39.4378 469.045 39.9806 470.233 41.018C471.422 42.0555 472.241 43.3049 472.691 44.7653C473.141 46.2258 473.346 47.6138 473.307 48.9284H456.107V48.9284ZM464.452 25.9512L459.286 33.7775H461.841L465.417 28.1566H465.531L469.05 33.7775H471.775L466.438 25.9512H464.452V25.9512Z" fill="white"/>
<path fill-rule="evenodd" clip-rule="evenodd" d="M482.556 64.9765H485.272V48.07C485.276 47.6371 485.312 47.2123 485.379 46.7938C485.446 46.3752 485.525 46.0067 485.613 45.6875C486.188 43.8612 487.21 42.365 488.679 41.1988C490.147 40.0317 491.851 39.4298 493.788 39.3904C496.562 39.4736 498.522 40.4288 499.671 42.255C500.82 44.0821 501.376 46.2858 501.339 48.865V64.9774H504.056V48.6379C503.986 45.2823 503.357 42.7746 502.166 41.1165C500.975 39.4584 499.639 38.3673 498.158 37.8432C496.677 37.3192 495.467 37.0813 494.527 37.1278C492.292 37.1653 490.361 37.6984 488.736 38.7268C487.111 39.7553 485.919 41.0548 485.161 42.6235H485.047L484.877 37.7511H482.33C482.414 38.81 482.473 39.8546 482.507 40.8849C482.541 41.9152 482.558 43.0447 482.557 44.2735V64.9765H482.556Z" fill="white"/>
<path fill-rule="evenodd" clip-rule="evenodd" d="M530.489 61.6365C529.762 62.0005 528.847 62.3502 527.745 62.6864C526.642 63.0218 525.287 63.2025 523.68 63.2257C520.475 63.1801 517.891 62.1069 515.928 60.0052C513.964 57.9026 512.955 55.0416 512.899 51.4214C512.9 49.2553 513.314 47.2699 514.141 45.4669C514.968 43.6639 516.201 42.2169 517.842 41.1267C519.482 40.0365 521.523 39.4766 523.963 39.448C525.465 39.4641 526.746 39.6304 527.808 39.9444C528.87 40.2592 529.726 40.6232 530.376 41.0372L531.341 38.8264C530.805 38.4338 529.904 38.0591 528.638 37.7023C527.373 37.3454 525.89 37.1549 524.191 37.1299C520.057 37.1925 516.708 38.5268 514.144 41.1338C511.579 43.7408 510.259 47.2466 510.182 51.6503C510.236 55.8045 511.431 59.1422 513.767 61.6633C516.103 64.1835 519.256 65.4785 523.226 65.5465C525.222 65.5089 526.903 65.2871 528.269 64.882C529.634 64.4769 530.62 64.1138 531.226 63.7936L530.489 61.6365Z" fill="white"/>
<path fill-rule="evenodd" clip-rule="evenodd" d="M540.042 64.9762V37.7518H537.325V64.9771H540.042V64.9762ZM538.627 32.2981C539.314 32.2793 539.852 32.0477 540.241 31.6041C540.631 31.1605 540.829 30.6177 540.836 29.9755C540.825 29.3066 540.622 28.7467 540.227 28.2969C539.833 27.847 539.319 27.6136 538.684 27.5957C538.046 27.6172 537.522 27.8577 537.111 28.3174C536.701 28.778 536.488 29.3298 536.474 29.9746C536.483 30.6168 536.677 31.1596 537.054 31.6032C537.432 32.0468 537.937 32.2784 538.57 32.2972H538.627V32.2981Z" fill="white"/>
<path fill-rule="evenodd" clip-rule="evenodd" d="M565.602 47.8502C565.631 46.1984 565.402 44.5564 564.913 42.926C564.424 41.2948 563.497 39.9309 562.132 38.8353C560.767 37.7398 558.785 37.171 556.186 37.128C554.94 37.1227 553.613 37.3033 552.205 37.6727C550.797 38.0412 549.457 38.6332 548.183 39.448L549.032 41.4352C550.038 40.7286 551.134 40.2108 552.318 39.8808C553.502 39.5508 554.697 39.388 555.902 39.3907C558.026 39.422 559.587 39.9085 560.588 40.8485C561.589 41.7884 562.23 42.8795 562.512 44.1226C562.793 45.3658 562.917 46.4569 562.884 47.3968V48.1346C557.323 48.1069 553.16 48.9691 550.398 50.7202C547.635 52.4713 546.255 54.937 546.258 58.1163C546.247 60.0177 546.892 61.7196 548.192 63.2212C549.491 64.7228 551.512 65.516 554.254 65.601C556.446 65.5429 558.279 65.0501 559.754 64.1227C561.229 63.1944 562.31 62.1766 562.997 61.0685H563.111L563.507 64.9777H565.998C565.832 63.925 565.723 62.8536 565.671 61.7652C565.619 60.6768 565.596 59.592 565.601 58.5107V47.8502H565.602ZM562.885 56.24C562.887 56.4734 562.868 56.7346 562.828 57.0234C562.788 57.3123 562.712 57.6012 562.601 57.89C562.152 59.2843 561.262 60.5257 559.932 61.615C558.602 62.7043 556.805 63.2784 554.539 63.3392C553.069 63.3473 551.806 62.8912 550.749 61.97C549.692 61.0488 549.139 59.6134 549.089 57.6629C549.148 55.5147 549.899 53.9076 551.34 52.8397C552.781 51.7728 554.555 51.077 556.658 50.7541C558.762 50.4313 560.837 50.3114 562.885 50.3964V56.24V56.24Z" fill="white"/>
<path fill-rule="evenodd" clip-rule="evenodd" d="M573.325 64.9766H580.241V50.5098C580.723 50.6207 581.249 50.6958 581.817 50.7369C582.385 50.7772 582.995 50.796 583.648 50.7933C586.135 50.7942 588.413 50.4525 590.481 49.7666C592.549 49.0806 594.301 48.0441 595.735 46.6579C596.788 45.6321 597.589 44.3943 598.138 42.9419C598.687 41.4904 598.963 39.8538 598.967 38.0329C598.952 36.2326 598.613 34.6112 597.946 33.1659C597.28 31.7216 596.373 30.5259 595.226 29.5788C594.01 28.5565 592.472 27.782 590.609 27.2562C588.747 26.7294 586.54 26.4656 583.988 26.4629C581.667 26.4674 579.628 26.5434 577.868 26.6892C576.109 26.8358 574.595 27.0245 573.326 27.2562V64.9766H573.325ZM580.241 32.1857C580.611 32.0972 581.134 32.0185 581.81 31.9514C582.485 31.8844 583.306 31.8486 584.273 31.845C586.708 31.8522 588.608 32.4058 589.971 33.5058C591.335 34.6058 592.028 36.2094 592.051 38.3164C592.027 40.5469 591.28 42.273 589.808 43.4964C588.337 44.719 586.283 45.3387 583.648 45.3548C582.941 45.3584 582.31 45.3369 581.753 45.2904C581.195 45.2448 580.691 45.1518 580.241 45.0141V32.1857V32.1857Z" fill="white"/>
<path fill-rule="evenodd" clip-rule="evenodd" d="M615.282 65.6004C617.654 65.6076 619.91 65.0898 622.047 64.0488C624.185 63.0078 625.935 61.4024 627.296 59.2328C628.658 57.0631 629.361 54.2889 629.407 50.9092C629.349 46.6432 628.089 43.2304 625.628 40.669C623.167 38.1077 619.851 36.7948 615.678 36.7295C611.431 36.7715 608.006 38.0755 605.401 40.6413C602.796 43.2072 601.456 46.7809 601.382 51.3635C601.472 55.8549 602.807 59.3419 605.387 61.8237C607.966 64.3054 611.245 65.5638 615.223 65.6004H615.282V65.6004ZM615.395 60.5582C613.298 60.5018 611.644 59.6075 610.435 57.8769C609.225 56.1464 608.608 53.9186 608.583 51.1945C608.577 49.6312 608.809 48.1358 609.282 46.7085C609.753 45.2811 610.499 44.1104 611.519 43.1938C612.54 42.278 613.869 41.804 615.51 41.7727C617.094 41.8075 618.379 42.2923 619.366 43.2268C620.353 44.1614 621.075 45.3357 621.532 46.7496C621.989 48.1636 622.215 49.607 622.209 51.08C622.176 53.9338 621.546 56.2153 620.321 57.9261C619.096 59.637 617.473 60.5143 615.453 60.5582H615.395V60.5582Z" fill="white"/>
<path d="M641.659 24.6465H634.687V64.9766H641.659V24.6465Z" fill="white"/>
<path fill-rule="evenodd" clip-rule="evenodd" d="M655.8 64.977V37.3554H648.828V64.9779H655.8V64.977ZM653.987 25.3848L649.055 33.7736H653.873L660.794 25.3848H653.987V25.3848Z" fill="white"/>
<path fill-rule="evenodd" clip-rule="evenodd" d="M662.846 64.9761H669.648V48.6366C669.648 47.8326 669.761 47.0581 669.989 46.3104C670.334 45.3284 670.935 44.4422 671.792 43.6507C672.648 42.8601 673.732 42.4415 675.043 42.395C676.657 42.4281 677.857 43.0425 678.641 44.2391C679.426 45.4349 679.816 47.0143 679.812 48.9764V64.9752H686.614V48.4103C686.614 48.0052 686.643 47.5956 686.699 47.1833C686.757 46.771 686.841 46.4043 686.955 46.0842C687.332 45.0619 687.941 44.1989 688.78 43.496C689.618 42.793 690.638 42.4263 691.839 42.3968C693.511 42.4147 694.753 43.0595 695.566 44.3331C696.379 45.6057 696.783 47.3997 696.779 49.7152V64.9761H703.582V48.6938C703.552 45.7604 703.094 43.4164 702.209 41.6599C701.323 39.9034 700.184 38.6388 698.793 37.8652C697.404 37.0916 695.937 36.7133 694.394 36.7294C693.239 36.7312 692.199 36.8698 691.278 37.1471C690.356 37.4243 689.502 37.833 688.716 38.3723C688.09 38.7676 687.497 39.2514 686.935 39.8238C686.374 40.3962 685.851 41.0643 685.369 41.828H685.255C684.642 40.2772 683.671 39.0448 682.342 38.1308C681.013 37.2177 679.432 36.75 677.599 36.7285C675.263 36.7902 673.418 37.3045 672.063 38.2721C670.707 39.2407 669.713 40.2933 669.083 41.4309H668.913L668.573 37.3519H662.621C662.68 38.5386 662.732 39.8095 662.777 41.1662C662.821 42.5229 662.846 43.9923 662.847 45.5762V64.9761H662.846Z" fill="white"/>
<path fill-rule="evenodd" clip-rule="evenodd" d="M733.958 53.1192C734.017 52.8053 734.068 52.3992 734.113 51.9011C734.158 51.4029 734.182 50.827 734.184 50.1732C734.203 48.0957 733.838 46.0342 733.087 43.9889C732.338 41.9444 731.089 40.2363 729.344 38.8661C727.598 37.496 725.24 36.7841 722.27 36.7305C719.316 36.7725 716.838 37.4889 714.835 38.8813C712.832 40.2729 711.321 42.0911 710.301 44.3341C709.282 46.5771 708.771 48.9954 708.769 51.5908C708.802 55.8719 710.054 59.2552 712.526 61.7397C714.998 64.2241 718.492 65.4923 723.008 65.5451C725 65.5352 726.806 65.3707 728.428 65.0496C730.049 64.7285 731.457 64.3082 732.653 63.7895L731.632 59.0272C730.573 59.4028 729.432 59.7024 728.209 59.9286C726.986 60.1549 725.574 60.2703 723.974 60.2765C721.693 60.2908 719.74 59.7229 718.119 58.5728C716.497 57.4227 715.61 55.6054 715.457 53.121H733.958V53.1192ZM715.459 48.2477C715.548 47.2702 715.825 46.2659 716.29 45.2338C716.755 44.2017 717.445 43.328 718.357 42.6107C719.27 41.8944 720.442 41.5205 721.875 41.4892C723.412 41.5259 724.602 41.9203 725.443 42.6733C726.285 43.4264 726.865 44.3225 727.183 45.359C727.5 46.3964 727.644 47.3588 727.61 48.2468H715.459V48.2477Z" fill="white"/>
<path fill-rule="evenodd" clip-rule="evenodd" d="M739.299 64.9763H746.272V50.6267C746.272 50.2537 746.286 49.8888 746.314 49.5311C746.341 49.1734 746.384 48.838 746.441 48.5241C746.769 46.9143 747.475 45.6372 748.562 44.6945C749.649 43.7519 751.022 43.269 752.683 43.2484C753.103 43.2484 753.482 43.2627 753.818 43.2904C754.154 43.3181 754.475 43.3611 754.783 43.4183V36.9004C754.508 36.844 754.249 36.8011 754.002 36.7725C753.756 36.7439 753.468 36.7305 753.136 36.7305C751.589 36.7332 750.116 37.2241 748.718 38.2043C747.319 39.1845 746.257 40.6387 745.534 42.5678H745.364L745.08 37.3547H739.071C739.155 38.5585 739.214 39.8803 739.248 41.3175C739.282 42.7556 739.299 44.403 739.298 46.2596V64.9763H739.299Z" fill="white"/>
<path fill-rule="evenodd" clip-rule="evenodd" d="M770.675 65.6004C773.048 65.6076 775.303 65.0898 777.442 64.0488C779.579 63.0078 781.329 61.4024 782.691 59.2328C784.053 57.0631 784.756 54.2889 784.801 50.9092C784.744 46.6432 783.484 43.2304 781.023 40.669C778.561 38.1077 775.245 36.7948 771.072 36.7295C766.826 36.7715 763.401 38.0755 760.795 40.6413C758.19 43.2072 756.851 46.7809 756.776 51.3635C756.868 55.8549 758.202 59.3419 760.781 61.8237C763.36 64.3054 766.639 65.5638 770.618 65.6004H770.675V65.6004ZM770.789 60.5582C768.692 60.5018 767.038 59.6075 765.829 57.8769C764.619 56.1464 764.002 53.9186 763.977 51.1945C763.97 49.6312 764.204 48.1358 764.675 46.7085C765.146 45.2811 765.892 44.1104 766.913 43.1938C767.933 42.278 769.263 41.804 770.903 41.7727C772.487 41.8075 773.772 42.2923 774.76 43.2268C775.747 44.1614 776.469 45.3357 776.926 46.7496C777.383 48.1636 777.608 49.607 777.603 51.08C777.57 53.9338 776.94 56.2153 775.715 57.9261C774.49 59.637 772.866 60.5143 770.847 60.5582H770.789V60.5582Z" fill="white"/>
<path fill-rule="evenodd" clip-rule="evenodd" d="M788.378 63.6178C789.412 64.1937 790.647 64.6561 792.084 65.0058C793.522 65.3555 795.084 65.5343 796.769 65.5442C800.442 65.4986 803.229 64.6838 805.132 63.1C807.036 61.5161 807.993 59.4394 808.003 56.8691C807.987 54.8417 807.382 53.1505 806.189 51.7964C804.996 50.4424 803.143 49.3334 800.632 48.4695C798.89 47.848 797.644 47.2613 796.896 46.7104C796.149 46.1594 795.784 45.4592 795.803 44.6105C795.807 43.7421 796.139 43.0382 796.797 42.4962C797.455 41.9543 798.412 41.6753 799.666 41.6592C800.907 41.6833 802.044 41.8631 803.077 42.1984C804.111 42.5338 804.921 42.8844 805.508 43.2484L806.926 38.3734C806.091 37.9083 805.039 37.5211 803.772 37.2116C802.504 36.9022 801.098 36.7421 799.553 36.7305C796.312 36.785 793.77 37.6114 791.928 39.2096C790.085 40.8086 789.147 42.8549 789.113 45.3483C789.093 47.0109 789.685 48.5384 790.892 49.9309C792.098 51.3233 794.037 52.4824 796.711 53.4071C798.392 54.0046 799.576 54.5975 800.262 55.1878C800.949 55.778 801.28 56.5275 801.256 57.4361C801.264 58.3609 800.908 59.1085 800.191 59.6782C799.474 60.2479 798.352 60.5413 796.825 60.5574C795.535 60.5323 794.243 60.3132 792.947 59.8973C791.651 59.4824 790.6 59.0209 789.794 58.5138L788.378 63.6178Z" fill="white"/>
<path d="M153.718 80.5605H151.677V96.2052H153.718V80.5605Z" fill="white"/>
<path fill-rule="evenodd" clip-rule="evenodd" d="M169.098 96.2043V89.52C169.099 88.2357 169.09 87.082 169.072 86.0571C169.053 85.0322 169.015 84.0341 168.959 83.0647L169.029 83.0414C169.417 83.8919 169.86 84.7568 170.359 85.6359C170.857 86.515 171.382 87.3915 171.932 88.2652L176.903 96.2052H178.942V80.5605H177.042V87.1276C177.04 88.3216 177.055 89.4315 177.089 90.4564C177.122 91.4804 177.183 92.508 177.274 93.5382L177.204 93.5615C176.843 92.7629 176.431 91.9454 175.967 91.1066C175.502 90.2677 174.985 89.3912 174.416 88.4772L169.422 80.5605H167.196V96.2052H169.098V96.2043Z" fill="white"/>
<path fill-rule="evenodd" clip-rule="evenodd" d="M198.096 96.2041L203.691 80.5595H201.532L198.886 88.2883C198.523 89.3124 198.191 90.3131 197.888 91.2906C197.583 92.2672 197.321 93.2099 197.099 94.1167H197.052C196.83 93.2126 196.578 92.2753 196.295 91.3049C196.012 90.3337 195.707 89.3213 195.381 88.266L192.943 80.5586H190.737L195.867 96.2032H198.096V96.2041Z" fill="white"/>
<path fill-rule="evenodd" clip-rule="evenodd" d="M223.438 87.1992H217.378V82.2517H223.81V80.5605H215.338V96.2043H224.158V94.5131H217.378V88.868H223.438V87.1992Z" fill="white"/>
<path fill-rule="evenodd" clip-rule="evenodd" d="M235.963 95.4174C236.4 95.7036 236.982 95.9424 237.706 96.1356C238.43 96.3288 239.181 96.4289 239.955 96.437C241.798 96.3985 243.169 95.9478 244.068 95.083C244.967 94.2181 245.414 93.1691 245.412 91.9349C245.412 90.8027 245.081 89.8797 244.42 89.166C243.758 88.4523 242.766 87.8424 241.442 87.338C240.367 86.9373 239.579 86.5134 239.076 86.0663C238.573 85.6191 238.324 85.044 238.329 84.342C238.319 83.7768 238.543 83.2527 239.003 82.7688C239.462 82.285 240.222 82.0283 241.28 81.997C241.992 82.0096 242.6 82.0954 243.103 82.2555C243.606 82.4156 243.982 82.5775 244.228 82.7402L244.786 81.0714C244.447 80.8773 243.988 80.7074 243.408 80.5607C242.829 80.4141 242.143 80.3363 241.35 80.3291C239.808 80.3541 238.584 80.7566 237.678 81.5382C236.773 82.3199 236.31 83.3323 236.289 84.5754C236.302 85.6593 236.671 86.5573 237.397 87.2691C238.123 87.981 239.131 88.5543 240.42 88.9881C241.468 89.3717 242.224 89.8055 242.688 90.2911C243.152 90.7758 243.38 91.3786 243.371 92.0995C243.364 92.9008 243.076 93.5393 242.508 94.0151C241.94 94.4918 241.136 94.7351 240.095 94.7467C239.391 94.7395 238.731 94.6429 238.112 94.456C237.493 94.2691 236.956 94.033 236.497 93.7477L235.963 95.4174Z" fill="white"/>
<path fill-rule="evenodd" clip-rule="evenodd" d="M261.117 96.2043H263.157V82.275H267.94V80.5605H256.356V82.275H261.117V96.2043Z" fill="white"/>
<path d="M281.655 80.5605H279.614V96.2052H281.655V80.5605Z" fill="white"/>
<path fill-rule="evenodd" clip-rule="evenodd" d="M307.067 87.9895H301.913V89.6118H305.072V94.2802C304.84 94.3992 304.498 94.4976 304.047 94.5763C303.597 94.6541 303.04 94.6952 302.378 94.6979C300.521 94.6827 299.055 94.1264 297.982 93.0291C296.909 91.9308 296.36 90.3827 296.339 88.383C296.363 86.4038 296.936 84.8638 298.058 83.7646C299.179 82.6646 300.705 82.1065 302.633 82.0895C303.417 82.0922 304.086 82.1557 304.642 82.2783C305.198 82.4008 305.682 82.5618 306.093 82.763L306.602 81.1174C306.258 80.9448 305.746 80.7838 305.069 80.6354C304.391 80.486 303.594 80.4073 302.68 80.3975C300.922 80.4109 299.413 80.7633 298.15 81.4546C296.887 82.1459 295.916 83.0966 295.236 84.3066C294.557 85.5166 294.213 86.9064 294.205 88.4751C294.212 89.7021 294.407 90.8156 294.791 91.8146C295.175 92.8135 295.706 93.6426 296.385 94.3026C297.151 95.0279 298.022 95.5547 298.998 95.882C299.974 96.2102 301.053 96.3712 302.238 96.3658C303.308 96.3524 304.264 96.2522 305.105 96.0671C305.948 95.882 306.601 95.696 307.066 95.5082V87.9895H307.067Z" fill="white"/>
<path fill-rule="evenodd" clip-rule="evenodd" d="M328.192 91.2827L329.864 96.2042H332.023L326.684 80.5596H324.247L318.931 96.2042H321.02L322.645 91.2827H328.192ZM323.062 89.7068L324.594 85.1779C324.745 84.7003 324.884 84.2219 325.011 83.7443C325.139 83.2667 325.255 82.7999 325.359 82.3447H325.429C325.542 82.7963 325.663 83.2578 325.788 83.7291C325.915 84.2004 326.058 84.6914 326.218 85.2012L327.773 89.7068H323.062V89.7068Z" fill="white"/>
<path fill-rule="evenodd" clip-rule="evenodd" d="M354.487 94.0945C354.06 94.294 353.556 94.4523 352.975 94.5677C352.395 94.683 351.792 94.7421 351.167 94.7447C349.25 94.7233 347.772 94.1572 346.732 93.0464C345.692 91.9356 345.165 90.4126 345.152 88.4745C345.177 86.4077 345.736 84.8176 346.83 83.7059C347.923 82.5934 349.399 82.0318 351.259 82.0192C351.911 82.0228 352.505 82.0854 353.038 82.2053C353.572 82.3251 354.03 82.4798 354.416 82.6694L354.903 81.0006C354.647 80.8611 354.208 80.7162 353.589 80.5677C352.969 80.4193 352.177 80.3388 351.212 80.3271C348.738 80.3629 346.762 81.1151 345.286 82.5862C343.81 84.0574 343.053 86.0348 343.017 88.5193C343.051 90.8803 343.667 92.7226 344.864 94.0445C346.062 95.3663 347.636 96.1408 349.587 96.3653L348.612 98.1548C349.164 98.2094 349.603 98.3149 349.927 98.4714C350.251 98.6279 350.416 98.8551 350.423 99.1538C350.415 99.3971 350.316 99.5777 350.125 99.6967C349.933 99.8156 349.7 99.8746 349.425 99.8737C349.19 99.8737 348.962 99.8451 348.742 99.7897C348.522 99.7333 348.324 99.6537 348.147 99.5482L347.821 100.591C348.035 100.709 348.287 100.803 348.576 100.875C348.866 100.946 349.163 100.983 349.47 100.985C350.098 100.992 350.647 100.849 351.117 100.559C351.588 100.268 351.835 99.7834 351.86 99.1064C351.847 98.627 351.687 98.238 351.379 97.9384C351.071 97.6397 350.69 97.4474 350.237 97.3633L350.816 96.4341C351.785 96.4162 352.615 96.3366 353.308 96.1936C354.001 96.0514 354.524 95.8841 354.877 95.6927L354.487 94.0945Z" fill="white"/>
<path fill-rule="evenodd" clip-rule="evenodd" d="M375.664 91.283L377.335 96.2045H379.494L374.156 80.5599H371.716L366.401 96.2045H368.491L370.117 91.283H375.664ZM370.533 89.7072L372.064 85.1783C372.215 84.7007 372.355 84.2222 372.483 83.7446C372.611 83.2671 372.727 82.8002 372.832 82.345H372.901C373.016 82.7966 373.136 83.2581 373.262 83.7294C373.388 84.2008 373.531 84.6917 373.692 85.2015L375.247 89.7072H370.533V89.7072ZM371.205 79.6074C371.238 79.29 371.301 79.0413 371.394 78.8607C371.487 78.68 371.625 78.5879 371.809 78.5843C371.979 78.5888 372.149 78.6326 372.319 78.7185C372.49 78.8034 372.683 78.9063 372.901 79.027C373.153 79.1567 373.391 79.2622 373.618 79.3427C373.844 79.4232 374.077 79.4644 374.317 79.467C374.85 79.4644 375.245 79.273 375.503 78.8902C375.761 78.5083 375.883 77.9511 375.871 77.2178H374.805C374.771 77.5809 374.701 77.8241 374.596 77.9493C374.492 78.0737 374.353 78.1318 374.179 78.1237C373.993 78.1193 373.806 78.0754 373.62 77.9932C373.434 77.91 373.248 77.8152 373.062 77.7061C372.825 77.5746 372.598 77.4655 372.385 77.3779C372.173 77.2902 371.942 77.2446 371.691 77.2419C371.188 77.2518 370.797 77.4691 370.521 77.8939C370.243 78.3187 370.108 78.8902 370.116 79.6083H371.205V79.6074Z" fill="white"/>
<path fill-rule="evenodd" clip-rule="evenodd" d="M397.548 96.4599C398.888 96.4572 400.103 96.1424 401.191 95.5155C402.279 94.8885 403.148 93.9629 403.795 92.7394C404.443 91.5169 404.775 90.0099 404.791 88.2186C404.783 86.6589 404.492 85.287 403.916 84.1028C403.341 82.9187 402.526 81.9922 401.473 81.3241C400.42 80.6561 399.173 80.3162 397.733 80.3037C396.328 80.3135 395.083 80.6552 393.998 81.3295C392.913 82.0038 392.06 82.9545 391.439 84.1815C390.818 85.4086 390.503 86.8547 390.49 88.5209C390.523 90.9239 391.176 92.8387 392.448 94.2661C393.721 95.6934 395.412 96.4241 397.524 96.459H397.548V96.4599ZM397.618 94.8143C396.555 94.7973 395.651 94.4932 394.909 93.9039C394.167 93.3136 393.601 92.5409 393.212 91.584C392.823 90.627 392.627 89.5914 392.624 88.4753C392.624 87.3278 392.81 86.2609 393.182 85.2771C393.555 84.2924 394.114 83.4965 394.861 82.8892C395.608 82.2811 396.542 81.969 397.665 81.9511C398.786 81.9716 399.717 82.2918 400.456 82.9089C401.195 83.5269 401.747 84.3175 402.111 85.2807C402.476 86.2439 402.659 87.2554 402.658 88.3134C402.655 89.5118 402.459 90.6002 402.069 91.5777C401.679 92.5552 401.112 93.336 400.366 93.9191C399.621 94.5022 398.712 94.8009 397.641 94.8152H397.618V94.8143Z" fill="white"/>
<path fill-rule="evenodd" clip-rule="evenodd" d="M448.321 96.2042C447.86 95.7078 447.419 95.2329 446.998 94.7795C446.577 94.3261 446.159 93.8798 445.744 93.4416C446.319 92.7556 446.788 91.9284 447.149 90.9607C447.51 89.9921 447.793 88.893 447.997 87.6606H446.139C445.989 88.6462 445.789 89.519 445.541 90.2783C445.292 91.0376 444.988 91.6896 444.629 92.2342C444.117 91.6601 443.523 90.9857 442.849 90.2086C442.174 89.4314 441.498 88.6515 440.823 87.8699V87.8001C442.053 87.1911 442.936 86.5472 443.472 85.8675C444.008 85.1887 444.27 84.4401 444.258 83.6218C444.236 82.5897 443.903 81.7812 443.261 81.1972C442.618 80.6123 441.798 80.3154 440.8 80.3047C439.932 80.3172 439.201 80.5086 438.609 80.8797C438.016 81.2509 437.568 81.7276 437.265 82.3107C436.961 82.8938 436.808 83.5082 436.808 84.1557C436.813 84.7156 436.935 85.2727 437.173 85.8272C437.41 86.3817 437.729 86.9156 438.129 87.429V87.4987C437.219 87.9835 436.485 88.6014 435.927 89.3518C435.369 90.103 435.082 91.0099 435.065 92.075C435.075 93.2833 435.496 94.3073 436.326 95.1471C437.157 95.9869 438.339 96.4242 439.87 96.46C440.738 96.4635 441.55 96.3231 442.305 96.0396C443.06 95.7561 443.773 95.309 444.443 94.6981C444.74 95.0067 445.004 95.2803 445.235 95.52C445.466 95.7597 445.689 95.9878 445.906 96.2042H448.321V96.2042ZM440.219 94.9307C439.263 94.911 438.498 94.6078 437.922 94.022C437.347 93.4362 437.052 92.6868 437.037 91.7728C437.067 90.9526 437.297 90.2828 437.725 89.7641C438.154 89.2454 438.597 88.8545 439.058 88.5916C439.935 89.6085 440.765 90.5538 441.549 91.4275C442.333 92.3013 442.965 92.9971 443.446 93.5149C443.072 93.9299 442.615 94.2671 442.072 94.5282C441.529 94.7893 440.919 94.9235 440.243 94.9315H440.219V94.9307ZM440.66 81.6945C441.295 81.7195 441.757 81.9368 442.046 82.3473C442.335 82.7578 442.477 83.214 442.473 83.7148C442.465 84.365 442.232 84.9284 441.773 85.4042C441.314 85.88 440.68 86.3388 439.871 86.7806C439.536 86.3674 439.258 85.9336 439.035 85.4802C438.811 85.0268 438.695 84.5233 438.686 83.9706C438.687 83.3472 438.853 82.8178 439.182 82.3804C439.511 81.9431 439.997 81.7151 440.637 81.6954H440.66V81.6945Z" fill="white"/>
<path fill-rule="evenodd" clip-rule="evenodd" d="M475.349 96.1588C475.867 96.2277 476.43 96.2751 477.035 96.3037C477.642 96.3323 478.309 96.3448 479.038 96.3448C480.565 96.3421 481.918 96.1498 483.094 95.768C484.27 95.3861 485.233 94.8289 485.983 94.0956C486.706 93.372 487.26 92.4974 487.647 91.4716C488.033 90.4458 488.229 89.293 488.232 88.0114C488.228 86.7504 488.034 85.6566 487.65 84.7319C487.267 83.8071 486.718 83.0273 486.006 82.3923C485.324 81.7528 484.459 81.269 483.411 80.9408C482.363 80.6117 481.114 80.4471 479.666 80.4453C478.863 80.4471 478.1 80.4784 477.376 80.5383C476.653 80.5982 475.976 80.6752 475.35 80.77V96.1588H475.349ZM477.39 82.2519C477.657 82.192 477.988 82.1428 478.382 82.1043C478.777 82.065 479.235 82.0444 479.759 82.0435C481.894 82.0641 483.488 82.6087 484.541 83.6774C485.593 84.7462 486.113 86.2138 486.1 88.0812C486.092 90.2079 485.522 91.8463 484.387 92.9955C483.253 94.1447 481.601 94.7198 479.434 94.7225C479.035 94.7243 478.659 94.7207 478.307 94.7109C477.955 94.701 477.649 94.6742 477.39 94.6295V82.2519Z" fill="white"/>
<path fill-rule="evenodd" clip-rule="evenodd" d="M508.89 87.1992H502.83V82.2517H509.261V80.5605H500.789V96.2043H509.61V94.5131H502.83V88.868H508.89V87.1992Z" fill="white"/>
<path fill-rule="evenodd" clip-rule="evenodd" d="M521.415 95.4174C521.852 95.7036 522.433 95.9424 523.158 96.1356C523.882 96.3288 524.632 96.4289 525.407 96.437C527.251 96.3985 528.622 95.9478 529.52 95.083C530.418 94.2181 530.866 93.1691 530.863 91.9349C530.863 90.8027 530.532 89.8797 529.871 89.166C529.209 88.4523 528.217 87.8424 526.894 87.338C525.819 86.9373 525.03 86.5134 524.527 86.0663C524.025 85.6191 523.775 85.044 523.781 84.342C523.771 83.7768 523.995 83.2527 524.455 82.7688C524.915 82.285 525.674 82.0283 526.732 81.997C527.445 82.0096 528.052 82.0954 528.555 82.2555C529.058 82.4156 529.434 82.5775 529.681 82.7402L530.238 81.0714C529.899 80.8773 529.44 80.7074 528.86 80.5607C528.281 80.4141 527.595 80.3363 526.803 80.3291C525.261 80.3541 524.036 80.7566 523.131 81.5382C522.226 82.3199 521.763 83.3323 521.742 84.5754C521.755 85.6593 522.124 86.5573 522.85 87.2691C523.577 87.981 524.585 88.5543 525.874 88.9881C526.922 89.3717 527.678 89.8055 528.142 90.2911C528.606 90.7758 528.834 91.3786 528.825 92.0995C528.817 92.9008 528.53 93.5393 527.962 94.0151C527.394 94.4918 526.59 94.7351 525.549 94.7467C524.846 94.7395 524.185 94.6429 523.566 94.456C522.948 94.2691 522.41 94.033 521.951 93.7477L521.415 95.4174Z" fill="white"/>
<path fill-rule="evenodd" clip-rule="evenodd" d="M551.673 87.1992H545.612V82.2517H552.044V80.5605H543.572V96.2043H552.393V94.5131H545.612V88.868H551.673V87.1992Z" fill="white"/>
<path fill-rule="evenodd" clip-rule="evenodd" d="M566.888 96.2043V89.52C566.889 88.2357 566.88 87.082 566.862 86.0571C566.843 85.0322 566.805 84.0341 566.748 83.0647L566.818 83.0414C567.206 83.8919 567.65 84.7568 568.148 85.6359C568.646 86.515 569.171 87.3915 569.722 88.2652L574.692 96.2052H576.732V80.5605H574.831V87.1276C574.829 88.3216 574.845 89.4315 574.878 90.4564C574.911 91.4804 574.972 92.508 575.063 93.5382L574.993 93.5615C574.633 92.7629 574.22 91.9454 573.756 91.1066C573.292 90.2677 572.775 89.3912 572.206 88.4772L567.212 80.5605H564.985V96.2052H566.888V96.2043Z" fill="white"/>
<path fill-rule="evenodd" clip-rule="evenodd" d="M595.886 96.2041L601.481 80.5595H599.322L596.676 88.2883C596.314 89.3124 595.982 90.3131 595.678 91.2906C595.374 92.2672 595.111 93.2099 594.889 94.1167H594.842C594.621 93.2126 594.367 92.2753 594.085 91.3049C593.802 90.3346 593.497 89.3213 593.171 88.266L590.734 80.5586H588.528L593.659 96.2032H595.886V96.2041Z" fill="white"/>
<path fill-rule="evenodd" clip-rule="evenodd" d="M619.28 96.4599C620.62 96.4572 621.834 96.1424 622.923 95.5155C624.012 94.8885 624.879 93.9629 625.528 92.7394C626.175 91.5169 626.507 90.0099 626.523 88.2186C626.515 86.6589 626.224 85.287 625.648 84.1028C625.073 82.9187 624.259 81.9922 623.205 81.3241C622.153 80.6561 620.906 80.3162 619.466 80.3037C618.06 80.3135 616.815 80.6552 615.73 81.3295C614.646 82.0038 613.792 82.9545 613.173 84.1815C612.552 85.4086 612.236 86.8547 612.224 88.5209C612.257 90.9239 612.91 92.8387 614.182 94.2661C615.454 95.6934 617.146 96.4241 619.259 96.459H619.28V96.4599ZM619.35 94.8143C618.286 94.7973 617.383 94.4932 616.641 93.9039C615.898 93.3136 615.332 92.5409 614.943 91.584C614.554 90.627 614.358 89.5914 614.356 88.4753C614.356 87.3278 614.542 86.2609 614.914 85.2771C615.286 84.2924 615.846 83.4965 616.592 82.8892C617.339 82.2811 618.274 81.969 619.396 81.9511C620.518 81.9716 621.449 82.2918 622.187 82.9089C622.926 83.5269 623.479 84.3175 623.843 85.2807C624.208 86.2439 624.39 87.2554 624.389 88.3134C624.387 89.5118 624.191 90.6002 623.801 91.5777C623.411 92.5552 622.844 93.336 622.097 93.9191C621.351 94.5022 620.443 94.8009 619.372 94.8152H619.35V94.8143Z" fill="white"/>
<path fill-rule="evenodd" clip-rule="evenodd" d="M639.082 96.2043H647.81V94.5131H641.122V80.5605H639.082V96.2043Z" fill="white"/>
<path fill-rule="evenodd" clip-rule="evenodd" d="M664.468 96.2041L670.063 80.5595H667.904L665.258 88.2883C664.896 89.3124 664.564 90.3131 664.26 91.2906C663.956 92.2672 663.693 93.2099 663.471 94.1167H663.424C663.202 93.2126 662.95 92.2753 662.667 91.3049C662.384 90.3337 662.079 89.3213 661.753 88.266L659.315 80.5586H657.109L662.239 96.2032H664.468V96.2041Z" fill="white"/>
<path d="M683.75 80.5605H681.71V96.2052H683.75V80.5605Z" fill="white"/>
<path fill-rule="evenodd" clip-rule="evenodd" d="M710.787 96.2042H712.784L711.809 80.5596H709.232L706.446 88.1248C706.098 89.1103 705.784 90.0413 705.505 90.9196C705.227 91.7969 704.983 92.6304 704.774 93.4183H704.727C704.519 92.6072 704.285 91.7629 704.025 90.8847C703.765 90.0064 703.473 89.0871 703.149 88.1248L700.479 80.5596H697.903L696.812 96.2042H698.738L699.156 89.4949C699.226 88.3027 699.288 87.0998 699.342 85.888C699.395 84.6753 699.434 83.5717 699.458 82.5772H699.504C699.725 83.5055 699.985 84.475 700.285 85.4874C700.585 86.4997 700.92 87.5569 701.292 88.6596L703.845 96.1121H705.378L708.141 88.52C708.534 87.4513 708.891 86.4201 709.215 85.4265C709.538 84.4329 709.838 83.4832 710.115 82.5772H710.161C710.165 83.5663 710.193 84.6637 710.245 85.8675C710.298 87.0721 710.355 88.2267 710.416 89.3321L710.787 96.2042Z" fill="white"/>
<path fill-rule="evenodd" clip-rule="evenodd" d="M733.927 87.1992H727.866V82.2517H734.298V80.5605H725.826V96.2043H734.646V94.5131H727.866V88.868H733.927V87.1992Z" fill="white"/>
<path fill-rule="evenodd" clip-rule="evenodd" d="M749.142 96.2043V89.52C749.143 88.2357 749.135 87.082 749.116 86.0571C749.097 85.0322 749.059 84.0341 749.002 83.0647L749.072 83.0414C749.46 83.8919 749.904 84.7568 750.402 85.6359C750.9 86.515 751.425 87.3915 751.976 88.2652L756.947 96.2052H758.987V80.5605H757.086V87.1276C757.084 88.3216 757.099 89.4315 757.133 90.4564C757.166 91.4804 757.227 92.508 757.319 93.5382L757.249 93.5615C756.889 92.7629 756.477 91.9454 756.012 91.1066C755.548 90.2677 755.031 89.3912 754.461 88.4772L749.467 80.5605H747.241V96.2052H749.142V96.2043Z" fill="white"/>
<path fill-rule="evenodd" clip-rule="evenodd" d="M775.448 96.2043H777.488V82.275H782.272V80.5605H770.688V82.275H775.448V96.2043Z" fill="white"/>
<path fill-rule="evenodd" clip-rule="evenodd" d="M799.565 96.4599C800.905 96.4572 802.119 96.1424 803.208 95.5155C804.297 94.8885 805.164 93.9629 805.812 92.7394C806.459 91.5169 806.791 90.0099 806.807 88.2186C806.799 86.6589 806.509 85.287 805.933 84.1028C805.357 82.9187 804.543 81.9922 803.489 81.3241C802.436 80.6561 801.189 80.3162 799.749 80.3037C798.344 80.3135 797.098 80.6552 796.014 81.3295C794.929 82.0038 794.076 82.9545 793.456 84.1815C792.835 85.4086 792.519 86.8547 792.507 88.5209C792.54 90.9239 793.193 92.8387 794.465 94.2661C795.737 95.6934 797.429 96.4241 799.542 96.459H799.565V96.4599ZM799.635 94.8143C798.571 94.7973 797.668 94.4932 796.926 93.9039C796.183 93.3136 795.617 92.5409 795.228 91.584C794.839 90.6279 794.643 89.5914 794.641 88.4753C794.641 87.3278 794.827 86.2609 795.199 85.2771C795.571 84.2924 796.131 83.4965 796.877 82.8892C797.623 82.2811 798.558 81.969 799.68 81.9511C800.802 81.9716 801.733 82.2918 802.472 82.9089C803.211 83.5269 803.763 84.3175 804.128 85.2807C804.493 86.2439 804.675 87.2554 804.674 88.3134C804.672 89.5118 804.476 90.6002 804.086 91.5777C803.696 92.5552 803.128 93.336 802.382 93.9191C801.636 94.5022 800.728 94.8009 799.657 94.8152H799.635V94.8143Z" fill="white"/>
<path d="M84.6058 73.6092H66.1261H62.9092H62.5219H53.2861V64.3743C53.2861 59.2739 57.4206 55.1394 62.521 55.1394H62.9083H84.8159C93.2853 55.1394 102.65 48.5445 102.65 37.538V36.9996V36.6105V36.0721C102.65 25.0655 93.2844 18.4707 84.8159 18.4707H62.3413V0H84.6058C99.5591 0 120.875 12.1978 120.875 36.0721L120.888 36.6105V36.9996L120.875 37.538C120.875 61.4113 99.5591 73.6092 84.7963 73.6092H84.6058Z" fill="white"/>
<path d="M84.5921 28.4209C96.1863 28.4209 95.8929 46.8916 84.5921 46.8916H63.3713C54.9019 46.8916 45.5365 53.4864 45.5365 64.493L45.54 91.9277C45.54 102.934 54.9055 109.529 63.3749 109.529H111.521C116.623 109.529 120.756 113.664 120.756 118.764V128H111.521H109.876L63.7764 127.999C49.0136 127.999 27.3171 115.802 27.3171 91.9277L27.3135 64.493C27.3135 40.6187 49.0101 28.4218 63.7729 28.4218L84.5921 28.4209Z" fill="white"/>
<path d="M54.8469 0V18.4707H36.0712C27.6019 18.4707 18.2364 25.0655 18.2364 36.0721V117.04V118.557V127.862H9.31451H8.91921C4.42696 127.772 0 124.67 0 118.556L0.013415 36.0721C0.013415 12.1978 21.7109 0 36.4728 0H54.8469Z" fill="white"/>
</svg>
