<svg width="215" height="128" viewBox="0 0 215 128" fill="none" xmlns="http://www.w3.org/2000/svg">
<path fill-rule="evenodd" clip-rule="evenodd" d="M41.3305 14.1395V28.2791H20.6652H0V64V99.7209H20.6652H41.3305V113.86V128H61.9957H82.6609V108.651V89.3023H61.9957H41.3305V64V38.6977H61.9957H82.6609V19.3488V0H61.9957H41.3305V14.1395ZM58.893 51.0273C48.7153 57.9245 50.0527 73.5152 61.2252 78.2214C70.8552 82.2787 82.6609 79.7142 82.6609 73.5658C82.6609 70.3821 82.2816 70.1723 78.8748 71.4791C70.0374 74.8666 61.3831 72.0491 60.4783 65.4884C59.7447 60.1749 60.8015 57.9766 65.187 55.6889C69.0071 53.6975 70.8493 53.5546 75.3218 54.906C82.5 57.0746 82.6609 57.0463 82.6609 53.6335C82.6609 46.9522 67.379 45.2763 58.893 51.0273ZM90.0414 64V80.3721H93.7316H97.4218V64V47.6279H93.7316H90.0414V64ZM112.646 50.5302C106.887 54.0711 104.802 57.7682 104.802 64.445C104.802 74.563 115.099 81.6461 126.889 79.6368C133.344 78.5369 136.579 75.6361 135.25 72.1414C134.566 70.3449 133.722 70.1738 131.491 71.3779C126.712 73.9572 118.385 73.2309 115.135 69.9535C111.455 66.243 111.381 62.3509 114.908 57.9602C117.79 54.3687 124.766 53.3328 131.003 55.5684C133.865 56.5939 134.324 56.2545 134.324 53.1111C134.324 50.5868 133.301 49.1877 131.003 48.5656C124.694 46.8614 117.333 47.6487 112.646 50.5302ZM147.458 51.0273C140.484 55.7529 138.525 63.7336 142.513 71.1754C150.61 86.2794 175.654 80.832 175.654 63.9658C175.654 58.88 174.741 56.8275 170.636 52.6884C166.432 48.4495 164.551 47.6279 159.046 47.6279C154.65 47.6279 150.813 48.7531 147.458 51.0273ZM181.878 63.6279C182.295 79.5892 182.306 79.6279 185.987 79.6279C189.457 79.6279 189.722 79.0668 190.415 70.1872L191.153 60.7464L199.737 70.5593C204.748 76.2895 209.507 80.3721 211.177 80.3721C213.828 80.3721 214.033 79.1978 214.033 64V47.6279H210.343C206.816 47.6279 206.652 48.0253 206.652 56.5581C206.652 61.4698 206.112 65.4884 205.452 65.4884C204.794 65.4884 200.974 61.4742 196.965 56.5686C191.252 49.5777 188.789 47.6473 185.568 47.6383L181.458 47.6279L181.878 63.6279ZM164.385 56.6668C171.451 62.2705 167.842 72.9302 158.877 72.9302C152.399 72.9302 148.933 70.0517 148.776 64.5403C148.62 58.9931 149.86 56.7576 154.033 55.0593C158.833 53.1066 160.157 53.312 164.385 56.6668Z" fill="white"/>
</svg>
