<svg width="283" height="128" viewBox="0 0 283 128" fill="none" xmlns="http://www.w3.org/2000/svg">
<path fill-rule="evenodd" clip-rule="evenodd" d="M266.325 0.673879C263.843 1.65578 261.21 4.10648 260.01 6.55088C259.154 8.29332 259.028 8.9588 259.029 11.7087C259.03 14.1984 259.191 15.2129 259.787 16.5063C260.857 18.828 263.157 21.1787 265.467 22.3135C267.185 23.1568 267.864 23.2852 270.604 23.2852C273.344 23.2852 274.023 23.1568 275.74 22.3135C278.049 21.1794 280.349 18.829 281.422 16.5063C282.549 14.0672 282.513 8.84022 281.353 6.6221C280.221 4.45483 277.964 2.18093 275.866 1.09309C273.418 -0.176466 268.967 -0.371865 266.325 0.673879ZM274.904 2.96217C278.15 4.57937 280.258 7.8264 280.299 11.2695C280.371 17.223 276.282 21.4078 270.472 21.3292C266.659 21.2776 263.747 19.4604 262.057 16.0787C259.592 11.1464 261.452 5.37954 266.284 2.97198C268.853 1.69155 272.347 1.6877 274.904 2.96217ZM266.298 11.621L266.394 17.6724L267.359 17.7832L268.324 17.8945V15.2399V12.5857H269.349C270.244 12.5857 270.588 12.9225 272.041 15.2168C273.498 17.5166 273.838 17.8478 274.74 17.8478C275.728 17.8478 275.75 17.8152 275.255 17.0585C273.845 14.9039 272.466 12.543 272.58 12.4805C272.651 12.4419 273.182 12.1679 273.761 11.8715C274.34 11.5751 275.034 10.8724 275.305 10.3104C275.726 9.43413 275.726 9.08684 275.305 7.87622C274.633 5.94575 273.734 5.58092 269.631 5.57495L266.202 5.56969L266.298 11.621ZM272.806 7.5191C273.665 8.12073 273.862 9.71302 273.165 10.4108C272.926 10.649 271.785 10.8317 270.534 10.8317H268.324V8.90232V6.9729H270.175C271.283 6.9729 272.34 7.19215 272.806 7.5191ZM6.38899 24.1938C4.16981 25.0484 2.11305 26.9827 0.983112 29.2787L0.134519 31.0029L0.0383993 57.8081C-0.0682449 87.4801 -0.111394 86.8326 2.17058 89.8242C2.90481 90.7868 4.12561 91.7512 5.53093 92.4787L7.73818 93.6213H127.444C262.049 93.6213 249.018 93.9093 252.127 90.864C255.412 87.6468 255.168 90.2297 255.168 58.541V30.6521L254.396 29.2082C253.209 26.989 252.067 25.8044 250.023 24.6723L248.152 23.6361L128.178 23.5655C9.13086 23.4957 8.18896 23.5006 6.38899 24.1938ZM51.001 39.5874C52.7375 40.0144 54.2066 40.4111 54.2659 40.4686C54.3838 40.583 52.9767 48.0874 52.8052 48.2589C52.7469 48.3172 50.9845 48.0498 48.8884 47.6647C46.7924 47.2795 43.7969 46.9645 42.232 46.9645C39.6942 46.9645 39.2129 47.0746 37.7806 47.9829C36.5753 48.7473 35.9417 49.4941 35.2394 50.9787C32.889 55.9475 33.5783 65.088 36.5475 68.3175C38.6148 70.5662 41.9503 70.9629 48.766 69.7702C50.9599 69.3864 52.935 69.0707 53.1553 69.0686C53.5499 69.0651 54.2571 76.6252 53.8958 76.9869C53.8043 77.0781 52.1232 77.4643 50.1605 77.845C45.1401 78.8181 38.7639 78.7974 35.5274 77.798C27.9336 75.4522 23.9628 69.4671 23.5671 59.7688C23.3538 54.5397 23.9467 51.4235 25.9136 47.4342C28.0255 43.1498 31.3837 40.4136 36.1848 39.0647C38.9232 38.2951 46.8892 38.5764 51.001 39.5874ZM71.1722 51.8957C71.1722 66.4109 71.2897 67.4272 73.1556 69.0654C74.2126 69.9933 74.6111 70.1175 76.5342 70.1161C79.2017 70.1147 80.7772 69.272 81.6296 67.391C82.147 66.2499 82.2362 64.3513 82.3291 52.4896L82.4358 38.896H87.5035H92.5712L92.5659 52.1388C92.5603 66.4035 92.3965 68.0762 90.6737 71.4397C89.7507 73.2417 87.5035 75.5493 85.5551 76.6954C83.3531 77.9905 80.7431 78.5368 76.7584 78.5368C69.06 78.5368 64.5886 75.8696 61.9745 69.719C61.1918 67.878 61.1725 67.5254 61.0687 53.3666L60.9627 38.896H66.0676H71.1722V51.8957ZM120.603 39.4362C127.251 41.0033 131.099 45.4062 132.418 52.9572C133.465 58.9476 132.538 66.2615 130.185 70.5862C129.009 72.7464 125.883 75.6174 123.617 76.6186C120.66 77.9246 117.589 78.2417 109.059 78.1218L101.166 78.0105L101.075 58.4533L100.984 38.896L109.67 38.9013C116.175 38.9051 118.919 39.0395 120.603 39.4362ZM165.878 39.1591C165.872 39.304 165.561 41.1587 165.187 43.281C164.814 45.4034 164.503 47.1792 164.497 47.2276C164.491 47.276 161.171 47.3153 157.119 47.3153H149.752V50.2897V53.2645L156.856 53.3593L163.96 53.4543L164.059 57.5763L164.157 61.6982H156.955H149.752V65.7324V69.7667H157.645H165.538V73.9805V78.1944L152.471 78.1024L139.403 78.0105L139.312 58.8918C139.262 48.3764 139.297 39.5758 139.389 39.3345C139.519 38.9946 142.513 38.896 152.723 38.896C159.964 38.896 165.884 39.0142 165.878 39.1591ZM184.482 54.3313V69.7667H192.375H200.268V70.7545C200.268 71.2979 200.107 72.6794 199.911 73.8241C199.715 74.9691 199.471 76.419 199.369 77.0458L199.183 78.1859H186.746H174.308V58.541V38.896H179.395H184.482V54.3313ZM216.054 54.3313V69.7667H223.947H231.84L231.834 70.556C231.831 70.9899 231.594 72.766 231.309 74.5025C231.024 76.239 230.79 77.7783 230.789 77.9228C230.788 78.0674 225.184 78.1859 218.334 78.1859H205.881V58.541V38.896H210.967H216.054V54.3313ZM111.247 58.4533L111.339 69.5913L113.444 69.7025C118.284 69.9579 120.361 68.8483 121.689 65.2978C122.596 62.8723 122.962 57.5205 122.435 54.364C121.54 48.9984 119.583 47.3153 114.242 47.3153H111.154L111.247 58.4533ZM86.1231 110.109L85.1945 111.512H86.2143C86.8348 111.512 87.3203 111.288 87.4543 110.938C87.6582 110.407 87.7217 110.407 88.3089 110.938C88.8912 111.465 90.4663 111.753 90.4663 111.332C90.4663 111.233 90.1113 110.603 89.677 109.933C88.5527 108.198 87.3484 108.257 86.1231 110.109ZM119.441 109.164C119.056 109.446 118.861 109.953 118.936 110.479C119.041 111.226 119.239 111.337 120.46 111.337C121.828 111.337 121.866 111.304 121.972 110.021C122.075 108.782 122.023 108.706 121.074 108.706C120.521 108.706 119.786 108.912 119.441 109.164ZM228.336 109.929C228.098 110.216 228.001 110.708 228.122 111.021C228.301 111.489 228.436 111.512 228.874 111.149C229.294 110.8 229.7 110.794 230.797 111.123C232.315 111.578 233.594 111.198 233.594 110.293C233.594 109.585 232.941 109.282 232.394 109.735C232.065 110.008 231.645 110.017 230.983 109.766C229.671 109.267 228.843 109.318 228.336 109.929ZM11.3083 110.47C8.54924 111.325 6.88783 115.255 7.67749 119.058C8.45697 122.813 11.102 124.499 15.3218 123.931C17.6319 123.621 17.6747 123.596 17.6747 122.563V121.51H14.9107C12.3021 121.51 12.1053 121.456 11.4188 120.542C10.9168 119.873 10.6495 118.895 10.5565 117.384C10.4418 115.519 10.5457 115.014 11.2616 113.968L12.1015 112.74L14.8111 112.758C17.3775 112.775 17.5319 112.732 17.7301 111.943C17.8448 111.485 17.7855 110.957 17.5982 110.769C17.1081 110.279 12.6136 110.066 11.3083 110.47ZM76.1711 110.713C75.1019 110.846 75.031 110.941 75.031 112.236C75.031 113.383 74.9121 113.617 74.3294 113.617C73.7835 113.617 73.6278 113.851 73.6278 114.669C73.6278 115.46 73.7895 115.722 74.2775 115.722C74.8479 115.722 74.9528 116.118 75.1362 118.967C75.325 121.897 75.4341 122.288 76.2602 123.001C76.9071 123.559 77.6231 123.79 78.7053 123.79C80.7754 123.79 81.3455 123.517 81.3455 122.525C81.3455 121.767 81.196 121.686 79.8044 121.686C77.9595 121.686 77.8374 121.468 77.8374 118.184V115.792L79.1529 115.482C80.124 115.253 80.4979 114.968 80.5807 114.394C80.6807 113.701 80.539 113.617 79.2652 113.617H77.8374V112.038C77.8374 111.17 77.7189 110.485 77.5743 110.516C77.4298 110.547 76.798 110.636 76.1711 110.713ZM145.653 111.144C143.659 112.359 143.228 114.213 144.548 115.891C145.207 116.73 145.237 116.897 144.769 117.158C143.921 117.633 143.332 119.435 143.585 120.782C144.056 123.295 147.251 124.653 150.454 123.703L152.032 123.235L152.134 120.356C152.19 118.772 152.388 117.476 152.573 117.476C152.758 117.476 152.909 117.081 152.909 116.599C152.909 116.117 152.751 115.722 152.559 115.722C152.366 115.722 152.208 115.406 152.208 115.02C152.208 114.499 151.974 114.319 151.298 114.319C150.683 114.319 150.328 114.546 150.205 115.02C150.061 115.567 149.726 115.722 148.684 115.722C147.257 115.722 146.244 115.013 146.244 114.013C146.244 113.005 147 112.565 148.729 112.565C150.194 112.565 150.39 112.472 150.536 111.705C150.64 111.162 150.515 110.775 150.198 110.653C149.107 110.234 146.722 110.492 145.653 111.144ZM162.03 117.125V123.79H163.609H165.187V117.125V110.46H163.609H162.03V117.125ZM22.9367 113.675C21.409 114.233 20.7551 114.914 20.1008 116.627C18.3475 121.218 22.1548 125.263 26.7826 123.726C28.7948 123.058 29.7774 121.445 29.7774 118.81C29.7774 116.377 29.1137 114.888 27.7034 114.159C26.2988 113.433 24.1863 113.218 22.9367 113.675ZM36.6808 113.496C36.5546 113.622 35.5811 113.697 34.5174 113.662L32.5838 113.599V118.695V123.79H33.9755H35.3671L35.4664 119.868L35.5656 115.946L36.5346 115.688C38.2135 115.24 38.5475 115.978 38.5475 120.132V123.79H39.9507H41.3539V119.923V116.055L42.3144 115.69C43.1318 115.38 43.3668 115.439 43.893 116.088C44.3901 116.703 44.5111 117.531 44.5111 120.321V123.79H45.9143H47.3176V119.783C47.3176 115.995 47.2684 115.717 46.4195 114.708C45.272 113.344 43.7046 113.033 41.8078 113.792C40.4899 114.319 40.2724 114.322 39.2982 113.818C38.1833 113.241 37.072 113.105 36.6808 113.496ZM52.3165 113.675L50.4748 114.022V121.011V128H51.878H53.2812V126.115V124.23L55.0612 124.059C58.0269 123.775 59.9454 121.67 59.9454 118.704C59.9454 114.833 56.8847 112.816 52.3165 113.675ZM86.4974 113.607C85.9543 113.779 85.2731 114.116 84.9833 114.357C83.3752 115.691 82.8276 119.464 83.9323 121.6C84.9131 123.497 87.8195 124.487 90.6417 123.886C91.8159 123.636 92.0632 123.432 92.1562 122.636L92.267 121.684L89.9135 121.749C87.8399 121.806 87.4824 121.718 86.9081 121.009C86.55 120.567 86.2567 120.064 86.2567 119.893C86.2567 119.721 87.7564 119.581 89.5893 119.581H92.922L92.9213 118.441C92.9206 117 91.9572 115.088 90.8091 114.247C89.7395 113.464 87.8413 113.182 86.4974 113.607ZM100.184 113.488C100.062 113.61 99.0098 113.688 97.8455 113.662L95.7284 113.614V118.702V123.79H97.307H98.8856V119.92C98.8856 116.227 98.9217 116.037 99.6749 115.757C100.529 115.439 101.365 115.624 101.774 116.222C101.916 116.429 102.034 118.217 102.038 120.195L102.043 123.79H103.446H104.849V119.954C104.849 117.845 104.692 115.706 104.501 115.202C104.019 113.935 100.954 112.718 100.184 113.488ZM110.988 113.653C108.622 114.38 107.656 115.879 107.656 118.823C107.656 120.952 107.724 121.134 108.985 122.396C110.486 123.896 112.441 124.393 114.847 123.884C116.071 123.625 116.264 123.453 116.355 122.531L116.46 121.475L114.201 121.619C112.257 121.742 111.839 121.659 111.202 121.023C110.287 120.108 110.198 117.659 111.035 116.463C111.553 115.724 111.818 115.659 113.821 115.787C115.921 115.921 116.046 115.884 116.248 115.082C116.509 114.039 116.452 113.981 114.787 113.595C113.16 113.217 112.368 113.229 110.988 113.653ZM127.038 113.52C126.045 113.643 125.897 113.794 125.897 114.682V115.703L128.014 115.625C129.578 115.567 130.218 115.684 130.464 116.073C131.085 117.052 130.872 117.568 129.942 117.335C128.651 117.01 126.158 117.686 125.459 118.55C124.738 119.44 124.668 121.597 125.331 122.471C126.225 123.649 128.039 124.111 130.92 123.893L133.615 123.689V119.783C133.615 115.394 133.308 114.594 131.3 113.755C130.156 113.278 129.351 113.233 127.038 113.52ZM172.803 113.484C172.65 113.638 171.584 113.727 170.435 113.681L168.345 113.598V118.695V123.79H169.912H171.479L171.578 119.859C171.676 115.994 171.692 115.924 172.554 115.704C174.41 115.232 174.659 115.735 174.659 119.944V123.79H176.238H177.816V120.13C177.816 116.046 177.541 114.965 176.29 114.146C175.278 113.482 173.197 113.087 172.803 113.484ZM183.546 113.636C180.547 114.546 179.25 119.292 181.252 122.028C182.79 124.129 186.283 124.695 188.548 123.211C191.179 121.487 191.037 115.537 188.33 114.138C187.006 113.453 184.883 113.23 183.546 113.636ZM206.144 113.517C205.333 113.641 205.179 113.835 205.179 114.74V115.817L206.786 115.597C208.59 115.35 209.739 115.786 209.739 116.72C209.739 117.231 209.419 117.347 207.947 117.369C205.878 117.4 204.523 118.216 204.017 119.734C203.235 122.079 205.9 124.499 208.656 123.945C209.348 123.806 210.586 123.726 211.406 123.768L212.897 123.843L212.895 120.046C212.894 116.903 212.776 116.055 212.212 115.129C211.262 113.571 209.274 113.043 206.144 113.517ZM218.84 113.582C217.054 114.158 216.333 114.752 215.681 116.189C214.837 118.047 214.842 119.37 215.699 121.259C216.219 122.406 216.737 122.923 217.884 123.444C218.71 123.819 219.663 124.129 220 124.133C220.732 124.143 220.824 125.038 220.122 125.308C219.851 125.411 219.299 125.41 218.894 125.304C218.292 125.147 218.159 125.271 218.159 125.992C218.159 127.062 219.376 127.485 220.846 126.926C222.032 126.475 222.356 126.017 222.363 124.78C222.367 124.073 222.565 123.811 223.158 123.727C223.771 123.64 223.947 123.386 223.947 122.589V121.562L221.615 121.647C219.532 121.722 219.223 121.646 218.721 120.929C217.994 119.891 217.999 117.509 218.731 116.463C219.249 115.724 219.515 115.659 221.509 115.786C223.687 115.925 223.715 115.916 223.855 114.961C223.941 114.377 223.815 113.925 223.538 113.818C222.576 113.45 219.7 113.305 218.84 113.582ZM228.683 113.558C227.657 113.754 227.436 113.959 227.339 114.806L227.223 115.819L228.9 115.63C230.973 115.397 232.191 115.817 232.191 116.766C232.191 117.394 231.965 117.476 230.234 117.476C228.522 117.476 228.145 117.609 227.209 118.544C226.296 119.458 226.17 119.795 226.344 120.868C226.456 121.559 226.811 122.413 227.132 122.768C227.969 123.693 229.89 124.241 231.227 123.937C231.854 123.794 233.037 123.715 233.857 123.761L235.348 123.843V120.297C235.348 116.459 234.856 114.643 233.638 113.991C232.688 113.483 230.211 113.267 228.683 113.558ZM241.291 113.583C238.796 114.384 237.804 115.886 237.804 118.862C237.804 122.274 239.431 123.936 242.785 123.948C245.1 123.955 246.375 123.223 247.382 121.31C248.204 119.75 248.03 116.784 247.038 115.444C245.832 113.814 243.214 112.966 241.291 113.583ZM63.8555 114.506C62.54 115.612 61.9155 117.433 62.1471 119.487C62.4691 122.342 64.6542 124.171 67.6641 124.106C70.2268 124.05 70.9817 123.718 71.1118 122.592L71.2272 121.598L69.2898 121.84C66.8615 122.143 65.231 121.415 65.2138 120.019C65.2099 119.7 66.0708 119.581 68.3657 119.581H71.523L71.5216 118.09C71.5202 116.302 70.4818 114.439 69.2196 113.959C68.725 113.771 67.5533 113.617 66.6159 113.617C65.3039 113.617 64.6686 113.822 63.8555 114.506ZM118.881 118.704V123.79H120.46H122.039V118.704V113.617H120.46H118.881V118.704ZM191.938 114.056C192.028 114.297 192.874 116.59 193.817 119.153L195.532 123.811L197.081 123.713L198.63 123.615L200.28 119.23C201.188 116.818 202.047 114.569 202.189 114.231C202.413 113.699 202.237 113.617 200.866 113.617H199.284L198.571 115.985C198.178 117.288 197.751 118.786 197.622 119.315C197.493 119.845 197.262 120.201 197.11 120.107C196.958 120.013 196.397 118.514 195.864 116.776L194.895 113.617H193.334C192.232 113.617 191.822 113.746 191.938 114.056ZM26.1097 116.232C27.3263 117.449 27.3263 119.959 26.1097 121.175C25.1587 122.127 24.789 122.208 23.8025 121.68C22.1885 120.816 22.2783 116.387 23.9232 115.725C25.0584 115.268 25.1713 115.294 26.1097 116.232ZM55.5042 115.7C56.7359 116.168 57.3554 118.181 56.8191 119.971C56.362 121.496 55.3744 122.198 54.1256 121.884C53.3173 121.681 53.2812 121.546 53.2812 118.723C53.2812 116.209 53.3717 115.75 53.8951 115.613C54.2329 115.525 54.5381 115.434 54.5739 115.412C54.6097 115.389 55.0282 115.519 55.5042 115.7ZM68.2798 115.81C68.4727 116.051 68.7397 116.603 68.8727 117.037C69.1052 117.796 69.0312 117.827 66.986 117.827C65.118 117.827 64.8577 117.744 64.8577 117.15C64.8577 115.681 67.3849 114.691 68.2798 115.81ZM89.5644 115.922C89.8675 116.226 90.1155 116.778 90.1155 117.15C90.1155 117.743 89.8556 117.827 88.0107 117.827C85.7365 117.827 85.4751 117.546 86.4521 116.151C87.1004 115.225 88.746 115.104 89.5644 115.922ZM186.778 116.232C187.442 116.896 187.639 117.462 187.639 118.704C187.639 119.946 187.442 120.511 186.778 121.175C186.304 121.649 185.741 122.036 185.527 122.036C183.3 122.036 182.351 117.852 184.167 116.037C185.057 115.147 185.744 115.198 186.778 116.232ZM243.762 115.719C244.799 116.274 245.332 118.359 244.85 119.971C244.212 122.097 242.871 122.576 241.471 121.175C240.807 120.511 240.61 119.946 240.61 118.704C240.61 117.462 240.807 116.896 241.471 116.232C242.419 115.284 242.793 115.201 243.762 115.719ZM149.682 119.844C149.588 121.647 149.491 121.873 148.767 121.976C147.412 122.168 146.244 121.145 146.244 119.766C146.244 118.379 146.894 117.853 148.63 117.837L149.787 117.827L149.682 119.844ZM131.093 120.371C131.188 121.523 131.084 121.731 130.257 122.046C128.311 122.786 126.774 121.313 127.823 119.713C128.291 118.999 128.632 118.859 129.69 118.947C130.91 119.048 130.99 119.13 131.093 120.371ZM210.021 120.514C210.122 121.894 210.068 121.985 209.033 122.213C208.232 122.389 207.757 122.289 207.26 121.84C205.88 120.59 206.867 118.758 208.819 118.948C209.833 119.046 209.923 119.163 210.021 120.514ZM232.473 120.514C232.572 121.882 232.514 121.987 231.529 122.203C230.047 122.529 229.034 121.893 229.034 120.638C229.034 119.429 229.828 118.848 231.314 118.969C232.281 119.048 232.375 119.173 232.473 120.514Z" fill="white"/>
</svg>
