<svg width="930" height="128" viewBox="0 0 930 128" fill="none" xmlns="http://www.w3.org/2000/svg">
<path fill-rule="evenodd" clip-rule="evenodd" d="M228.889 0.197974C217.893 0.915285 206.816 3.07327 198.757 6.06774C193.788 7.9136 188.178 10.7355 184.256 13.3611C180.169 16.0961 174.065 21.9556 171.299 25.7975C166.289 32.755 162.959 40.9345 161.333 50.2746C161.01 52.1265 160.584 56.0422 160.386 58.9762C159.957 65.3336 160.433 73.4064 161.57 79.0204C163.231 87.2214 166.68 95.2726 171.265 101.647C174.122 105.619 179.767 111.187 184.057 114.263C188.492 117.443 196.882 121.613 202.595 123.476C211.207 126.285 218.772 127.553 229.078 127.915C243.307 128.416 260.59 126.673 275.139 123.272L279.206 122.321V87.9251V53.529H253.48H227.754V65.2572V76.9853H237.401H247.048V89.2663V101.548L245.062 102.142C241.671 103.157 237.589 103.564 233.05 103.339C230.657 103.221 227.323 102.86 225.642 102.537C221.988 101.835 217.003 100.193 214.134 98.7453C206.736 95.0123 200.625 88.5822 197.505 81.2483C194.223 73.5323 193.408 62.817 195.426 53.9073C196.504 49.1483 198.599 44.4711 201.276 40.8478C203.41 37.9589 207.995 33.8832 211.437 31.816C214.764 29.8177 219.806 27.7811 224.226 26.6507C231.207 24.865 241.429 24.0463 247.994 24.7466C256.848 25.6909 265.886 28.0452 272.207 31.054C273.872 31.8463 275.363 32.5605 275.522 32.6407C275.681 32.7213 275.766 26.6166 275.712 19.0747L275.612 5.36215L272.964 4.46211C269.078 3.14137 260.156 1.44381 253.669 0.790815C246.24 0.0432387 235.278 -0.218943 228.889 0.197974ZM0 63.933V125.79H62.0458H124.092V63.933V2.07637H62.0458H0V63.933ZM307.202 63.933V125.79H351.85H396.499L396.399 114.156L396.299 102.522L368.208 102.426L340.117 102.328V88.3329V74.337H365.849H391.581L391.48 62.7035L391.38 51.0699L365.749 50.9726L340.117 50.8754V38.2067V25.5376L367.262 25.4408L394.407 25.3436L394.507 13.71L394.607 2.07637H350.905H307.202V63.933ZM421.079 63.933V125.79H450.497C474.245 125.79 480.861 125.68 484.83 125.221C494.207 124.136 501.992 121.601 507.783 117.748C514.741 113.119 519.012 106.746 520.777 98.3609C521.197 96.3682 521.412 93.5894 521.408 90.2268C521.403 86.296 521.222 84.4395 520.623 82.1684C519.035 76.15 515.622 71.4341 510.359 67.9872C507.623 66.195 503.159 64.3499 499.301 63.4158C497.898 63.0761 496.749 62.6834 496.747 62.5438C496.746 62.4038 497.383 62.0822 498.164 61.8291C500.467 61.0827 504.708 58.8585 507.203 57.0891C508.481 56.1822 510.473 54.3942 511.631 53.1155C514.01 50.4861 516.412 45.8917 517.347 42.1792C518.23 38.6755 518.523 31.8852 517.945 28.3047C517.337 24.537 516.051 20.7454 514.459 18.0286C513.767 16.8497 511.84 14.509 510.176 12.8266C505.961 8.56735 501.761 6.22436 494.645 4.1621C487.881 2.20198 485.305 2.07637 451.894 2.07637H421.079V63.933ZM545.549 63.933V125.79H590.003H634.456V114.062V102.333H606.46H578.464V88.3352V74.337H604.001H629.538V62.6089V50.8807H604.001H578.464V38.2067V25.5327H605.514H632.565V13.8045V2.07637H589.057H545.549V63.933ZM659.426 63.916V125.79H675.883H692.341V101.388V76.9853L697.543 76.991C705.666 76.9997 708.943 78.0537 712.426 81.7772C716.773 86.425 718.764 91.3819 727.788 120.02L729.606 125.79H746.769C762.932 125.79 763.922 125.751 763.753 125.128C763.374 123.732 751.637 91.1689 748.788 83.6061C747.141 79.2364 745.358 74.7997 744.824 73.7472C742.712 69.5815 739.451 66.517 735.756 65.2239L734.338 64.7279L738.331 63.3232C740.527 62.5506 743.292 61.3502 744.477 60.6556C745.661 59.9613 748.083 57.946 749.859 56.1773C752.435 53.6122 753.408 52.3108 754.67 49.7457C755.541 47.977 756.604 45.0828 757.034 43.3141C758.03 39.2078 758.41 31.934 757.823 28.1897C757.579 26.634 756.973 24.1938 756.477 22.7668C754.136 16.0337 749.011 10.5271 741.712 6.90271C738.516 5.31562 735.159 4.18366 730.467 3.11035C727.057 2.33061 725.997 2.30413 693.192 2.17512L659.426 2.04232V63.916ZM784.653 63.933V125.79H801.299H817.945V63.933V2.07637H801.299H784.653V63.933ZM835.727 14.372V26.6677H850.86H865.993V76.2287V125.79H882.64H899.286V76.2287V26.6677H914.419H929.552V14.372V2.07637H882.64H835.727V14.372ZM475.476 26.4452C480.085 27.6044 482.876 29.6213 484.287 32.8129C484.966 34.3493 485.167 35.4899 485.17 37.8284C485.175 41.4373 484.373 43.5241 482.144 45.7082C480.262 47.5518 477.764 48.8309 474.103 49.8248C471.697 50.4782 469.753 50.6405 462.601 50.7861L453.994 50.9617V38.1984V25.4355L463.547 25.6413C470.406 25.7896 473.769 26.0162 475.476 26.4452ZM712.77 26.4702C716.362 27.2571 719.81 28.8423 721.757 30.6012C722.591 31.3544 723.668 32.8628 724.152 33.9535C724.846 35.5183 725.032 36.6151 725.035 39.1525C725.038 41.2602 724.807 43.0489 724.364 44.3432C723.423 47.094 720.925 49.7571 718.092 51.0282C714.215 52.7678 711.422 53.17 701.515 53.4132L692.341 53.6391V39.538V25.4374L701.137 25.6432C707.205 25.7851 710.812 26.0416 712.77 26.4702ZM477.13 74.6306C480.859 75.6502 483.342 76.935 485.093 78.7499C487.251 80.9877 488.16 83.4048 488.34 87.3894C488.466 90.186 488.351 91.1715 487.698 92.905C486.549 95.9521 484.697 97.9167 481.497 99.4826C477.14 101.614 474.7 101.99 463.736 102.219L453.994 102.423V87.9656V73.5078L464.114 73.6731C472.875 73.8165 474.623 73.9451 477.13 74.6306Z" fill="white"/>
</svg>
