<svg width="155" height="69" viewBox="0 0 155 69" fill="none" xmlns="http://www.w3.org/2000/svg">
<path fill-rule="evenodd" clip-rule="evenodd" d="M61.555 0.98C60.394 1.449 58.481 3.057 57.305 4.552C55.673 6.626 55.167 8.658 55.167 13.135C55.167 18.724 55.05 19 52.667 19C50.569 19 50.167 19.471 50.167 21.93C50.167 24.208 50.668 24.932 52.417 25.18C54.615 25.493 54.673 25.83 54.944 39.75L55.222 54H58.667H62.112L62.39 39.75C62.661 25.83 62.719 25.493 64.917 25.18C66.652 24.934 67.167 24.206 67.167 22C67.167 19.794 66.652 19.066 64.917 18.82C63.115 18.564 62.606 17.761 62.359 14.792C62.19 12.753 62.562 10.131 63.186 8.965C63.839 7.744 64.924 7.076 65.744 7.391C66.827 7.807 67.167 6.99 67.167 3.969C67.167 0.832 66.8 0.0130002 65.417 0.0630002C64.454 0.0980002 62.717 0.511 61.555 0.98ZM86.167 27V54H94.151C101.56 54 102.371 53.79 105.401 51.082L108.667 48.164V35.5V22.836L105.401 19.918C102.951 17.729 101.14 17 98.151 17H94.167V8.5V0H90.167H86.167V27ZM73.367 5.2C72.707 5.86 72.167 7.155 72.167 8.078C72.167 9 72.817 10.295 73.612 10.954C74.407 11.614 76.094 12.006 77.362 11.827C78.882 11.611 79.778 10.715 79.994 9.195C80.173 7.927 79.781 6.24 79.121 5.445C78.462 4.65 77.167 4 76.245 4C75.322 4 74.027 4.54 73.367 5.2ZM26.09 19.923C23.197 22.816 23.167 22.966 23.167 34.376C23.167 40.717 23.667 47.002 24.277 48.343C24.888 49.683 26.484 51.279 27.824 51.89C31.902 53.748 35.686 53.208 38.531 50.364C41.104 47.79 41.166 47.428 41.135 35.114C41.114 26.779 40.69 21.962 39.885 20.913C39.215 20.041 37.684 18.803 36.483 18.163C32.783 16.193 29.216 16.797 26.09 19.923ZM72.167 35.5V54H76.167H80.167V35.5V17H76.167H72.167V35.5ZM115.167 35.5V54H118.64H122.114L122.39 39.25C122.661 24.811 122.714 24.493 124.917 24.18C126.751 23.92 127.167 23.227 127.167 20.43V17H121.167H115.167V35.5ZM135.09 19.923C132.167 22.846 132.167 22.848 132.167 35.5C132.167 48.152 132.167 48.154 135.09 51.077C137.838 53.825 138.496 54 146.09 54H154.167V35.5V17H146.09C138.496 17 137.838 17.175 135.09 19.923ZM2.959 21.054L0 24.013L0.333 35.982C0.637 46.868 0.872999 48.156 2.946 50.225C4.733 52.009 6.298 52.484 10.196 52.427L15.167 52.354V56.604C15.167 59.947 14.633 61.275 12.667 62.821C11.292 63.903 10.167 65.736 10.167 66.894C10.167 69.995 13.738 69.583 17.244 66.077L20.167 63.154V40.647V18.14L13.043 18.117C6.468 18.096 5.69 18.323 2.959 21.054ZM34.967 23.2C35.744 23.977 36.167 28.006 36.167 34.629C36.167 42.594 35.819 45.205 34.596 46.429C33.731 47.293 32.754 48 32.424 48C32.094 48 31.002 47.255 29.996 46.345C28.471 44.965 28.167 43.126 28.167 35.279C28.167 30.103 28.633 24.998 29.202 23.934C30.369 21.754 33.165 21.398 34.967 23.2ZM12.967 24.2C13.735 24.968 14.167 28.884 14.167 35.078C14.167 42.296 13.8 45.06 12.722 45.954C11.927 46.614 10.24 47.006 8.972 46.827C6.755 46.513 6.656 46.101 6.38 36.068C6.222 30.33 6.321 25.042 6.599 24.318C7.231 22.671 11.361 22.594 12.967 24.2ZM146.167 34.835C146.167 44.831 145.437 47 142.074 47C141.143 47 140.108 46.288 139.774 45.418C139.44 44.548 139.167 39.621 139.167 34.468C139.167 26.639 139.45 24.941 140.891 24.134C141.985 23.522 143.265 23.517 144.391 24.12C145.906 24.931 146.167 26.505 146.167 34.835ZM100.953 34.854C101.14 41.63 100.839 45.69 100.081 46.604C99.443 47.372 98.559 48 98.116 48C97.673 48 96.603 47.293 95.738 46.429C94.537 45.227 94.167 42.685 94.167 35.629C94.167 29.625 94.6 25.967 95.405 25.162C96.086 24.481 97.549 24.053 98.655 24.212C100.501 24.476 100.691 25.354 100.953 34.854Z" fill="white"/>
</svg>
