<svg width="213" height="128" viewBox="0 0 213 128" fill="none" xmlns="http://www.w3.org/2000/svg">
<path fill-rule="evenodd" clip-rule="evenodd" d="M0 64V128L8.21837 127.776C12.7384 127.652 18.3252 127.551 20.6333 127.551H24.8299V99.6599V71.7687H46.0578H67.2854L67.4371 83.2483C67.5803 94.1078 67.635 94.9207 68.4551 98.2993C68.9316 100.264 69.6619 102.866 70.0779 104.082C71.165 107.258 73.8728 112.396 75.8238 114.983C79.3724 119.69 85.7643 124.896 90.6429 127.054L92.5364 127.891H123.819H155.102L155.145 111.48C155.168 102.453 155.151 79.0116 155.107 59.3867L155.027 23.7054L162.632 23.915C173.283 24.2082 176.458 25.0408 179.496 28.3371C181.35 30.3486 182.19 32.0626 182.669 34.8136C183.361 38.784 182.321 42.7769 179.917 45.385C177.113 48.4272 172.2 49.6599 162.881 49.6599H157.143V61.7799V73.9003L171.465 100.896L185.788 127.891H199.223C211.877 127.891 212.645 127.856 212.434 127.296C212.18 126.621 184.706 74.7663 183.418 72.5286L182.582 71.0779L183.644 70.7075C184.229 70.5037 185.951 69.7357 187.471 69.0003C197.599 64.1024 203.598 56.5782 205.874 45.9184C206.777 41.6874 206.845 33.1888 206.009 28.8874C203.555 16.251 195.345 6.3034 184.531 2.86531C181.143 1.78844 175.635 0.843537 169.965 0.366326C167.112 0.126531 148.656 0 116.478 0H67.3469V23.9796V47.9592H46.0884H24.8299V23.9796V0H12.415H0V64ZM117.027 21.5014C119.763 22.7769 121.579 24.5303 122.86 27.134C123.862 29.1714 123.98 29.715 123.979 32.3259C123.978 35.0095 123.877 35.4476 122.703 37.8231C119.83 43.6357 114.801 46.4935 105.357 47.6803L102.041 48.0969V58.5476V68.9986L103.997 69.1932C112.305 70.0197 116.169 70.9398 120.226 73.0575C123.385 74.7068 128.026 79.285 129.435 82.1429C130.432 84.1629 130.442 84.2429 130.442 89.9837V95.7837L129.252 98.131C125.375 105.773 116.262 109.883 107.369 107.999C99.3527 106.3 94.3888 100.989 92.1707 91.7374C91.5327 89.0755 91.5014 87.6122 91.499 60.2891L91.4966 31.6327H93.8238H96.1507L96.549 30.3041C97.4429 27.3207 100.768 23.8092 104.505 21.902C106.889 20.6857 108.316 20.4231 111.924 20.5364C114.549 20.6187 115.532 20.8048 117.027 21.5014Z" fill="white"/>
</svg>
