<svg width="140" height="128" viewBox="0 0 140 128" fill="none" xmlns="http://www.w3.org/2000/svg">
<path fill-rule="evenodd" clip-rule="evenodd" d="M87.0814 4.66019V9.32039H107.897H128.712V63.3786V117.437H107.897H87.0814V122.097V126.757H113.178H139.276V63.3786V0H113.178H87.0814V4.66019ZM0.0469563 10.7184C-0.0133155 23.7657 -0.0164224 103.436 0.0426068 116.971L0.0910728 128H26.1882H52.2852V123.34V118.68H31.7804H11.2755V64.6214V10.5631H31.7804H52.2852V5.90291V1.24272H26.1882H0.0910728L0.0469563 10.7184ZM18.1105 37.2816V41.6311H22.46H26.8095V59.3398V77.0485H22.46H18.1105V81.3981V85.7476H33.0231H47.9357V81.3981V77.0485H43.5862H39.2367V59.3398V41.6311H43.5862H47.9357V37.2816V32.932H33.0231H18.1105V37.2816ZM57.2561 37.2126V41.5745L61.4503 41.7578L65.6445 41.9417L65.8098 59.4951L65.9744 77.0485H61.6156H57.2561V81.3981V85.7476H71.8581H86.46V81.3981V77.0485H82.1515H77.843L77.9573 71.301L78.0717 65.5534L91.4309 65.221C106.186 64.8537 107.038 64.6506 110.535 60.6677C111.575 59.4833 112.799 57.4416 113.254 56.1311C113.71 54.82 114.089 51.6505 114.097 49.0874C114.119 41.3894 111.66 36.8988 106.033 34.3637C103.81 33.3626 101.1 33.2235 80.4018 33.0476L57.2561 32.8506V37.2126ZM49.9881 38.9903L49.9309 44.4272L45.8262 44.6111L41.7221 44.7944V59.3684V73.9417H43.8969H46.0717V62.1359V50.3301H50.4212H54.7707L54.7539 44.2718C54.7371 38.2217 54.734 38.2105 52.5705 35.8835C51.3793 34.6023 50.3236 33.5534 50.2248 33.5534C50.1266 33.5534 50.0198 36.0003 49.9881 38.9903ZM115.173 41.0544C116.159 43.5386 116.523 45.8346 116.554 49.7715C116.593 54.6951 116.424 55.4513 114.421 59.3783C112.671 62.8089 111.65 64.0099 109.191 65.5292L106.135 67.4175L93.1906 67.6176L80.2464 67.8183V70.9232V74.0287L93.761 73.8299C105.979 73.6503 107.544 73.5049 110.072 72.3175C113.582 70.6678 117.089 67.1478 118.915 63.4408C120.121 60.9951 120.324 59.5958 120.324 53.7476C120.324 47.8285 120.138 46.5796 118.935 44.4272C118.171 43.0602 116.712 40.983 115.691 39.8117L113.835 37.6811L115.173 41.0544ZM95.4082 42.4972C98.2509 43.6853 99.5104 45.7084 99.4992 49.0706C99.4787 55.3867 97.0399 56.6717 85.5783 56.4064L78.0717 56.233L77.9486 48.932L77.8262 41.6311H85.5808C90.8064 41.6311 94.0108 41.9138 95.4082 42.4972ZM20.0056 46.1359C20.8699 46.9045 22.1953 48.0665 22.9509 48.7177L24.3241 49.9014V47.3196V44.7379H21.3788H18.4336L20.0056 46.1359ZM60.3629 47.534C61.8722 49.0718 63.1889 50.3301 63.2883 50.3301C63.3883 50.3301 63.4697 49.0718 63.4697 47.534V44.7379H60.5444H57.619L60.3629 47.534ZM80.2464 49.0874V53.4369H82.7319C84.8028 53.4369 85.2173 53.23 85.2173 52.1942C85.2173 51.0384 85.6317 50.9515 91.1202 50.9515H97.0231V48.8121C97.0231 45.3748 95.4964 44.7379 87.2535 44.7379H80.2464V49.0874ZM49.852 82.757C49.7849 85.5549 49.5892 88.0715 49.4171 88.3492C49.2456 88.627 42.2832 88.8544 33.9452 88.8544H18.7853L21.7746 91.6505L24.7634 94.4466H39.7673H54.7707V87.6856V80.924L52.6376 79.2972C51.4638 78.4019 50.3851 77.6699 50.2397 77.6699C50.0937 77.6699 49.9197 79.959 49.852 82.757ZM88.9454 82.9515V88.233L76.0522 88.3349C68.9613 88.3908 61.971 88.3765 60.5183 88.3026C59.0655 88.228 57.8775 88.4405 57.8775 88.7736C57.8775 89.1066 59.2053 90.5171 60.8289 91.909L63.7804 94.4385L78.693 94.4429L93.6056 94.4466L93.4957 87.8484C93.3906 81.5609 93.3043 81.1651 91.6701 79.4594C90.7275 78.4752 89.7284 77.6699 89.4506 77.6699C89.1729 77.6699 88.9454 80.0466 88.9454 82.9515Z" fill="white"/>
</svg>
