<svg width="627" height="128" viewBox="0 0 627 128" fill="none" xmlns="http://www.w3.org/2000/svg">
<path fill-rule="evenodd" clip-rule="evenodd" d="M56.8418 0.138401C56.3489 0.32745 53.0018 1.15587 49.4037 1.97895C45.8057 2.80203 40.9799 4.30461 38.6795 5.31674C27.077 10.4237 17.3779 18.4298 10.9471 28.2077C6.05767 35.6413 2.9731 42.4158 1.26234 49.4757C0.0301328 54.5613 -0.205554 58.3494 0.152011 67.3105C0.514058 76.3885 1.04637 79.8698 2.78491 84.5345C10.1656 104.335 24.5498 118.742 43.2346 125.048C49.9889 127.327 60.0904 128.424 69.0349 127.849C80.5702 127.108 91.3465 123.628 99.4083 118.043C108.942 111.437 118.167 100.891 122.521 91.6185C126.187 83.8131 128.087 74.4311 128.071 64.2135C128.048 50.2079 124.923 39.4329 117.851 28.9853C106.032 11.5206 87.2089 1.09346 65.8034 0.149994C61.3674 -0.0452971 57.3347 -0.0506479 56.8418 0.138401ZM234.728 2.44801C224.693 8.34687 218.97 11.6035 214.204 14.1236C211.048 15.7929 207.345 18.2648 205.975 19.6176C204.606 20.9704 202.177 24.3813 200.577 27.1974C198.976 30.0135 192.852 40.5441 186.966 50.5984C181.08 60.6528 175.46 70.2836 174.478 72.0002C167.074 84.9358 153.167 108.687 147.171 118.635C145.458 121.477 144.281 124.386 144.557 125.1C144.975 126.185 148.62 126.396 166.933 126.396H188.81L196.243 113.689C200.331 106.7 207.12 95.1632 211.33 88.0515C215.54 80.9399 219.626 73.9174 220.41 72.4461C221.194 70.9747 224.085 65.9587 226.833 61.2993C229.582 56.64 233.549 49.9091 235.648 46.3421L239.465 39.8565L239.908 23.0365C240.152 13.7847 240.087 5.16692 239.763 3.8846C239.159 1.48938 237.274 0.951665 234.728 2.44801ZM376.343 14.0148C372.651 17.6887 373.197 22.3525 377.661 25.2623C380.071 26.8344 384.467 26.344 386.16 24.3144C386.711 23.6536 387.392 21.7025 387.672 19.9787C388.092 17.407 387.769 16.4314 385.877 14.548C383.067 11.7515 378.854 11.5161 376.343 14.0148ZM537.972 13.8338C535.567 15.7867 534.828 18.8025 535.963 22.0395C537.618 26.7658 545.034 27.6967 547.955 23.5457C549.949 20.7135 549.585 16.9361 547.079 14.4428C544.491 11.8675 540.704 11.6151 537.972 13.8338ZM356.605 39.8975V65.758H362.43H368.255V39.8975V14.0371H362.43H356.605V39.8975ZM433.026 18.7339C429.424 27.1697 429.227 26.5214 435.39 26.5214C440.525 26.5214 440.952 26.3618 441.952 24.0691C442.539 22.7199 443.943 20.1196 445.069 18.2907C446.196 16.4608 447.117 14.7558 447.117 14.5008C447.117 14.2457 444.395 14.0442 441.068 14.0522L435.019 14.0674L433.026 18.7339ZM278.85 40.0572L279.088 65.3121L285.137 65.5761L291.186 65.8392V56.9788V48.1185L297.683 47.7859C309.949 47.1581 315.339 42.0065 315.368 30.8892C315.38 26.2352 314.959 24.3839 313.366 22.0538C312.257 20.4326 310.212 18.2666 308.823 17.2402C306.563 15.5718 304.835 15.3444 292.454 15.0884L278.612 14.8031L278.85 40.0572ZM395.861 22.7315C395.617 26.5223 395.284 27.1082 392.695 28.3049C389.977 29.5614 389.801 29.927 389.783 34.3242C389.763 38.9354 389.803 39.0058 392.452 39.0058H395.14V47.1955C395.14 53.633 395.533 56.195 396.979 59.1663C398.496 62.2847 399.545 63.1934 402.964 64.3526C405.244 65.1258 409.054 65.758 411.43 65.758H415.752V59.9617V54.1654H411.719H407.686V46.5856V39.0058H411.719H415.752V34.1012V29.1967H411.719H407.686V23.8462V18.4958H401.911H396.135L395.861 22.7315ZM301.761 26.6998C303.314 28.2452 303.082 32.7993 301.353 34.6996C300.305 35.8526 298.596 36.3306 295.528 36.3306H291.186V30.9801V25.6297H295.936C298.548 25.6297 301.169 26.1112 301.761 26.6998ZM327.877 29.1503C322.079 30.9008 318.719 33.8292 316.218 39.3081C313.312 45.6787 314.225 53.3066 318.596 59.1734C323.09 65.2034 334.211 67.5549 341.819 64.0824C347.053 61.6935 350.176 58.0989 351.777 52.6164C353.36 47.1955 352.964 43.2148 350.288 37.6682C346.818 30.4763 336.488 26.55 327.877 29.1503ZM430.538 29.0807C429.06 29.4651 426.959 30.2551 425.87 30.8375C422.563 32.6049 419.343 37.6361 418.281 42.6896C417.451 46.6507 417.533 48.3521 418.762 52.5433C421.233 60.9756 427.653 65.758 436.501 65.758C444.168 65.758 450.504 62.0386 453.02 56.063C453.716 54.4088 454.286 52.9045 454.286 52.719C454.286 52.5335 451.305 52.3819 447.661 52.3819C442.599 52.3819 440.914 52.6976 440.52 53.7195C439.922 55.2711 435.315 55.5164 432.719 54.1342C431.766 53.6259 430.986 52.6227 430.986 51.9048C430.986 50.8249 433.003 50.5984 442.636 50.5984H454.286V45.9756C454.286 39.9725 451.481 34.194 447.198 31.3734C444.963 29.902 442.2 29.0763 438.569 28.7963C435.63 28.5689 432.017 28.6973 430.538 29.0807ZM467.886 29.2671C466.248 29.7656 463.147 31.9245 460.997 34.0656C456.588 38.4511 455.656 41.5116 456.248 49.6541C456.723 56.1888 459.436 60.404 465.161 63.5073C472.342 67.3988 482.822 66.0969 487.56 60.725C489.29 58.7641 491.925 53.7543 491.925 52.4265C491.925 51.8585 489.364 51.4902 485.42 51.4902C479.884 51.4902 478.747 51.7559 477.794 53.2737C476.504 55.33 473.296 55.5993 470.897 53.8533C469.752 53.0195 469.124 51.1674 468.856 47.834C468.533 43.823 468.787 42.6833 470.374 41.0122C472.923 38.3281 476.266 38.4244 478.117 41.2352C479.448 43.2558 480.163 43.4645 485.755 43.4645C491.634 43.4645 491.925 43.3655 491.925 41.3689C491.925 38.5198 487.224 32.2651 483.732 30.4683C480.239 28.6714 471.915 28.0401 467.886 29.2671ZM512.088 28.8997C511.102 29.1646 509.59 30.0037 508.728 30.7643C507.305 32.019 507.159 32.011 507.159 30.6725C507.159 29.4508 506.157 29.1967 501.334 29.1967H495.509V47.4773V65.758H501.334H507.159V55.6359C507.159 50.0687 507.603 44.2483 508.145 42.7003C509.141 39.8592 511.665 38.5367 514.908 39.1574C517.879 39.7272 518.782 43.3789 518.796 54.8752L518.809 65.8392L524.858 65.5761L530.907 65.3121L530.893 51.9298C530.881 40.2096 530.658 38.172 529.101 35.5262C526.48 31.072 523.158 28.9862 518.204 28.6839C515.826 28.5386 513.074 28.6358 512.088 28.8997ZM564.029 29.2011C562.531 29.6639 559.61 31.4858 557.538 33.2505C554.678 35.6867 553.43 37.6316 552.348 41.3324C548.581 54.2251 557.044 65.758 570.271 65.758C577.069 65.758 581.77 63.2986 585.171 57.9624C586.624 55.6822 587.813 53.2933 587.813 52.653C587.813 51.8041 586.059 51.4902 581.308 51.4902C575.773 51.4902 574.635 51.7559 573.683 53.2737C571.45 56.8308 566.128 55.0224 564.516 50.1597C563.73 47.7903 563.73 46.2726 564.516 43.9032C566.228 38.7392 571.404 37.2839 574.005 41.2352C575.336 43.2558 576.051 43.4645 581.643 43.4645C587.453 43.4645 587.811 43.3477 587.784 41.4581C587.742 38.6571 583.421 32.7297 579.951 30.7135C576.616 28.7749 568.046 27.9607 564.029 29.2011ZM601.04 29.5739C595.509 31.5384 593.477 33.3415 590.91 38.5608C588.861 42.7279 588.545 44.3019 588.959 48.2888C589.485 53.3664 591.942 59.0263 594.663 61.4331C599.609 65.8088 609.727 67.0252 616.042 64.004C620.952 61.6551 622.233 60.4941 624.443 56.3921C625.808 53.8577 626.348 51.2619 626.348 47.2392C626.348 44.1503 625.803 40.3265 625.137 38.7401C624.471 37.1546 622.466 34.581 620.681 33.0213C615.47 28.469 607.895 27.1394 601.04 29.5739ZM374.734 47.2544L374.977 65.3121L381.026 65.5761L387.075 65.8392V47.5184V29.1967H380.783H374.492L374.734 47.2544ZM536.042 47.2544L536.284 65.3121L542.333 65.5761L548.382 65.8392V47.5184V29.1967H542.091H535.8L536.042 47.2544ZM439.748 39.5025C440.844 40.2658 441.74 41.269 441.74 41.7319C441.74 42.1947 439.32 42.5728 436.363 42.5728C433.406 42.5728 430.986 42.2 430.986 41.7443C430.986 40.2275 433.777 38.1141 435.78 38.1141C436.867 38.1141 438.653 38.7392 439.748 39.5025ZM337.662 40.8651C339.32 42.4015 339.621 43.5073 339.398 47.2401C339.182 50.8802 338.683 52.0867 336.825 53.4627C333.512 55.9141 329.907 54.8271 328.248 50.8766C325.847 45.1561 328.714 39.0058 333.784 39.0058C334.814 39.0058 336.558 39.8423 337.662 40.8651ZM611.44 40.8544C613.412 42.3971 613.802 43.4164 613.802 47.0315C613.802 50.6466 613.412 51.6658 611.44 53.2086C608.479 55.5271 606.235 55.5529 603.966 53.2959C601.797 51.137 600.874 47.7752 601.629 44.7798C602.355 41.9013 605.253 39.0058 607.408 39.0058C608.327 39.0058 610.142 39.8378 611.44 40.8544ZM420.388 75.8472C417.717 78.6775 417.827 83.064 420.64 85.8623C421.85 87.0662 423.703 88.0515 424.758 88.0515C425.814 88.0515 427.848 87.2213 429.28 86.2074C431.39 84.7129 431.882 83.7061 431.882 80.8917C431.882 78.4689 431.29 76.8709 429.921 75.6019C427.25 73.1256 422.852 73.2388 420.388 75.8472ZM301.94 83.5474V92.4193L298.832 91.1271C295.165 89.6023 289.625 89.4542 286.092 90.7865C279.775 93.1683 276.002 99.7146 275.971 108.348C275.947 115.236 278.459 121.029 282.948 124.436C285.665 126.498 286.979 126.842 292.142 126.842C296.81 126.842 298.592 126.46 300.054 125.143C301.719 123.644 301.94 123.618 301.94 124.921C301.94 126.142 302.942 126.396 307.765 126.396H313.59V100.536V74.6754H307.765H301.94V83.5474ZM367.787 77.9802C368.144 78.8604 369.199 81.7871 370.13 84.4846C371.062 87.1821 374.766 97.6154 378.362 107.67L384.901 125.95L392.504 126.206L400.106 126.46L404.861 112.829C407.476 105.333 411.4 94.2679 413.579 88.2415C415.76 82.2151 417.544 77.0813 417.544 76.8343C417.544 76.5864 414.447 76.5008 410.661 76.6444L403.78 76.9048L398.358 93.179C395.376 102.129 392.726 109.45 392.47 109.445C392.213 109.441 389.584 102.118 386.627 93.171L381.25 76.9048L374.193 76.6426C367.709 76.4009 367.19 76.5097 367.787 77.9802ZM328.852 90.8275C321.114 93.8996 317.649 100.229 318.218 110.248C318.522 115.601 318.963 116.969 321.329 119.881C325.678 125.235 329.167 126.842 336.442 126.842C343.936 126.842 347.658 125.037 351.562 119.51C355.245 114.295 354.435 113.02 347.44 113.02C342.772 113.02 341.609 113.327 340.683 114.804C339.918 116.023 338.593 116.587 336.498 116.587C333.589 116.587 330.617 114.753 330.617 112.957C330.617 112.489 335.734 112.129 342.368 112.129H354.12L353.772 106.011C353.485 100.966 352.975 99.3071 350.862 96.5507C349.453 94.7119 346.64 92.4576 344.611 91.5409C340.598 89.7271 332.54 89.3624 328.852 90.8275ZM419.336 108.116V126.396H425.161H430.986V108.116V89.835H425.161H419.336V108.116ZM441.532 91.6711C435.828 94.6674 433.802 101.468 437.004 106.863C438.501 109.384 440.501 110.385 449.75 113.241C453.959 114.542 455.375 116.227 453.015 117.129C450.735 117.999 447.285 116.734 446.668 114.802C446.176 113.259 445.31 113.02 440.218 113.02H434.336L434.87 116.364C435.817 122.288 443.26 127.278 451.15 127.278C455.304 127.278 460.316 125.628 462.914 123.405C464.721 121.857 465.356 120.359 465.641 116.98C465.861 114.372 465.539 111.711 464.854 110.459C463.42 107.841 459.012 105.455 452.27 103.65C449.191 102.825 447.117 101.78 447.117 101.052C447.117 98.2227 452.946 98.6302 453.869 101.524C454.325 102.953 455.306 103.211 460.283 103.211H466.16L465.587 100.359C464.748 96.186 462.776 93.6543 458.789 91.6301C454.102 89.25 446.103 89.2688 441.532 91.6711ZM476.299 92.3078C470.412 95.5448 467.729 100.478 467.729 108.067C467.729 111.965 468.308 114.674 469.745 117.507C473.55 125.003 482.951 128.807 491.802 126.431C496.741 125.105 502.49 119.822 503.241 115.918L503.799 113.02H497.63C492.43 113.02 491.284 113.301 490.34 114.804C488.885 117.123 483.81 117.213 481.758 114.956C480.942 114.059 480.275 113.068 480.275 112.753C480.275 112.438 485.618 112.068 492.149 111.931L504.023 111.683L503.904 107.052C503.833 104.337 502.976 100.761 501.833 98.41C500.298 95.255 498.9 93.9129 495.279 92.117C488.893 88.9504 482.287 89.0173 476.299 92.3078ZM507.165 102.055C507.167 108.822 507.567 115.784 508.054 117.525C508.54 119.268 510.179 121.956 511.695 123.499C515.201 127.067 520.679 128.061 526.436 126.175C528.649 125.45 530.459 125.203 530.459 125.627C530.459 126.05 533.29 126.396 536.751 126.396H543.042L542.8 108.339L542.557 90.2809H536.732H530.907L530.676 101.874C530.466 112.41 530.273 113.608 528.56 115.027C527.524 115.885 525.762 116.587 524.645 116.587C520.916 116.587 520.183 114.416 519.706 101.964L519.257 90.2809L513.208 90.0169L507.159 89.7539L507.165 102.055ZM340.8 101.608C341.326 102.442 341.514 103.365 341.219 103.66C340.924 103.953 338.115 104.073 334.978 103.925L329.273 103.657L331.34 101.6C332.886 100.061 334.219 99.6112 336.627 99.8163C338.446 99.9714 340.26 100.75 340.8 101.608ZM489.953 100.714C490.545 101.303 491.029 102.306 491.029 102.944C491.029 103.766 489.466 104.103 485.652 104.103C482.694 104.103 480.275 103.73 480.275 103.274C480.275 102.82 480.908 101.816 481.683 101.045C483.346 99.3909 488.419 99.1876 489.953 100.714ZM299.962 103C302.977 107.027 302.256 112.054 298.239 115.029C293.833 118.294 288.498 114.452 288.498 108.012C288.498 104.956 288.967 103.865 290.948 102.314C292.742 100.91 294.123 100.538 296.101 100.924C297.587 101.215 299.325 102.148 299.962 103Z" fill="white"/>
</svg>
