<svg width="424" height="128" viewBox="0 0 424 128" fill="none" xmlns="http://www.w3.org/2000/svg">
<path fill-rule="evenodd" clip-rule="evenodd" d="M41.4735 3.36805C35.5186 5.55184 25.5686 12.4173 19.3605 18.6254C-6.45795 44.4438 -6.45308 83.2115 19.3726 109.037C59.735 149.4 127.143 121.12 127.143 63.8252C127.143 39.0245 115.735 19.4044 94.6367 7.92066C78.9826 -0.59783 57.3394 -2.45296 41.4735 3.36805ZM91.0628 17.3302C96.7085 20.6387 104.54 27.9789 108.463 33.6392C114.929 42.9709 115.596 45.7925 115.596 63.8252C115.596 81.8579 114.929 84.6796 108.463 94.0112C85.2759 127.469 35.1485 124.73 16.8236 89.0033C7.33621 70.5032 8.50236 50.3232 20.0348 33.3763C35.8862 10.085 66.7855 3.10269 91.0628 17.3302ZM144.908 41.3056C143.379 48.21 136.289 87.1117 136.289 88.5943C136.289 89.2005 139.849 89.3539 144.202 88.9327C151.413 88.2389 152.233 87.3089 153.465 78.4325L154.814 68.6943L159.206 79.0412C162.658 87.175 164.866 89.388 169.521 89.388C174.169 89.388 176.394 87.1653 179.868 79.0412L184.291 68.6943L186.069 79.0412C187.805 89.1592 188.055 89.388 197.414 89.388C206.076 89.388 206.869 88.867 205.771 83.9103C204.333 77.4149 197.153 38.1456 197.153 36.7774C197.153 36.2539 193.806 35.8279 189.716 35.8279C183.05 35.8279 181.73 37.1426 177.032 48.4462L171.79 61.062L166.259 48.4462C161.365 37.2765 159.89 35.8279 153.426 35.8279C147.832 35.8279 145.835 37.1109 144.908 41.3056ZM219.924 40.5168C200.654 52.266 204.878 83.2359 226.636 89.7556C248.388 96.2729 266.699 81.9967 264.476 60.2513C262.302 38.9685 239.227 28.7482 219.924 40.5168ZM271.792 59.5648C266.521 89.9772 266.46 89.388 274.845 89.388C281.284 89.388 282.097 88.4385 283.709 79.0412L285.486 68.6943L289.91 79.0412C293.406 87.2164 295.594 89.388 300.332 89.388C305.028 89.388 306.942 87.5377 309.142 80.8671C312.665 70.1964 315.906 69.9408 316.901 80.2584C317.598 87.4817 318.457 88.2365 326.793 88.9254C337.619 89.8214 337.541 90.3083 331.555 58.9561C327.406 37.2302 327.307 37.0379 319.767 36.3051C312.634 35.6088 311.886 36.327 307.735 47.8692C305.303 54.6372 302.65 60.1734 301.839 60.1734C301.028 60.1734 298.396 54.6957 295.989 48.0007C291.967 36.8139 290.976 35.8279 283.76 35.8279H275.906L271.792 59.5648ZM340.792 62.6079V89.388H359.983C378.474 89.388 379.219 89.1664 380.329 83.36C381.816 75.5792 380.818 74.7807 369.6 74.7807C358.259 74.7807 357.123 70.5227 368.18 69.4563C374.793 68.8185 376.093 67.6962 376.093 62.6079C376.093 57.5197 374.793 56.3974 368.18 55.7596C357.558 54.7346 358.05 50.4352 368.789 50.4352C376.633 50.4352 377.31 49.8558 377.31 43.1316V35.8279H359.051H340.792V62.6079ZM387.048 62.4619V89.388H401.517C413.709 89.388 416.584 88.5359 419.776 83.976C425.256 76.1562 424.564 74.7807 415.148 74.7807H406.729L406.018 55.9129L405.307 37.0452L396.178 36.2905L387.048 35.5333V62.4619ZM244.247 58.1576C247.87 63.9397 242.56 74.7807 236.106 74.7807C229.238 74.7807 224.939 64.9597 228.717 57.8995C232.013 51.7377 240.308 51.8765 244.247 58.1576ZM86.8803 65.8143C83.9271 68.9183 77.3879 76.5409 72.3484 82.7539C57.931 100.524 43.2702 101.41 24.826 85.6217C15.1 77.298 14.6593 77.1544 16.9137 83.0825C21.3324 94.7099 27.3677 101.726 38.6104 108.314C60.4581 121.117 89.4317 114.863 104.475 94.0989C112.823 82.5737 116.645 65.5416 111.601 62.345C105.079 58.2136 92.4213 59.9908 86.8803 65.8143Z" fill="white"/>
</svg>
