<svg width="259" height="128" viewBox="0 0 259 128" fill="none" xmlns="http://www.w3.org/2000/svg">
<path fill-rule="evenodd" clip-rule="evenodd" d="M56.4666 0.492872C55.1471 1.81147 56.1153 6.27729 58.5395 10.0554C61.4481 14.5879 66.906 19.0142 68.7255 18.3166C70.3691 17.6857 70.1914 15.0312 68.2427 11.1034C66.3836 7.35652 64.0491 4.53752 60.5351 1.79502C58.0179 -0.170131 57.3443 -0.385649 56.4666 0.492872ZM45.2243 12.283C43.0576 14.4497 43.0338 20.3287 45.1758 24.5271C47.0562 28.2131 51.8115 32.6115 54.6988 33.3362C59.6475 34.5783 62.5274 31.8638 62.4755 26.0078C62.4196 19.7216 54.6174 10.6378 49.2731 10.6378C47.9512 10.6378 46.1291 11.3781 45.2243 12.283ZM72.9182 20.2349C71.8941 21.2582 72.3638 25.4114 73.9851 29.6782C75.4979 33.6595 79.2456 38.6057 80.7492 38.6057C81.8515 38.6057 81.506 33.3041 80.1521 29.4552C78.7512 25.4715 75.191 19.6862 74.1398 19.6862C73.7696 19.6862 73.2193 19.933 72.9182 20.2349ZM29.573 28.4912C26.6832 30.4827 25.6336 31.9913 24.6144 35.6197C23.2884 40.3422 24.9188 46.1726 28.6657 50.1005C31.9231 53.5158 37.2279 55.5912 40.5619 54.7538C44.0102 53.8885 47.5917 50.2576 48.5665 46.6407C51.0507 37.4129 43.807 27.0895 34.8474 27.0895C33.0648 27.0895 30.6909 27.7204 29.573 28.4912ZM156.231 29.5992C155.068 30.7623 154.71 31.8481 155.08 33.0952C155.714 35.2306 157.709 36.9605 159.538 36.9605C161.749 36.9605 164.499 34.4977 164.499 32.5169C164.499 30.2079 162.109 27.9121 159.704 27.9121C158.722 27.9121 157.159 28.6713 156.231 29.5992ZM64.3963 35.0307C61.2589 39.819 63.8534 51.4158 68.7856 54.6477C73.5566 57.7735 77.0665 53.5487 76.2522 45.661C75.205 35.5169 68.1958 29.2315 64.3963 35.0307ZM84.3694 40.9558C83.2063 42.8379 85.4758 54.3993 87.3801 56.2912C87.9353 56.8432 88.0579 55.1956 87.7519 51.2908C87.2411 44.7742 85.4298 39.2399 84.3694 40.9558ZM122.008 41.8886C116.82 42.9777 111.971 45.7761 110.18 48.7152C108.701 51.1402 108.569 52.9499 108.567 70.8921L108.563 90.4285H113.048H117.534L117.778 85.2874C118.001 80.6134 118.173 80.1832 119.668 80.5575C120.573 80.7837 124.645 80.9581 128.717 80.9449C134.702 80.9252 136.77 80.5772 139.512 79.1295C141.379 78.1448 143.877 76.1838 145.065 74.7723C147.148 72.2963 147.225 71.8356 147.221 61.7804C147.219 52.7681 146.993 50.9864 145.555 48.6272C142.409 43.4663 130.596 40.0863 122.008 41.8886ZM155.177 41.6221C154.875 41.9232 154.628 50.9922 154.628 61.7754V81.3801H159.564H164.499V61.2268V41.0734H160.112C157.699 41.0734 155.478 41.3202 155.177 41.6221ZM187.531 41.6007C179.546 43.0962 174.632 46.2944 172.778 51.2036C172.296 52.4769 171.902 57.1188 171.902 61.5171C171.902 68.1825 172.211 70.123 173.753 73.1633C175.152 75.9198 176.603 77.319 179.695 78.8901C183.22 80.6817 184.869 80.9688 191.622 80.9688C198.336 80.9688 200.048 80.6743 203.571 78.9123C207.743 76.8254 211.386 72.5513 211.386 69.7421C211.386 68.4285 210.707 68.2187 206.451 68.2187C201.821 68.2187 201.515 68.3388 201.515 70.1477C201.515 73.3648 198.723 75.1013 192.96 75.4682C189.266 75.7034 187.05 75.4155 185.204 74.4605C182.402 73.0111 181.503 70.8296 181.918 66.4814L182.185 63.6945L196.872 63.4691L211.559 63.2446L211.263 56.733C210.995 50.8334 210.736 49.9754 208.503 47.5974C207.148 46.1537 204.559 44.307 202.749 43.4927C199.331 41.9561 191.101 40.9328 187.531 41.6007ZM232.694 41.8656C226.474 42.9851 222.176 45.9053 219.715 50.6845C219.108 51.8625 218.79 59.014 218.79 71.4548V90.4285H223.725H228.661V85.1483V79.8673L231.744 80.7187C233.44 81.1868 237.499 81.399 240.765 81.1892C247.551 80.7533 253.364 78.2353 256.133 74.5304C257.562 72.6179 257.912 70.7852 258.147 63.9816C258.304 59.4533 258.193 54.4742 257.901 52.917C257.212 49.2433 253.325 44.8664 249.334 43.2697C245.282 41.6484 237.534 40.9945 232.694 41.8656ZM135.222 48.763C137.34 50.1507 137.354 50.2329 137.354 61.1182C137.354 71.0994 137.204 72.2115 135.678 73.5935C133.528 75.5389 125.198 76.2381 121.654 74.7698C120.26 74.1923 118.78 72.8285 118.365 71.7386C117.316 68.9788 117.419 52.8413 118.499 50.8235C118.987 49.9113 120.561 48.6346 121.995 47.9848C125.305 46.4869 132.384 46.9031 135.222 48.763ZM199.383 48.763C201.248 49.9845 201.515 50.7248 201.515 54.665V59.1703H191.644H181.773V55.1849C181.773 50.9617 182.849 49.3363 186.726 47.7051C189.598 46.4959 196.848 47.1013 199.383 48.763ZM242.485 47.3341C243.867 47.6105 245.765 48.5507 246.701 49.4227C248.253 50.8688 248.403 51.9488 248.403 61.6825V72.3555L245.729 73.9859C243.92 75.0889 241.594 75.6162 238.532 75.6162C235.469 75.6162 233.144 75.0889 231.334 73.9859L228.661 72.3555V61.6422C228.661 51.9093 228.813 50.7972 230.324 49.4967C233.098 47.1104 237.474 46.3322 242.485 47.3341ZM8.61928 50.4155C3.64758 52.7163 -0.0343074 58.8166 0.000241121 64.6964C0.0101121 66.4074 0.704373 69.3169 1.54176 71.1628C5.26478 79.3598 15.26 82.085 22.9446 76.9998C27.06 74.2762 29.1905 69.8359 29.1329 64.1058C29.0778 58.6809 27.3734 55.133 23.346 52.0615C21.093 50.3431 19.2759 49.7402 15.7363 49.5387C12.9543 49.3799 10.0958 49.732 8.61928 50.4155ZM50.9232 53.2255C47.451 56.3274 45.7672 62.7222 46.9591 68.2804C47.4708 70.6651 48.7631 73.3048 50.1425 74.7813C51.9711 76.7391 53.1581 77.2672 55.7254 77.2672C61.778 77.2672 65.8062 72.0816 65.7708 64.3378C65.7363 56.7231 61.3305 50.9444 55.5601 50.9444C54.4142 50.9444 52.3273 51.971 50.9232 53.2255ZM78.4131 56.0856C75.7142 61.2333 76.99 73.4948 80.3371 74.5839C80.8743 74.7591 81.9848 73.8773 82.8049 72.6245C83.9146 70.9308 84.2971 68.7485 84.2971 64.1058C84.2971 59.5158 83.9113 57.2751 82.8386 55.6381C82.0366 54.4141 81.0281 53.4122 80.5979 53.4122C80.1669 53.4122 79.1847 54.6156 78.4131 56.0856ZM69.8747 73.4249C67.0417 74.8372 64.3922 79.1517 63.2652 84.1892C62.5101 87.5618 62.5142 89.2177 63.2833 91.5472C63.8287 93.2014 64.9828 94.933 65.8473 95.3953C69.7965 97.5085 75.4288 90.6646 76.2094 82.8048C76.93 75.5471 74.0806 71.3281 69.8747 73.4249ZM85.8871 75.2156C84.3193 78.9691 83.3478 87.9608 84.5109 87.9608C84.9831 87.9608 85.7942 86.7573 86.3132 85.2874C87.4525 82.0579 88.4667 72.3316 87.6647 72.3316C87.3497 72.3316 86.5501 73.6297 85.8871 75.2156ZM32.4742 75.6179C24.4713 79.6066 21.4574 91.4321 26.8198 97.8054C29.5557 101.056 33.5115 102.283 37.6598 101.166C41.9545 100.009 44.8854 97.5949 47.0447 93.435C49.2221 89.2407 49.3899 82.8648 47.4214 79.1319C44.7488 74.064 38.5276 72.6015 32.4742 75.6179ZM77.9187 91.868C76.7301 93.1126 75.0027 95.7959 74.0814 97.8318C72.1195 102.166 71.7699 108.525 73.4941 108.525C74.8513 108.525 78.1326 103.666 80.0336 98.8435C81.4756 95.1847 81.9083 89.6059 80.7492 89.6059C80.3816 89.6059 79.1082 90.6235 77.9187 91.868ZM53.4559 95.8584C51.8757 96.5403 49.7115 97.9107 48.6462 98.9044C43.719 103.5 41.6551 112.438 44.7349 115.842C47.4675 118.862 53.2182 117.714 57.3064 113.333C59.7898 110.671 62.4591 104.526 62.4805 101.419C62.5002 98.5614 60.5046 95.7457 57.9744 95.0629C57.0695 94.8195 55.0361 95.1773 53.4559 95.8584ZM62.1226 113.794C57.5968 118.319 54.7844 123.627 55.4688 126.353C55.8751 127.97 56.3267 128.254 57.7959 127.813C60.716 126.937 65.6935 121.633 67.977 116.967C69.1368 114.597 69.8706 112.098 69.6082 111.414C68.7477 109.173 65.8095 110.106 62.1226 113.794Z" fill="white"/>
</svg>
