<svg width="121" height="33" viewBox="0 0 121 33" fill="none" xmlns="http://www.w3.org/2000/svg">
<g clip-path="url(#clip0_447_603)">
<path fill-rule="evenodd" clip-rule="evenodd" d="M1.93612 0C0.86683 0 0 0.868938 0 1.94083V20.3787C0 21.4506 0.866829 22.3195 1.93612 22.3195H5.56634V9.56936C5.56634 7.36603 7.34816 5.57988 9.54614 5.57988H22.2654V1.94083C22.2654 0.868939 21.3985 0 20.3292 0H1.93612Z" fill="white"/>
<path fill-rule="evenodd" clip-rule="evenodd" d="M10.1646 8.24854C9.09535 8.24854 8.22852 9.11747 8.22852 10.1894V28.6272C8.22852 29.6991 9.09534 30.5681 10.1646 30.5681H28.5578C29.627 30.5681 30.4939 29.6991 30.4939 28.6272V10.1894C30.4939 9.11747 29.627 8.24854 28.5578 8.24854H10.1646ZM19.3612 23.7752C21.6334 23.7752 23.4754 21.9287 23.4754 19.6509C23.4754 17.3731 21.6334 15.5266 19.3612 15.5266C17.089 15.5266 15.2469 17.3731 15.2469 19.6509C15.2469 21.9287 17.089 23.7752 19.3612 23.7752Z" fill="white"/>
<path d="M44.6316 14.0006C44.0016 14.0006 43.3801 13.9231 42.7673 13.7681C42.1601 13.6073 41.6045 13.3691 41.1005 13.0533C40.5965 12.7318 40.1783 12.3298 39.8461 11.8475C39.5197 11.3652 39.3278 10.7997 39.2705 10.1509H42.2604C42.3348 10.4896 42.478 10.7767 42.6899 11.0121C42.9019 11.2418 43.1711 11.4198 43.4975 11.5461C43.8297 11.6667 44.202 11.727 44.6144 11.727C45.0154 11.727 45.3877 11.681 45.7313 11.5892C46.075 11.4973 46.3499 11.3538 46.5561 11.1585C46.768 10.9633 46.874 10.7021 46.874 10.3748C46.874 10.0935 46.7766 9.86955 46.5819 9.70305C46.3929 9.5308 46.1409 9.39587 45.8258 9.29826C45.5108 9.19491 45.17 9.10879 44.8034 9.03989L42.7758 8.65233C41.8308 8.48583 41.0747 8.10688 40.5077 7.51549C39.9406 6.92411 39.6485 6.12315 39.6314 5.11262C39.6199 4.30306 39.8347 3.60832 40.2757 3.02842C40.7225 2.44277 41.321 1.99493 42.0713 1.68488C42.8217 1.37483 43.655 1.21981 44.5715 1.21981C45.6712 1.21981 46.5991 1.38631 47.3551 1.71933C48.1169 2.05234 48.6954 2.51167 49.0906 3.09732C49.4858 3.67722 49.6892 4.33464 49.7006 5.06956H46.7881C46.748 4.69062 46.6334 4.38631 46.4444 4.15665C46.2554 3.92698 46.0063 3.76334 45.697 3.66574C45.3934 3.56239 45.0383 3.51071 44.6316 3.51071C44.2994 3.51071 44.013 3.54516 43.7725 3.61406C43.5319 3.67722 43.3314 3.76622 43.1711 3.88105C43.0107 3.99588 42.8904 4.13081 42.8102 4.28583C42.7358 4.43511 42.6985 4.59301 42.6985 4.75951C42.6985 5.08105 42.8016 5.34229 43.0078 5.54325C43.2197 5.73846 43.6235 5.89923 44.2192 6.02554L46.2382 6.40449C47.063 6.55377 47.7131 6.78344 48.1885 7.09348C48.6639 7.40353 49.019 7.75377 49.2539 8.1442C49.4887 8.52889 49.6376 8.91645 49.7006 9.30688C49.7694 9.69731 49.8037 10.0533 49.8037 10.3748C49.8037 11.0581 49.5803 11.6753 49.1336 12.2265C48.6925 12.7777 48.0825 13.2112 47.3036 13.527C46.5303 13.8428 45.6397 14.0006 44.6316 14.0006Z" fill="white"/>
<path d="M53.3574 10.0475C53.3517 10.4552 53.4147 10.7997 53.5464 11.081C53.6781 11.3566 53.8643 11.5662 54.1048 11.7097C54.3454 11.8533 54.6261 11.9251 54.9468 11.9251C55.3134 11.9251 55.637 11.8504 55.9177 11.7011C56.204 11.5461 56.4131 11.2791 56.5448 10.9002H59.1567C59.0593 11.549 58.8015 12.1059 58.3834 12.571C57.971 13.0303 57.467 13.3834 56.8713 13.6303C56.2756 13.8772 55.6599 14.0006 55.0241 14.0006C54.1192 14.0006 53.323 13.814 52.6357 13.4408C51.9541 13.0676 51.4214 12.5423 51.0377 11.8648C50.6596 11.1873 50.4706 10.392 50.4706 9.47912C50.4706 8.61214 50.6453 7.82267 50.9947 7.11071C51.3441 6.39301 51.8481 5.82171 52.5068 5.39683C53.1655 4.96621 53.9588 4.7509 54.8867 4.7509C55.826 4.7509 56.6107 4.94899 57.2408 5.34516C57.8708 5.73559 58.3433 6.2753 58.6584 6.9643C58.9791 7.64755 59.1395 8.43128 59.1395 9.31549V10.0475H53.3574ZM53.3488 8.35951H56.4246C56.4246 8.06669 56.3673 7.7997 56.2527 7.55855C56.1382 7.31166 55.9663 7.11645 55.7372 6.97291C55.5081 6.82937 55.2246 6.7576 54.8867 6.7576C54.5774 6.7576 54.3082 6.83511 54.0791 6.99013C53.85 7.13942 53.6695 7.3375 53.5378 7.58439C53.4061 7.82554 53.3431 8.08391 53.3488 8.35951Z" fill="white"/>
<path d="M64.1103 4.7509C64.895 4.7509 65.568 4.91741 66.1294 5.25042C66.6907 5.5777 67.1231 6.01693 67.4267 6.56812C67.736 7.11358 67.9049 7.71071 67.9336 8.35951H65.5279C65.4993 8.15855 65.4334 7.94898 65.3303 7.7308C65.233 7.51262 65.0869 7.32889 64.8922 7.17961C64.6974 7.02458 64.4426 6.94707 64.1275 6.94707C63.6178 6.94707 63.2054 7.1509 62.8904 7.55855C62.5811 7.96047 62.4264 8.56908 62.4264 9.38439C62.4264 10.1882 62.5868 10.8169 62.9075 11.2705C63.2283 11.7241 63.655 11.9509 64.1877 11.9509C64.497 11.9509 64.7461 11.8676 64.9351 11.7011C65.1299 11.5346 65.2759 11.3423 65.3733 11.1241C65.4707 10.9059 65.5337 10.7136 65.5623 10.5471H67.8906C67.8734 11.1729 67.7073 11.7471 67.3923 12.2696C67.083 12.792 66.6506 13.2112 66.095 13.527C65.5394 13.8428 64.8779 14.0006 64.1103 14.0006C63.2741 14.0006 62.5238 13.814 61.8594 13.4408C61.2007 13.0619 60.6795 12.5279 60.2957 11.8389C59.912 11.1499 59.7201 10.3432 59.7201 9.41884C59.7201 8.49444 59.9062 7.68487 60.2785 6.99013C60.6508 6.28966 61.1663 5.74133 61.825 5.34516C62.4894 4.94899 63.2512 4.7509 64.1103 4.7509Z" fill="white"/>
<path d="M72.1121 14.0006C71.7284 14.0006 71.3389 13.9375 70.9437 13.8112C70.5485 13.6849 70.1848 13.5011 69.8526 13.26C69.5204 13.0131 69.2512 12.7145 69.045 12.3643C68.8445 12.0083 68.7443 11.6007 68.7443 11.1413V4.92315H71.674V10.7452C71.674 11.0782 71.7885 11.3566 72.0176 11.5806C72.2467 11.7987 72.5761 11.9078 73.0057 11.9078C73.4181 11.9078 73.7445 11.8016 73.9851 11.5892C74.2257 11.371 74.3459 11.0839 74.3459 10.7279V4.92315H77.2499V13.8284H75.0676L74.724 12.0284C74.6151 12.5853 74.4147 13.0073 74.1226 13.2944C73.8304 13.5758 73.5011 13.7624 73.1345 13.8542C72.7737 13.9518 72.4329 14.0006 72.1121 14.0006Z" fill="white"/>
<path d="M78.5846 13.8284V4.92315H81.4714V6.17195C81.5974 5.96525 81.7635 5.76143 81.9697 5.56047C82.1816 5.35951 82.448 5.19301 82.7687 5.06095C83.0952 4.92889 83.4904 4.86286 83.9543 4.86286C84.487 4.86286 84.9882 4.96621 85.4579 5.17291C85.9333 5.37961 86.3199 5.70975 86.6177 6.16334C86.9156 6.61119 87.0645 7.1997 87.0645 7.92889V13.8284H84.1262V8.31645C84.1262 7.92602 84.0002 7.63319 83.7482 7.43798C83.4961 7.23702 83.2069 7.13655 82.8804 7.13655C82.6628 7.13655 82.448 7.17961 82.236 7.26573C82.0241 7.34611 81.8494 7.46956 81.712 7.63607C81.5745 7.79683 81.5058 8.00066 81.5058 8.24755V13.8284H78.5846Z" fill="white"/>
<path d="M91.7144 14.0006C90.5058 14.0006 89.5694 13.5815 88.9049 12.7432C88.2405 11.905 87.9083 10.7652 87.9083 9.3241C87.9083 8.38822 88.0429 7.57865 88.3121 6.8954C88.5871 6.21214 88.9851 5.68392 89.5064 5.31071C90.0276 4.93751 90.6605 4.7509 91.4051 4.7509C91.68 4.7509 91.9435 4.77961 92.1955 4.83703C92.4475 4.89444 92.6852 4.9777 92.9086 5.08679C93.1377 5.19014 93.341 5.32219 93.5186 5.48296C93.7019 5.63798 93.8537 5.82171 93.9739 6.03415V1.03033H96.9037V13.8284H94.8159L94.4723 12.0026C94.3806 12.2782 94.2603 12.5394 94.1114 12.7863C93.9625 13.0274 93.7763 13.2399 93.553 13.4236C93.3296 13.6016 93.0661 13.7423 92.7625 13.8456C92.459 13.949 92.1096 14.0006 91.7144 14.0006ZM92.3845 11.9251C92.8943 11.9251 93.2866 11.7298 93.5616 11.3394C93.8365 10.949 93.9739 10.2715 93.9739 9.30688C93.9739 8.73846 93.9109 8.27339 93.7849 7.91166C93.6647 7.5442 93.4871 7.27434 93.2523 7.1021C93.0174 6.92985 92.731 6.84372 92.3931 6.84372C91.9292 6.84372 91.5397 7.03032 91.2247 7.40353C90.9096 7.77099 90.7521 8.40544 90.7521 9.30688C90.7521 10.237 90.9039 10.9059 91.2075 11.3136C91.511 11.7212 91.9034 11.9251 92.3845 11.9251Z" fill="white"/>
<path d="M101.24 4.92315V13.8284H98.4476V4.92315H101.24ZM101.248 1.37483V3.92411H98.439V1.37483H101.248Z" fill="white"/>
<path d="M102.779 13.8284V4.92315H105.666V6.17195C105.792 5.96525 105.958 5.76143 106.164 5.56047C106.376 5.35951 106.642 5.19301 106.963 5.06095C107.29 4.92889 107.685 4.86286 108.149 4.86286C108.682 4.86286 109.183 4.96621 109.652 5.17291C110.128 5.37961 110.514 5.70975 110.812 6.16334C111.11 6.61119 111.259 7.1997 111.259 7.92889V13.8284H108.321V8.31645C108.321 7.92602 108.195 7.63319 107.943 7.43798C107.691 7.23702 107.401 7.13655 107.075 7.13655C106.857 7.13655 106.642 7.17961 106.431 7.26573C106.219 7.34611 106.044 7.46956 105.906 7.63607C105.769 7.79683 105.7 8.00066 105.7 8.24755V13.8284H102.779Z" fill="white"/>
<path d="M116.51 14.0006C115.617 14.0006 114.841 13.8112 114.182 13.4322C113.523 13.0475 113.011 12.5136 112.644 11.8303C112.283 11.1413 112.103 10.3404 112.103 9.42745C112.103 8.49731 112.286 7.682 112.653 6.98152C113.025 6.2753 113.543 5.72698 114.208 5.33655C114.872 4.94612 115.643 4.7509 116.519 4.7509C117.424 4.7509 118.203 4.94899 118.856 5.34516C119.514 5.73559 120.021 6.28391 120.376 6.99013C120.732 7.69061 120.909 8.50305 120.909 9.42745C120.909 10.3174 120.732 11.1069 120.376 11.7959C120.027 12.4791 119.523 13.0188 118.864 13.415C118.206 13.8054 117.421 14.0006 116.51 14.0006ZM116.519 11.8475C116.92 11.8475 117.232 11.7241 117.455 11.4772C117.679 11.2246 117.836 10.9059 117.928 10.5212C118.02 10.1308 118.065 9.73463 118.065 9.33271C118.065 8.93654 118.022 8.54898 117.936 8.17004C117.851 7.79109 117.696 7.48104 117.473 7.23989C117.249 6.993 116.931 6.86956 116.519 6.86956C116.118 6.86956 115.803 6.99013 115.574 7.23128C115.35 7.46669 115.19 7.77386 115.093 8.15281C115.001 8.52602 114.955 8.91932 114.955 9.33271C114.955 9.72314 114.998 10.1136 115.084 10.504C115.176 10.8887 115.333 11.2102 115.557 11.4686C115.786 11.7212 116.106 11.8475 116.519 11.8475Z" fill="white"/>
<path d="M39.2705 24.536C39.2705 23.2211 39.5139 22.0843 40.0008 21.1254C40.4876 20.1608 41.1721 19.4173 42.0542 18.8948C42.9362 18.3723 43.9701 18.1111 45.1557 18.1111C46.3356 18.1111 47.3637 18.3723 48.2401 18.8948C49.1221 19.4173 49.8037 20.1608 50.2848 21.1254C50.7717 22.0843 51.0151 23.2211 51.0151 24.536C51.0151 25.6096 50.8519 26.5627 50.5254 27.3953C50.2047 28.2221 49.7293 28.9312 49.0992 29.5225C49.208 29.8211 49.44 30.068 49.7951 30.2632C50.1502 30.4527 50.5483 30.5503 50.9893 30.556V32.8728C50.3879 32.8728 49.8381 32.8268 49.3398 32.735C48.8415 32.6489 48.3661 32.4594 47.9136 32.1666C47.4668 31.8737 47.0115 31.4202 46.5475 30.8058C46.2554 30.846 46.0034 30.8718 45.7915 30.8833C45.5853 30.9005 45.3734 30.9091 45.1557 30.9091C43.9529 30.9091 42.9105 30.6508 42.0284 30.134C41.1521 29.6173 40.4733 28.8824 39.9922 27.9292C39.5111 26.9761 39.2705 25.845 39.2705 24.536ZM42.4923 24.5704C42.4923 26.0058 42.7243 27.0249 43.1882 27.6278C43.6579 28.2307 44.3137 28.5321 45.1557 28.5321C45.9919 28.5321 46.6449 28.2307 47.1146 27.6278C47.59 27.0249 47.8277 26.0029 47.8277 24.5618C47.8277 23.0977 47.5871 22.0527 47.106 21.4269C46.6306 20.801 45.9805 20.4881 45.1557 20.4881C44.3252 20.4881 43.6722 20.801 43.1968 21.4269C42.7272 22.0527 42.4923 23.1005 42.4923 24.5704Z" fill="white"/>
<path d="M55.7088 30.9091C55.325 30.9091 54.9355 30.846 54.5403 30.7197C54.1451 30.5934 53.7814 30.4096 53.4492 30.1685C53.117 29.9216 52.8478 29.623 52.6416 29.2728C52.4411 28.9168 52.3409 28.5091 52.3409 28.0498V21.8316H55.2706V27.6536C55.2706 27.9867 55.3852 28.2651 55.6143 28.4891C55.8434 28.7072 56.1727 28.8163 56.6023 28.8163C57.0147 28.8163 57.3412 28.7101 57.5817 28.4977C57.8223 28.2795 57.9426 27.9924 57.9426 27.6364V21.8316H60.8465V30.7369H58.6643L58.3206 28.9369C58.2118 29.4938 58.0113 29.9158 57.7192 30.2029C57.4271 30.4843 57.0977 30.6709 56.7312 30.7627C56.3703 30.8603 56.0295 30.9091 55.7088 30.9091Z" fill="white"/>
<path d="M64.6389 26.956C64.6331 27.3637 64.6961 27.7082 64.8279 27.9895C64.9596 28.2651 65.1458 28.4747 65.3863 28.6182C65.6269 28.7618 65.9075 28.8336 66.2283 28.8336C66.5949 28.8336 66.9185 28.7589 67.1991 28.6096C67.4855 28.4546 67.6946 28.1876 67.8263 27.8087H70.4381C70.3408 28.4575 70.083 29.0144 69.6649 29.4795C69.2525 29.9388 68.7485 30.2919 68.1528 30.5388C67.5571 30.7857 66.9414 30.9091 66.3056 30.9091C65.4006 30.9091 64.6045 30.7225 63.9172 30.3493C63.2356 29.9761 62.7029 29.4508 62.3191 28.7733C61.9411 28.0958 61.7521 27.3005 61.7521 26.3876C61.7521 25.5206 61.9268 24.7312 62.2762 24.0192C62.6256 23.3015 63.1296 22.7302 63.7883 22.3053C64.447 21.8747 65.2403 21.6594 66.1681 21.6594C67.1075 21.6594 67.8922 21.8575 68.5222 22.2537C69.1523 22.6441 69.6248 23.1838 69.9398 23.8728C70.2606 24.556 70.421 25.3398 70.421 26.224V26.956H64.6389ZM64.6303 25.268H67.706C67.706 24.9752 67.6488 24.7082 67.5342 24.4671C67.4196 24.2202 67.2478 24.0249 67.0187 23.8814C66.7896 23.7379 66.5061 23.6661 66.1681 23.6661C65.8589 23.6661 65.5897 23.7436 65.3605 23.8986C65.1314 24.0479 64.951 24.246 64.8193 24.4929C64.6875 24.734 64.6245 24.9924 64.6303 25.268Z" fill="white"/>
<path d="M74.3608 21.8316V30.7369H71.5686V21.8316H74.3608ZM74.3694 18.2833V20.8326H71.56V18.2833H74.3694Z" fill="white"/>
<path d="M75.9002 30.7369V21.8316H78.7182V24.1139C78.8557 23.6489 79.0533 23.2326 79.311 22.8651C79.5745 22.4919 79.8981 22.1991 80.2819 21.9867C80.6656 21.7685 81.1095 21.6594 81.6136 21.6594C81.6766 21.6594 81.731 21.6623 81.7768 21.668C81.8284 21.668 81.8599 21.6738 81.8713 21.6852V24.4671C81.8427 24.4556 81.8054 24.447 81.7596 24.4412C81.7195 24.4355 81.6766 24.4326 81.6307 24.4326C81.0694 24.3752 80.6055 24.3838 80.2389 24.4584C79.8781 24.5331 79.5917 24.6537 79.3798 24.8202C79.1736 24.9867 79.0275 25.1848 78.9416 25.4144C78.8614 25.6441 78.8213 25.8938 78.8213 26.1637V30.7369H75.9002Z" fill="white"/>
<path d="M86.4934 30.9091C85.5999 30.9091 84.8238 30.7197 84.1651 30.3407C83.5064 29.956 82.9938 29.4221 82.6272 28.7388C82.2664 28.0498 82.086 27.2489 82.086 26.3359C82.086 25.4058 82.2693 24.5905 82.6358 23.89C83.0081 23.1838 83.5265 22.6355 84.1909 22.245C84.8553 21.8546 85.6257 21.6594 86.502 21.6594C87.407 21.6594 88.1859 21.8575 88.8389 22.2537C89.4976 22.6441 90.0045 23.1924 90.3596 23.8986C90.7147 24.5991 90.8923 25.4115 90.8923 26.3359C90.8923 27.2259 90.7147 28.0154 90.3596 28.7044C90.0102 29.3876 89.5062 29.9273 88.8475 30.3235C88.1888 30.7139 87.4041 30.9091 86.4934 30.9091ZM86.502 28.756C86.9029 28.756 87.2151 28.6326 87.4385 28.3857C87.6619 28.1331 87.8194 27.8144 87.911 27.4297C88.0027 27.0393 88.0485 26.6431 88.0485 26.2412C88.0485 25.845 88.0055 25.4575 87.9196 25.0785C87.8337 24.6996 87.679 24.3895 87.4557 24.1484C87.2323 23.9015 86.9144 23.7781 86.502 23.7781C86.1011 23.7781 85.7861 23.8986 85.5569 24.1398C85.3336 24.3752 85.1732 24.6824 85.0758 25.0613C84.9842 25.4345 84.9383 25.8278 84.9383 26.2412C84.9383 26.6316 84.9813 27.0221 85.0672 27.4125C85.1589 27.7972 85.3164 28.1187 85.5398 28.3771C85.7689 28.6297 86.0896 28.756 86.502 28.756ZM87.2323 18.2833H90.1706L87.533 20.7895H85.4624L87.2323 18.2833Z" fill="white"/>
<path d="M95.5195 30.9091C94.9009 30.9091 94.2966 30.8058 93.7067 30.5991C93.1167 30.3924 92.6127 30.0623 92.1946 29.6087C91.7764 29.1551 91.5072 28.5637 91.387 27.8345H93.8957C93.9701 28.1388 94.1047 28.3714 94.2995 28.5321C94.4942 28.6929 94.7033 28.802 94.9267 28.8594C95.15 28.9168 95.3419 28.9455 95.5023 28.9455C95.9261 28.9455 96.2698 28.8852 96.5333 28.7647C96.7968 28.6441 96.9285 28.4603 96.9285 28.2135C96.9285 28.0068 96.8454 27.846 96.6793 27.7312C96.519 27.6106 96.2383 27.5159 95.8374 27.447L94.394 27.18C93.5807 27.0249 92.922 26.7407 92.4179 26.3273C91.9196 25.9082 91.6676 25.3168 91.6619 24.5532C91.6562 24.0077 91.8022 23.5168 92.1001 23.0805C92.3979 22.6441 92.8361 22.2996 93.4146 22.047C93.993 21.7886 94.7033 21.6594 95.5453 21.6594C96.6965 21.6594 97.6129 21.912 98.2945 22.4173C98.9761 22.9226 99.3198 23.6202 99.3255 24.5101H96.9199C96.8569 24.2058 96.6937 23.9761 96.4302 23.8211C96.1724 23.6604 95.8631 23.58 95.5023 23.58C95.1357 23.58 94.8264 23.6431 94.5744 23.7694C94.3281 23.89 94.205 24.0738 94.205 24.3206C94.205 24.5101 94.3138 24.6623 94.5315 24.7771C94.7491 24.8919 95.0956 24.9953 95.571 25.0871L96.8684 25.3541C97.401 25.4862 97.8335 25.6642 98.1657 25.8881C98.4979 26.1063 98.7528 26.3446 98.9303 26.6029C99.1136 26.8613 99.2396 27.1197 99.3083 27.3781C99.3771 27.6307 99.4114 27.8546 99.4114 28.0498C99.4114 28.6642 99.2425 29.1838 98.9045 29.6087C98.5666 30.0335 98.1027 30.358 97.5127 30.5819C96.9285 30.8001 96.2641 30.9091 95.5195 30.9091Z" fill="white"/>
</g>
<defs>
<clipPath id="clip0_447_603">
<rect width="121" height="33" fill="white"/>
</clipPath>
</defs>
</svg>
