<svg width="767" height="128" viewBox="0 0 767 128" fill="none" xmlns="http://www.w3.org/2000/svg">
<path fill-rule="evenodd" clip-rule="evenodd" d="M328.102 7.59432V15.1886L335.537 16.4876L342.972 17.7866L343.243 27.9597L343.514 38.1327L335.088 38.7727C318.955 39.9968 308.937 44.1384 300.771 52.9578C295.114 59.068 291.459 66.008 289.838 73.7165C288.324 80.9117 288.536 95.3511 290.263 102.677C292.79 113.399 298.833 121.392 306.673 124.386C309.705 125.545 312.729 125.845 317.961 125.51C325.081 125.053 325.461 124.912 342.732 116.319C343.129 116.122 343.452 117.94 343.452 120.359V124.756H364.078H384.705V115.741V106.727L377.269 105.428L369.834 104.129L369.355 52.3237L368.875 0.51805L348.489 0.259017L328.102 0V7.59432ZM138.628 10.5165L128.075 13.0991L127.808 26.2357L127.542 39.3723H120.34H113.138L113.411 49.2057L113.685 59.0392L120.017 59.3193L126.349 59.6004L126.973 69.7821C127.315 75.3819 127.595 86.8617 127.595 95.2935C127.595 104.181 128.064 112.189 128.712 114.35C130.031 118.753 134.841 123.765 139.293 125.379C143.919 127.055 156.195 126.913 164.504 125.088L171.726 123.501V114.085V104.669L164.222 105.248C156.866 105.815 156.677 105.774 154.628 103.17C152.63 100.629 152.539 99.6193 152.539 80.0157V59.5189H162.132H171.726V49.4456V39.3723H162.132H152.539V23.5428C152.539 9.06502 152.396 7.72287 150.86 7.8236C149.936 7.88404 144.432 9.09571 138.628 10.5165ZM424.719 14.0681C423.702 15.085 423.909 27.834 425.006 31.7847C426.104 35.7353 428.968 37.4535 434.455 37.4535C441.288 37.4535 443.721 32.4293 443.05 19.7053C442.779 14.5756 442.511 13.9155 440.587 13.6421C438.508 13.3476 438.429 13.6105 438.415 20.8374C438.409 24.9636 438.146 29.297 437.832 30.4665C437.187 32.8716 434.546 34.0353 431.748 33.1469C430.072 32.6155 429.832 31.5189 429.589 23.2492C429.338 14.7233 429.152 13.9261 427.357 13.669C426.28 13.5145 425.093 13.6949 424.719 14.0681ZM448.023 25.3943C448.023 36.8136 448.124 37.4535 449.941 37.4535C451.691 37.4535 451.86 36.8136 451.86 30.2017C451.86 26.1129 452.239 23.184 452.729 23.4871C453.207 23.7826 455.239 26.8295 457.245 30.2573C460.799 36.3339 463.606 38.5625 465.421 36.7484C465.913 36.2562 466.194 30.9241 466.043 24.9012C465.789 14.6792 465.643 13.9491 463.852 13.9491C462.148 13.9491 461.88 14.7483 461.454 21.0849L460.974 28.2197L456.59 21.0849C453.618 16.2487 451.531 13.8503 450.114 13.6421C448.06 13.3418 448.023 13.55 448.023 25.3943ZM470.529 14.6629C470.249 15.3939 470.143 20.7126 470.293 26.4822C470.568 36.9604 470.57 36.9738 472.966 36.9738H475.364V25.4615C475.364 14.2465 475.309 13.9415 473.202 13.6421C472.005 13.4723 470.811 13.928 470.529 14.6629ZM478.29 14.3511C477.471 15.677 484.868 35.7487 486.574 36.8242C487.388 37.3384 488.7 37.5111 489.49 37.2079C490.279 36.9057 492.715 31.7645 494.905 25.7829C497.093 19.8022 498.881 14.5842 498.876 14.189C498.864 13.0032 495.336 13.3774 494.351 14.6687C493.848 15.3287 492.453 18.674 491.249 22.1037C490.047 25.5334 488.765 28.6648 488.399 29.061C488.035 29.4582 486.737 26.6521 485.514 22.8252C484.293 18.9992 482.86 15.3287 482.329 14.6687C481.198 13.2613 479.067 13.0943 478.29 14.3511ZM501.218 14.6917C500.944 15.4064 500.842 20.7126 500.993 26.4822L501.267 36.9738L509.662 37.2511L518.056 37.5284V35.0925C518.056 32.7344 517.857 32.6567 511.82 32.6567H505.584V29.7786V26.9005H511.34C516.408 26.9005 517.097 26.677 517.097 25.0298C517.097 23.4248 516.312 23.1178 511.58 22.8712C506.733 22.6179 506.028 22.3272 505.764 20.4718C505.485 18.5128 505.898 18.3401 511.52 18.0734C516.841 17.8211 517.576 17.5535 517.576 15.8679C517.576 14.1266 516.843 13.9232 509.646 13.67C503.661 13.4599 501.594 13.7103 501.218 14.6917ZM523.317 14.6025C523.024 15.3661 522.907 20.7126 523.058 26.4822C523.313 36.2428 523.466 36.9738 525.251 36.9738C526.863 36.9738 527.217 36.2361 527.464 32.3574C527.725 28.2753 527.995 27.7755 529.789 28.0403C530.905 28.2053 533.179 30.2823 534.843 32.6567C536.931 35.6365 538.663 37.0679 540.434 37.277C541.845 37.4439 542.999 37.3211 542.999 37.0036C542.999 36.145 540.021 31.5055 537.986 29.1953C536.238 27.2104 536.25 27.1433 538.643 25.5757C540.444 24.3956 541.081 23.1456 541.081 20.7913C541.081 15.9983 538.512 14.2638 530.571 13.6949C525.268 13.316 523.737 13.5078 523.317 14.6025ZM548.463 14.5353C545.893 16.0309 544.696 19.8886 546.021 22.4059C547.465 25.1507 548.42 25.7512 553.394 27.0463C558.112 28.2743 559.514 30.3917 556.882 32.3161C554.32 34.1898 552.826 33.9365 550.045 31.1553C547.481 28.5909 544.918 28.6284 544.918 31.2311C544.918 32.0629 545.978 33.8031 547.273 35.0983C549.09 36.9153 550.635 37.4535 554.032 37.4535C557.429 37.4535 558.975 36.9153 560.791 35.0983C565.346 30.5432 562.97 24.7305 555.815 22.9288C551.285 21.7881 549.437 19.6391 551.733 18.1838C553.838 16.8522 555.247 17.1467 557.299 19.3484C558.405 20.5361 559.826 21.1511 560.694 20.8182C562.805 20.0085 562.551 18.5435 559.831 15.8247C558.142 14.1343 556.449 13.4781 553.835 13.4982C551.833 13.5145 549.416 13.9808 548.463 14.5353ZM567.426 14.6591C567.145 15.392 567.038 20.7126 567.189 26.4822C567.444 36.2428 567.597 36.9738 569.382 36.9738C571.194 36.9738 571.301 36.334 571.301 25.4749C571.301 15.2779 571.11 13.9386 569.619 13.6517C568.694 13.4733 567.707 13.9271 567.426 14.6591ZM576.993 14.73C576.727 15.4237 576.632 20.7126 576.782 26.4822L577.057 36.9738L581.044 37.2645C587.259 37.7173 591.18 36.2908 593.606 32.6951C596.481 28.4317 596.477 22.4855 593.595 18.2087C591.191 14.6418 588.869 13.7074 582.064 13.5654C579.086 13.503 577.306 13.9117 576.993 14.73ZM605.625 14.6687C604.484 16.1432 597.683 34.7529 597.683 36.3982C597.683 38.6124 601.957 37.0276 603.243 34.3356C604.324 32.0725 605.08 31.6973 608.558 31.6973C612.182 31.6973 612.728 32.0034 613.699 34.5754C614.428 36.5066 615.444 37.4535 616.787 37.4535C617.888 37.4535 618.789 36.8558 618.789 36.1248C618.789 34.4383 612.052 16.2718 610.832 14.6687C610.33 14.0096 609.162 13.4695 608.236 13.4695C607.31 13.4695 606.135 14.0096 605.625 14.6687ZM623.042 14.73C622.776 15.4237 622.681 20.7126 622.832 26.4822L623.106 36.9738L627.126 37.2664C629.337 37.4267 632.897 37.0871 635.035 36.5114C639.74 35.2441 641.814 31.8643 641.814 25.4615C641.814 16.8742 637.951 13.4695 628.209 13.4695C625.225 13.4695 623.35 13.9271 623.042 14.73ZM646.082 14.6917C645.808 15.4064 645.706 20.7126 645.857 26.4822L646.131 36.9738L654.525 37.2511L662.92 37.5284V35.0925C662.92 32.7344 662.721 32.6567 656.684 32.6567H650.448V29.7786V26.9005H656.204C661.272 26.9005 661.96 26.677 661.96 25.0298C661.96 23.4248 661.176 23.1178 656.444 22.8712C651.596 22.6179 650.891 22.3272 650.628 20.4718C650.348 18.5128 650.762 18.3401 656.384 18.0734C661.705 17.8211 662.44 17.5535 662.44 15.8679C662.44 14.1266 661.707 13.9232 654.51 13.67C648.525 13.4599 646.458 13.7103 646.082 14.6917ZM536.111 20.4248C535.856 22.2188 535.116 22.6333 531.727 22.8779C527.916 23.1542 527.65 23.0132 527.65 20.7194C527.65 18.4457 527.971 18.2663 532.034 18.2663C536.031 18.2663 536.39 18.4562 536.111 20.4248ZM590.403 22.286C590.939 24.4532 590.927 27.0579 590.373 29.0015C589.553 31.8758 589.083 32.2049 585.421 32.4716L581.374 32.767V25.4615V18.1559L585.451 18.4514C589.271 18.7277 589.584 18.9695 590.403 22.286ZM635.866 19.4175C636.499 20.0507 637.017 22.7705 637.017 25.4615C637.017 28.1525 636.499 30.8723 635.866 31.5055C635.233 32.1387 633.074 32.6567 631.069 32.6567H627.423V25.4615V18.2663H631.069C633.074 18.2663 635.233 18.7843 635.866 19.4175ZM609.904 24.5021C610.913 27.7879 610.877 27.8599 608.236 27.8599C605.595 27.8599 605.559 27.7879 606.568 24.5021C607.135 22.6554 607.886 21.1444 608.236 21.1444C608.586 21.1444 609.337 22.6554 609.904 24.5021ZM212.019 38.9473C208.589 39.7215 203.733 41.0319 201.226 41.8589L196.669 43.3642V52.9923C196.669 61.7062 196.829 62.5754 198.348 62.1379C199.272 61.8731 203.853 60.5272 208.529 59.1486C223.462 54.7441 232.547 56.1956 235.449 63.4494C236.282 65.5302 236.963 68.087 236.963 69.1317C236.963 70.8077 236.304 71.0312 231.36 71.0312C224.809 71.0312 212.944 73.869 207.164 76.8172C201.412 79.7518 194.235 86.7782 191.753 91.9051C190.175 95.163 189.635 98.021 189.639 103.084C189.644 110.549 190.897 113.851 195.877 119.522C200.53 124.822 205.621 127.026 213.119 126.986C218.46 126.958 220.759 126.36 227.283 123.298C231.566 121.288 235.55 119.067 236.134 118.362C237.927 116.202 238.469 116.911 238.086 120.918L237.721 124.756H257.968H278.215V115.741V106.727L270.78 105.428L263.345 104.129L262.865 80.0732L262.386 56.0182L259.478 50.333C256.85 45.1956 255.941 44.3283 250.03 41.3159C243.648 38.0637 243.181 37.9773 230.872 37.7615C222.5 37.6147 216.157 38.0138 212.019 38.9473ZM0 48.8786V57.4639L5.51634 58.548C8.54984 59.1447 11.5728 59.8086 12.2319 60.0254C13.1471 60.3247 13.4311 65.843 13.4311 83.2986C13.4311 110.931 14.1055 114.282 21.0129 120.981C26.1964 126.008 31.9602 128.086 40.4736 127.997C47.003 127.929 53.5277 125.647 59.7223 121.265C62.23 119.492 64.4721 118.04 64.7042 118.04C64.9364 118.04 65.2587 119.875 65.4218 122.117L65.7164 126.195L86.5825 126.454L107.449 126.712V117.199V107.687L100.014 106.388L92.5785 105.089L92.3262 72.6833L92.0729 40.2779L78.8951 40.5446L65.7164 40.8113L65.2367 67.1938C64.7724 92.7464 64.686 93.701 62.4852 97.5403C61.2333 99.7248 58.5912 102.417 56.5986 103.536C52.1721 106.024 46.0494 106.187 43.274 103.889C41.2948 102.252 41.2392 101.453 41.0089 71.5109L40.7729 40.8113L20.3865 40.5523L0 40.2932V48.8786ZM529.904 45.8623C528.578 46.7095 527.837 49.4168 528.849 49.7142C530.566 50.2188 531.36 49.7833 532.838 47.5268C534.311 45.2791 534.303 45.1294 532.708 45.1428C531.773 45.1515 530.51 45.4748 529.904 45.8623ZM546.717 53.237C543.642 54.9715 542.688 58.123 544.247 61.3896C545.039 63.0512 546.86 64.2975 549.92 65.2751C555.689 67.117 557.169 68.5052 555.505 70.5113C553.789 72.5787 550.009 72.3552 548.053 70.0719C547.15 69.0166 545.468 68.1531 544.315 68.1531C542.684 68.1531 542.332 68.5829 542.728 70.0949C544.151 75.5383 553.695 77.7756 558.699 73.8393C561.47 71.6606 562.058 67.7329 560.028 64.9681C559.369 64.0691 556.672 62.5639 554.037 61.6228C551.198 60.6087 549.116 59.2445 548.93 58.2755C548.688 57.0188 549.303 56.6408 551.593 56.6408C553.356 56.6408 554.798 57.2279 555.124 58.0798C555.824 59.9036 560.268 59.9957 560.268 58.1863C560.268 57.4534 559.508 55.9146 558.579 54.7681C556.41 52.0896 550.177 51.2856 546.717 53.237ZM581.746 52.7841C580.632 53.2341 578.797 54.7767 577.669 56.211C576.218 58.0549 575.618 60.1712 575.618 63.4408C575.618 69.2507 577.167 72.7101 580.554 74.461C584.428 76.4641 590.253 76.1868 593.213 73.8575C596.184 71.5215 598.007 65.5811 597.153 61.027C595.847 54.0649 588.416 50.0893 581.746 52.7841ZM604.415 53.0777C603.105 53.7406 601.63 55.4282 601.138 56.8269C599.846 60.5013 602.403 63.9425 607.513 65.4036C613.127 67.0086 614.18 67.9277 612.979 70.1726C611.703 72.5557 607.791 72.5048 605.358 70.0719C603.619 68.3325 599.602 67.3722 599.602 68.6961C599.602 69.8589 601.91 73.4882 603.356 74.5981C604.193 75.2409 606.949 75.781 609.478 75.7974C613.11 75.8213 614.577 75.3311 616.434 73.4728C617.729 72.1777 618.789 70.423 618.789 69.573C618.789 68.2558 617.32 64.6591 616.298 63.4734C616.126 63.2738 613.702 62.3663 610.911 61.4558C605.118 59.5678 604.158 57.2826 608.962 56.8192C611.114 56.612 612.266 56.9852 612.663 58.0184C612.979 58.8435 614.271 59.5189 615.534 59.5189C616.797 59.5189 617.83 59.3232 617.83 59.0843C617.83 58.8454 617.35 57.5982 616.765 56.3117C614.898 52.2143 609.114 50.6994 604.415 53.0777ZM664.218 53.6917C660.561 55.9222 658.647 61.0347 659.391 66.5865C659.767 69.3907 660.788 71.3238 662.876 73.1898C665.187 75.2553 666.784 75.828 670.226 75.828C673.949 75.828 675.125 75.3273 677.886 72.5662C680.66 69.7917 681.148 68.6376 681.148 64.8433C681.148 59.3193 679.107 55.2046 675.423 53.2993C671.635 51.3403 667.858 51.4727 664.218 53.6917ZM751.901 53.7406C750.124 55.1413 749.262 56.7156 749.262 58.5605C749.262 60.0676 749.904 61.9422 750.689 62.727C751.473 63.5108 754.279 64.8721 756.925 65.7509C760.341 66.8858 761.734 67.8519 761.734 69.0866C761.734 70.0431 761.051 71.0878 760.217 71.4083C757.272 72.5384 755.046 71.9647 753.558 69.6939C752.541 68.1416 751.445 67.5555 750.178 67.8864C747.64 68.5503 747.82 70.635 750.658 73.4728C752.512 75.3273 754.005 75.828 757.672 75.828C761.036 75.828 762.916 75.2841 764.431 73.8719C766.961 71.5148 767.261 66.125 764.969 64.1929C764.111 63.4695 761.416 62.2291 758.982 61.4376C756.274 60.5569 754.432 59.3472 754.238 58.3197C753.983 56.9823 754.595 56.6408 757.244 56.6408C759.315 56.6408 760.778 57.1838 761.122 58.0798C761.932 60.1904 765.572 59.9199 765.572 57.7489C765.572 55.1346 762.38 52.7074 758.211 52.151C755.393 51.7749 753.925 52.1452 751.901 53.7406ZM424.248 64.0759L424.518 75.3484H431.374C436.775 75.3484 438.659 74.9598 440.253 73.5169C442.883 71.1348 444.44 65.2098 443.605 60.7584C443.241 58.8176 441.947 56.234 440.729 55.0166C438.808 53.095 437.56 52.8033 431.247 52.8033H423.978L424.248 64.0759ZM448.023 64.3531V75.9029L456.406 75.6256C463.497 75.3915 464.839 75.0893 465.111 73.6695C465.39 72.2084 464.614 71.9906 459.125 71.9906H452.819V68.6328V65.2751H458.096C462.732 65.2751 463.372 65.0429 463.372 63.3563C463.372 61.6698 462.732 61.4376 458.096 61.4376C453.107 61.4376 452.819 61.3071 452.819 59.0392C452.819 56.7473 453.075 56.6408 458.576 56.6408C463.692 56.6408 464.332 56.4278 464.332 54.7221C464.332 52.954 463.692 52.8033 456.177 52.8033H448.023V64.3531ZM475.844 54.7221C475.844 56.2753 476.484 56.6408 479.202 56.6408H482.56V66.2344V75.828H484.958H487.356V66.2344V56.6408H490.714C493.432 56.6408 494.072 56.2753 494.072 54.7221C494.072 52.9376 493.432 52.8033 484.958 52.8033C476.484 52.8033 475.844 52.9376 475.844 54.7221ZM497.159 64.0759L497.43 75.3484H499.828C502.009 75.3484 502.253 74.9349 502.519 70.7914C502.762 67.0096 503.13 66.2344 504.686 66.2344C505.904 66.2344 507.597 67.9181 509.513 71.0312L512.465 75.828H517.928C523.118 75.828 523.446 75.6841 524.478 72.95C525.444 70.3904 526.004 70.0719 529.535 70.0719C533.084 70.0719 533.612 70.3769 534.509 72.95C535.248 75.0711 536.119 75.828 537.817 75.828C539.084 75.828 540.125 75.5038 540.129 75.1085C540.134 74.7133 538.351 69.5087 536.168 63.5444C532.221 52.7592 532.184 52.7016 529.267 52.9914C526.459 53.2705 526.17 53.7397 522.436 64.0739C520.29 70.0086 518.32 74.8553 518.056 74.8447C517.792 74.8351 516.248 72.7418 514.623 70.1937L511.67 65.5619L513.904 63.5722C516.491 61.2678 516.773 57.9753 514.644 54.936C513.3 53.0173 512.334 52.8033 505.02 52.8033H496.89L497.159 64.0759ZM633.18 64.3157C633.18 75.1882 633.286 75.828 635.098 75.828C636.868 75.828 637.019 75.1786 637.046 67.4336C637.064 62.4133 637.398 59.6177 637.878 60.4782C638.318 61.2697 639.437 65.0707 640.362 68.9254C641.951 75.5383 642.186 75.9163 644.523 75.641C646.771 75.3752 647.195 74.5943 649.112 67.1938L651.224 59.0392L651.315 67.5008C651.405 75.7033 651.474 75.9518 653.566 75.6554C655.648 75.3589 655.734 74.9435 655.995 64.0192L656.266 52.6901L652.214 52.9866L648.162 53.283L646.515 59.8307C645.608 63.4331 644.689 66.5568 644.472 66.7736C644.255 66.9914 643.315 63.9367 642.384 59.9861L640.69 52.8033H636.935H633.18V64.3157ZM684.985 64.3186C684.985 75.8444 685.007 75.9585 687.144 75.6554C689.099 75.3772 689.347 74.7018 689.782 68.4736L690.262 61.5988L694.573 68.7134C697.888 74.1827 699.385 75.828 701.049 75.828C703.175 75.828 703.213 75.6237 703.213 64.3157C703.213 53.5257 703.095 52.8033 701.335 52.8033C699.656 52.8033 699.426 53.5919 699.176 60.2384L698.896 67.6735L694.516 60.4782C691.03 54.7518 689.61 53.2207 687.56 52.9799L684.985 52.6757V64.3186ZM707.051 54.7221C707.051 56.2091 707.69 56.6408 709.894 56.6408H712.738L713.012 65.9946C713.283 75.2591 713.309 75.3484 715.685 75.3484C718.059 75.3484 718.086 75.2553 718.357 66.0531L718.631 56.7569L721.707 56.4595C723.724 56.2638 724.893 55.5836 725.101 54.4822C725.386 52.9779 724.463 52.8033 716.234 52.8033C707.69 52.8033 707.051 52.9367 707.051 54.7221ZM728.157 64.3157V75.828H736.791C744.785 75.828 745.425 75.6861 745.425 73.9093C745.425 72.1873 744.785 71.9906 739.189 71.9906H732.953V68.6328V65.2751H738.23C742.866 65.2751 743.506 65.0429 743.506 63.3563C743.506 61.6698 742.866 61.4376 738.23 61.4376C733.241 61.4376 732.953 61.3071 732.953 59.0392C732.953 56.7473 733.209 56.6408 738.709 56.6408C743.826 56.6408 744.466 56.4278 744.466 54.7221C744.466 52.954 743.826 52.8033 736.311 52.8033H728.157V64.3157ZM437.537 58.1604C438.23 58.996 438.798 61.8559 438.798 64.5143C438.798 68.1416 438.346 69.6776 436.991 70.6696C435.997 71.3958 433.972 71.9906 432.489 71.9906H429.795V64.3157V56.6408H433.035C434.822 56.6408 436.841 57.3229 437.537 58.1604ZM510.998 58.0923C511.872 60.3698 509.494 62.397 505.947 62.397C502.985 62.397 502.706 62.1485 502.706 59.5189C502.706 56.7972 502.916 56.6408 506.573 56.6408C509.141 56.6408 510.629 57.1291 510.998 58.0923ZM591.566 60.1348C594.924 68.1723 587.945 75.6832 582.333 70.0719C579.91 67.6485 579.719 60.9186 582.002 58.3955C582.946 57.3517 584.91 56.6408 586.848 56.6408C589.689 56.6408 590.293 57.0878 591.566 60.1348ZM675.014 59.0593C676.139 60.7766 676.442 62.6454 676.058 65.5015C675.165 72.1614 669.626 74.2365 665.776 69.3523C664.187 67.3367 663.811 65.8564 664.181 63.0791C664.448 61.0798 665.19 58.8128 665.83 58.0424C666.469 57.2711 668.44 56.6408 670.21 56.6408C672.592 56.6408 673.84 57.2701 675.014 59.0593ZM343.296 73.727C342.925 88.2451 342.787 89.1382 340.063 94.5932C337.755 99.2116 336.398 100.705 332.899 102.471C327.609 105.142 323.876 104.635 320.247 100.753C318.828 99.2365 317.211 96.3536 316.654 94.3466C315.184 89.0519 315.403 78.8606 317.111 73.1102C318.787 67.4653 323.313 61.7667 327.604 59.8969C329.198 59.2023 333.466 58.618 337.09 58.5969L343.681 58.5595L343.296 73.727ZM531.237 62.8766C532.257 66.1989 532.236 66.2344 529.376 66.2344C526.999 66.2344 526.608 65.9361 527.176 64.5555C527.557 63.6317 528.084 62.1216 528.35 61.1978C529.095 58.6056 530.106 59.1937 531.237 62.8766ZM565.065 67.1938C565.065 68.8285 565.705 69.1125 569.382 69.1125C573.059 69.1125 573.699 68.8285 573.699 67.1938C573.699 65.559 573.059 65.2751 569.382 65.2751C565.705 65.2751 565.065 65.559 565.065 67.1938ZM621.667 67.1938C621.667 68.8564 622.307 69.1125 626.464 69.1125C630.621 69.1125 631.261 68.8564 631.261 67.1938C631.261 65.5312 630.621 65.2751 626.464 65.2751C622.307 65.2751 621.667 65.5312 621.667 67.1938ZM235.811 88.4917C236.445 89.1248 236.963 90.9083 236.963 92.4557C236.963 98.5822 229.012 106.528 222.883 106.528C219.262 106.528 215.229 103.321 214.404 99.7881C214.018 98.1352 214.547 96.3066 216.069 94.032C217.65 91.6691 219.689 90.2214 223.074 89.0615C228.714 87.1274 234.202 86.8818 235.811 88.4917ZM519.219 91.2824C515.076 92.5018 512.307 97.0722 512.307 102.69C512.307 108.59 515.035 112.849 519.627 114.116C524.16 115.368 527.425 114.61 530.73 111.537C534.08 108.421 535.094 102.456 533.09 97.6574C530.749 92.0557 525.221 89.5143 519.219 91.2824ZM575.93 91.6182C571.672 93.4707 569.492 97.219 569.492 102.69C569.492 108.338 571.708 111.951 576.366 113.897C579.154 115.062 580.555 115.136 583.435 114.274C588.761 112.678 590.968 109.309 590.968 102.775C590.968 96.4496 589.308 93.5072 584.637 91.5559C580.732 89.9249 579.808 89.9317 575.93 91.6182ZM647.773 91.3016C643.632 92.496 640.861 97.0597 640.861 102.69C640.861 108.71 643.591 112.873 648.383 114.163C656.326 116.302 662.92 111.098 662.92 102.69C662.92 97.5806 660.336 93.4228 656.111 91.7324C651.879 90.0391 652.11 90.0506 647.773 91.3016ZM424.038 102.69V114.203H432.673C440.667 114.203 441.307 114.061 441.307 112.284C441.307 110.578 440.667 110.365 435.551 110.365H429.795V107.007V103.65H435.071C439.708 103.65 440.348 103.417 440.348 101.731C440.348 100.044 439.708 99.8121 435.071 99.8121C430.082 99.8121 429.795 99.6817 429.795 97.4137C429.795 95.1218 430.051 95.0153 435.551 95.0153C440.667 95.0153 441.307 94.8023 441.307 93.0966C441.307 91.3198 440.667 91.1779 432.673 91.1779H424.038V102.69ZM458.454 93.8161C457.885 95.2667 455.961 100.448 454.178 105.328L450.935 114.203H453.692C455.833 114.203 456.583 113.666 457.051 111.804C457.582 109.69 458.165 109.406 461.975 109.406C465.704 109.406 466.423 109.736 467.21 111.804C467.85 113.489 468.843 114.203 470.544 114.203C471.876 114.203 472.966 113.945 472.966 113.631C472.966 113.316 471.169 108.136 468.972 102.118C465.151 91.6499 464.86 91.1779 462.233 91.1779C460.128 91.1779 459.246 91.7938 458.454 93.8161ZM476.803 102.69V114.203H484.958C492.473 114.203 493.113 114.052 493.113 112.284C493.113 110.578 492.473 110.365 487.356 110.365H481.6V100.771V91.1779H479.202H476.803V102.69ZM492.153 93.0966C492.153 94.6498 492.793 95.0153 495.511 95.0153H498.869V104.609V114.203H501.267H503.666V104.609V95.0153H507.023C509.741 95.0153 510.381 94.6498 510.381 93.0966C510.381 91.3122 509.741 91.1779 501.267 91.1779C492.793 91.1779 492.153 91.3122 492.153 93.0966ZM546.837 102.69V114.203H553.626C559.851 114.203 560.649 113.969 563.22 111.398C565.711 108.906 566.024 107.936 566.024 102.69C566.024 97.4444 565.711 96.4745 563.22 93.9821C560.649 91.411 559.851 91.1779 553.626 91.1779H546.837V102.69ZM594.901 99.0926C594.954 103.446 595.29 108.087 595.647 109.406C596.548 112.721 601.989 115.394 606.317 114.647C608.164 114.328 610.523 113.238 611.559 112.224C613.121 110.696 613.511 108.735 613.83 100.779L614.216 91.1779H611.705C609.206 91.1779 609.195 91.2095 609.195 98.9161C609.195 103.172 608.748 107.489 608.203 108.51C607.561 109.709 606.195 110.365 604.341 110.365C602.145 110.365 601.254 109.789 600.537 107.904C600.023 106.551 599.602 102.234 599.602 98.3107C599.602 91.3419 599.546 91.1779 597.203 91.1779C594.831 91.1779 594.806 91.2642 594.901 99.0926ZM618.789 102.69V114.203H621.188C623.426 114.203 623.586 113.883 623.586 109.406C623.586 105.336 623.862 104.609 625.405 104.609C626.537 104.609 628.385 106.419 630.301 109.406C632.855 113.385 633.863 114.203 636.214 114.203C639.316 114.203 639.332 114.29 635.052 107.964L632.454 104.123L634.736 102.402C637.59 100.25 637.764 95.7627 635.098 93.0966C633.521 91.5194 631.901 91.1779 625.984 91.1779H618.789V102.69ZM527.023 96.4448C529.097 98.5189 529.807 102.896 528.589 106.102C527.316 109.449 526.086 110.331 522.668 110.351C519.39 110.369 517.097 107.216 517.097 102.69C517.097 98.069 519.382 95.0153 522.838 95.0153C524.354 95.0153 526.237 95.6581 527.023 96.4448ZM559.72 96.5225C560.718 97.5212 561.227 99.7795 561.227 103.204C561.227 107.338 560.854 108.579 559.372 109.372C558.351 109.918 556.193 110.365 554.575 110.365H551.634V102.69V95.0153H554.923C556.732 95.0153 558.89 95.6936 559.72 96.5225ZM584.416 96.6031C585.623 97.6948 586.171 99.5445 586.171 102.523C586.171 107.621 584.157 110.365 580.415 110.365C576.806 110.365 574.222 107.162 574.222 102.69C574.222 98.2906 576.794 95.0153 580.248 95.0153C581.575 95.0153 583.451 95.73 584.416 96.6031ZM631.741 97.8934C631.741 100.029 631.294 100.324 627.663 100.586C623.676 100.875 623.586 100.816 623.586 97.8934C623.586 94.9712 623.676 94.9117 627.663 95.2005C631.294 95.4624 631.741 95.7579 631.741 97.8934ZM656.01 96.2203C657.538 98.0613 658.398 102.423 657.746 105.021C656.426 110.281 651.172 112.049 647.57 108.446C646.291 107.168 645.651 105.249 645.651 102.69C645.651 100.132 646.291 98.2129 647.57 96.934C649.72 94.7841 654.483 94.3812 656.01 96.2203ZM463.888 101.971C464.478 104.361 464.295 104.609 461.934 104.609C459.83 104.609 459.462 104.287 460.02 102.93C460.401 102.007 460.937 100.467 461.211 99.509C461.827 97.3609 463.021 98.4594 463.888 101.971Z" fill="white"/>
</svg>
