<?xml version="1.0" encoding="utf-8"?>
<!-- Generator: Adobe Illustrator 25.4.1, SVG Export Plug-In . SVG Version: 6.00 Build 0)  -->
<svg version="1.1" id="logo" xmlns="http://www.w3.org/2000/svg" xmlns:xlink="http://www.w3.org/1999/xlink" x="0px" y="0px"
	 viewBox="0 0 267.4 41.4" style="enable-background:new 0 0 267.4 41.4;" xml:space="preserve">
<style type="text/css">
	.st0{fill-rule:evenodd;clip-rule:evenodd;fill:#F0F0F0;}
	.st1{fill:#F0F0F0;}
</style>
<path class="st0" d="M35.3,0h9.8h0h9.6h9.8h9.7v10.2h-9.7V40h-9.8V29.8h-9.6V40h-9.8V29.8h-9.6v-9.4h9.6V0z M45.1,20.4V10.2h9.6
	v10.2H45.1z M9.8,10.2H0V40h9.8v0h15.8V29.8H9.8v-9.4h15.8V10.2H9.8L9.8,10.2z"/>
<path class="st1" d="M82.8,9.1V8.3c0-3.2,0.5-5,2.6-5h0.2c1.7,0,2.2,1.3,2.2,3.5h3.3V6c0-4-1.9-5.6-5.7-5.6c-4.1,0-6,2.3-6,7.8v0.8
	c0,5.5,1.8,7.8,6,7.8c3.8,0,5.7-1.6,5.7-5.5v-0.2h-3.3c0,1.7-0.6,2.8-2.2,2.8h-0.2C83.3,14,82.8,12.3,82.8,9.1z"/>
<path class="st1" d="M92.4,0.7v15.9h9.7v-2.9h-6.4V9.9h5.4V7.1h-5.4V3.6h6.4V0.7H92.4z"/>
<path class="st1" d="M115.1,0.7H112v6.7l0.1,3.2L107,0.7h-3.5v15.9h3.1V10l-0.1-3.2l5.1,9.9h3.5V0.7z"/>
<path class="st1" d="M123,3.6h3.7V0.7H116v2.9h3.7v13.1h3.3V3.6z"/>
<path class="st1" d="M130.8,10.9h1.7l2.2,5.7h3.6l-2.5-6.2c1.4-0.6,2.5-1.9,2.5-4.4V5.6c0-4.2-2.9-4.9-5.5-4.9h-5.2v15.9h3.3V10.9z
	 M130.8,8.1V3.6h2.1c0.9,0,2,0.3,2,2.1v0.2c0,1.8-1.1,2.1-2,2.1H130.8z"/>
<path class="st1" d="M145.1,16.9c4.1,0,6.1-2.3,6.1-7.8V8.3c0-5.5-1.9-7.8-6.1-7.8c-4.1,0-6.1,2.3-6.1,7.8v0.8
	C139.1,14.6,141,16.9,145.1,16.9z M145,14c-2,0-2.6-1.8-2.6-5V8.3c0-3.2,0.6-5,2.6-5h0.2c2,0,2.6,1.8,2.6,5v0.8c0,3.2-0.6,5-2.6,5
	H145z"/>
<path class="st1" d="M167.6,9.1V8.3c0-5.5-2-7.6-6.7-7.6H156v15.9h4.9C165.6,16.6,167.6,14.6,167.6,9.1z M159.3,13.8V3.6h1.4
	c2.8,0,3.5,1.5,3.5,4.7v0.8c0,3.2-0.8,4.7-3.5,4.7H159.3z"/>
<path class="st1" d="M168.9,0.7v15.9h9.7v-2.9h-6.4V9.9h5.4V7.1h-5.4V3.6h6.4V0.7H168.9z"/>
<path class="st1" d="M183.4,0.7v15.9h9.7v-2.9h-6.4V9.9h5.4V7.1h-5.4V3.6h6.4V0.7H183.4z"/>
<path class="st1" d="M199.3,10c2.3,0.3,2.9,0.9,2.9,2.1v0.1c0,1.1-0.8,1.9-2.3,1.9h-0.2c-1.5,0-2.3-0.8-2.3-2.8H194v0.2
	c0,3.8,2,5.5,5.7,5.5c3.7,0,5.7-1.8,5.7-4.8v-0.2c0-3-1.8-4.1-5.2-4.6c-2.3-0.3-2.8-0.9-2.8-2.1V5.1c0-1,0.8-1.8,2.1-1.8h0.2
	c1.7,0,2.3,1,2.3,3h3.3V5.9c0-3.7-1.7-5.5-5.6-5.5c-3.6,0-5.6,1.9-5.6,4.7v0.2C194.2,8.3,195.8,9.5,199.3,10z"/>
<path class="st1" d="M212.9,3.6h3.7V0.7H206v2.9h3.7v13.1h3.3V3.6z"/>
<path class="st1" d="M223.1,16.9c4.3,0,5.7-1.8,5.7-5.3V0.7h-3.3v10.8c0,1.7-0.6,2.6-2.4,2.6s-2.4-0.9-2.4-2.6V0.7h-3.3v10.9
	C217.4,15.1,218.8,16.9,223.1,16.9z"/>
<path class="st1" d="M242,9.1V8.3c0-5.5-2-7.6-6.7-7.6h-4.9v15.9h4.9C240,16.6,242,14.6,242,9.1z M233.7,13.8V3.6h1.4
	c2.8,0,3.5,1.5,3.5,4.7v0.8c0,3.2-0.8,4.7-3.5,4.7H233.7z"/>
<path class="st1" d="M249,16.9c4.1,0,6.1-2.3,6.1-7.8V8.3c0-5.5-1.9-7.8-6.1-7.8c-4.1,0-6.1,2.3-6.1,7.8v0.8
	C242.9,14.6,244.9,16.9,249,16.9z M248.9,14c-2,0-2.6-1.8-2.6-5V8.3c0-3.2,0.6-5,2.6-5h0.2c2,0,2.6,1.8,2.6,5v0.8c0,3.2-0.6,5-2.6,5
	H248.9z"/>
<path class="st1" d="M261.2,10c2.3,0.3,2.9,0.9,2.9,2.1v0.1c0,1.1-0.8,1.9-2.3,1.9h-0.2c-1.5,0-2.3-0.8-2.3-2.8h-3.3v0.2
	c0,3.8,2,5.5,5.7,5.5c3.7,0,5.7-1.8,5.7-4.8v-0.2c0-3-1.8-4.1-5.2-4.6c-2.3-0.3-2.8-0.9-2.8-2.1V5.1c0-1,0.8-1.8,2.1-1.8h0.2
	c1.7,0,2.3,1,2.3,3h3.3V5.9c0-3.7-1.7-5.5-5.6-5.5c-3.6,0-5.6,1.9-5.6,4.7v0.2C256.1,8.3,257.7,9.5,261.2,10z"/>
<path class="st1" d="M91.3,33.6v-0.8c0-5.5-2-7.6-6.7-7.6h-4.9v15.9h4.9C89.4,41.2,91.3,39.1,91.3,33.6z M83.1,38.3V28.1h1.4
	c2.8,0,3.5,1.5,3.5,4.7v0.8c0,3.2-0.8,4.7-3.5,4.7H83.1z"/>
<path class="st1" d="M98.4,41.4c4.1,0,6.1-2.3,6.1-7.8v-0.8c0-5.5-1.9-7.8-6.1-7.8c-4.1,0-6.1,2.3-6.1,7.8v0.8
	C92.3,39.1,94.3,41.4,98.4,41.4z M98.3,38.6c-2,0-2.6-1.8-2.6-5v-0.8c0-3.2,0.6-5,2.6-5h0.2c2,0,2.6,1.8,2.6,5v0.8
	c0,3.2-0.6,5-2.6,5H98.3z"/>
<path class="st1" d="M112.5,35.4h1.9c2.6,0,5.5-0.7,5.5-4.9v-0.4c0-4.2-2.9-4.9-5.5-4.9h-5.2v15.9h3.3V35.4z M112.5,32.6v-4.5h2.1
	c0.9,0,2,0.3,2,2.1v0.2c0,1.8-1.1,2.1-2,2.1H112.5z"/>
<path class="st1" d="M123.7,25.2l-4,16h3.5l0.8-3.4h3.9l0.8,3.4h3.5l-4-16H123.7z M126,29l1.3,5.9h-2.6L126,29z"/>
<path class="st1" d="M138.1,28.1h3.7v-2.9h-10.7v2.9h3.7v13.1h3.3V28.1z"/>
<path class="st1" d="M146,35.4h1.7l2.2,5.7h3.6l-2.5-6.2c1.4-0.6,2.5-1.9,2.5-4.4v-0.4c0-4.2-2.9-4.9-5.5-4.9h-5.2v15.9h3.3V35.4z
	 M146,32.6v-4.5h2.1c0.9,0,2,0.3,2,2.1v0.2c0,1.8-1.1,2.1-2,2.1H146z"/>
<path class="st1" d="M158.2,25.2h-3.3v15.9h3.3V25.2z"/>
<path class="st1" d="M172.2,31l-0.1,3.2v7h3.3V25.2h-4.9l-2.8,10.2l-2.9-10.2h-4.9v15.9h3.3v-7l-0.1-3.2l2.8,10.2h3.4L172.2,31z"/>
<path class="st1" d="M182.8,41.4c4.1,0,6.1-2.3,6.1-7.8v-0.8c0-5.5-1.9-7.8-6.1-7.8c-4.1,0-6.1,2.3-6.1,7.8v0.8
	C176.7,39.1,178.6,41.4,182.8,41.4z M182.7,38.6c-2,0-2.6-1.8-2.6-5v-0.8c0-3.2,0.6-5,2.6-5h0.2c2,0,2.6,1.8,2.6,5v0.8
	c0,3.2-0.6,5-2.6,5H182.7z M182.3,21.8l-1.1,2.2h3.2l1.3-2.2H182.3z"/>
<path class="st1" d="M201.8,25.2h-3.1v6.7l0.1,3.2l-5.1-9.9h-3.5v15.9h3.1v-6.7l-0.1-3.2l5.1,9.9h3.5V25.2z"/>
<path class="st1" d="M206.9,25.2h-3.3v15.9h3.3V25.2z"/>
<path class="st1" d="M214.3,41.4c4.1,0,6.1-2.3,6.1-7.8v-0.8c0-5.5-1.9-7.8-6.1-7.8c-4.1,0-6.1,2.3-6.1,7.8v0.8
	C208.3,39.1,210.2,41.4,214.3,41.4z M214.2,38.6c-2,0-2.6-1.8-2.6-5v-0.8c0-3.2,0.6-5,2.6-5h0.2c2,0,2.6,1.8,2.6,5v0.8
	c0,3.2-0.6,5-2.6,5H214.2z"/>
</svg>
