<svg id="logo" width="291" height="43" viewBox="0 0 291 43" fill="none" xmlns="http://www.w3.org/2000/svg">
<path fill-rule="evenodd" clip-rule="evenodd" d="M36.8672 1.56348H46.7112H46.7117H56.3164H66.1609H75.8845V11.7624H66.1609V41.5193H56.3164V31.3209H46.7117V41.5193H36.8672V31.3209H27.2617V21.9619H36.8672V1.56348ZM46.7117 21.9619V11.7624H56.3164V21.9619H46.7117ZM11.4102 11.7627H1.56641V41.5195H11.4102V41.5202H27.2574V31.3213H11.4109V21.9616H27.2574V11.7627H11.4109H11.4102Z" fill="white"/>
<path d="M93.3428 10.6456V9.82802C93.3428 6.63958 93.8523 4.86142 95.9721 4.86142H96.1556C97.8881 4.86142 98.3569 6.12861 98.3569 8.31555H101.659V7.57976C101.659 3.59422 99.7429 2 95.9721 2C91.8344 2 90 4.30957 90 9.82802V10.6456C90 16.164 91.8344 18.4736 95.9721 18.4736C99.7429 18.4736 101.659 16.8794 101.659 12.9551V12.7712H98.3569C98.3569 14.488 97.7658 15.6122 96.1556 15.6122H95.9721C93.8523 15.6122 93.3428 13.834 93.3428 10.6456Z" fill="white"/>
<path d="M102.992 2.2657V18.2079H112.714V15.3465H106.294V11.504H111.695V8.64257H106.294V5.12712H112.714V2.2657H102.992Z" fill="white"/>
<path d="M125.703 2.2657H122.564V8.94915L122.666 12.158L117.55 2.2657H114.064V18.2079H117.183V11.5244L117.081 8.31555L122.218 18.2079H125.703V2.2657Z" fill="white"/>
<path d="M133.543 5.12712H137.232V2.2657H126.572V5.12712H130.241V18.2079H133.543V5.12712Z" fill="white"/>
<path d="M141.403 12.485H143.095L145.276 18.2079H148.843L146.336 12.015C147.762 11.4222 148.843 10.155 148.843 7.57976V7.17099C148.843 2.94018 145.908 2.2657 143.319 2.2657H138.101V18.2079H141.403V12.485ZM141.403 9.62363V5.12712H143.462C144.358 5.12712 145.5 5.47458 145.5 7.27318V7.47757C145.5 9.27617 144.358 9.62363 143.462 9.62363H141.403Z" fill="white"/>
<path d="M155.697 18.4736C159.835 18.4736 161.771 16.164 161.771 10.6456V9.82802C161.771 4.30957 159.835 2 155.697 2C151.58 2 149.643 4.30957 149.643 9.82802V10.6456C149.643 16.164 151.58 18.4736 155.697 18.4736ZM155.615 15.6122C153.577 15.6122 152.986 13.834 152.986 10.6456V9.82802C152.986 6.63958 153.577 4.86142 155.615 4.86142H155.799C157.837 4.86142 158.408 6.63958 158.408 9.82802V10.6456C158.408 13.834 157.837 15.6122 155.799 15.6122H155.615Z" fill="white"/>
<path d="M178.139 10.6456V9.82802C178.139 4.30957 176.162 2.2657 171.433 2.2657H166.562V18.2079H171.433C176.162 18.2079 178.139 16.164 178.139 10.6456ZM169.864 15.3465V5.12712H171.25C174.002 5.12712 174.776 6.63958 174.776 9.82802V10.6456C174.776 13.834 174.002 15.3465 171.25 15.3465H169.864Z" fill="white"/>
<path d="M179.466 2.2657V18.2079H189.188V15.3465H182.768V11.504H188.169V8.64257H182.768V5.12712H189.188V2.2657H179.466Z" fill="white"/>
<path d="M194.008 2.2657V18.2079H203.73V15.3465H197.31V11.504H202.711V8.64257H197.31V5.12712H203.73V2.2657H194.008Z" fill="white"/>
<path d="M209.85 11.5449C212.153 11.8514 212.744 12.485 212.744 13.6296V13.7318C212.744 14.7946 211.99 15.6122 210.461 15.6122H210.278C208.749 15.6122 207.934 14.7742 207.934 12.7712H204.632V12.9551C204.632 16.7976 206.609 18.4736 210.36 18.4736C214.09 18.4736 216.107 16.6954 216.107 13.6296V13.4252C216.107 10.4616 214.355 9.27617 210.889 8.80608C208.566 8.4995 208.097 7.88634 208.097 6.72134V6.61914C208.097 5.59721 208.872 4.86142 210.196 4.86142H210.38C212.051 4.86142 212.683 5.82203 212.683 7.90678H215.985V7.47757C215.985 3.73729 214.273 2 210.36 2C206.731 2 204.754 3.85992 204.754 6.74177V6.9666C204.754 9.84845 206.385 11.0748 209.85 11.5449Z" fill="white"/>
<path d="M223.504 5.12712H227.193V2.2657H216.533V5.12712H220.202V18.2079H223.504V5.12712Z" fill="white"/>
<path d="M233.667 18.4736C237.988 18.4736 239.395 16.6341 239.395 13.1595V2.2657H236.093V13.0573C236.093 14.7537 235.542 15.6122 233.667 15.6122C231.792 15.6122 231.262 14.7537 231.262 13.0573V2.2657H227.96V13.1595C227.96 16.6341 229.346 18.4736 233.667 18.4736Z" fill="white"/>
<path d="M252.543 10.6456V9.82802C252.543 4.30957 250.566 2.2657 245.837 2.2657H240.966V18.2079H245.837C250.566 18.2079 252.543 16.164 252.543 10.6456ZM244.268 15.3465V5.12712H245.654C248.406 5.12712 249.18 6.63958 249.18 9.82802V10.6456C249.18 13.834 248.406 15.3465 245.654 15.3465H244.268Z" fill="white"/>
<path d="M259.577 18.4736C263.715 18.4736 265.651 16.164 265.651 10.6456V9.82802C265.651 4.30957 263.715 2 259.577 2C255.46 2 253.523 4.30957 253.523 9.82802V10.6456C253.523 16.164 255.46 18.4736 259.577 18.4736ZM259.496 15.6122C257.457 15.6122 256.866 13.834 256.866 10.6456V9.82802C256.866 6.63958 257.457 4.86142 259.496 4.86142H259.679C261.717 4.86142 262.288 6.63958 262.288 9.82802V10.6456C262.288 13.834 261.717 15.6122 259.679 15.6122H259.496Z" fill="white"/>
<path d="M271.743 11.5449C274.046 11.8514 274.637 12.485 274.637 13.6296V13.7318C274.637 14.7946 273.883 15.6122 272.354 15.6122H272.171C270.642 15.6122 269.827 14.7742 269.827 12.7712H266.525V12.9551C266.525 16.7976 268.502 18.4736 272.252 18.4736C275.982 18.4736 278 16.6954 278 13.6296V13.4252C278 10.4616 276.247 9.27617 272.782 8.80608C270.458 8.4995 269.99 7.88634 269.99 6.72134V6.61914C269.99 5.59721 270.764 4.86142 272.089 4.86142H272.272C273.944 4.86142 274.576 5.82203 274.576 7.90678H277.878V7.47757C277.878 3.73729 276.166 2 272.252 2C268.624 2 266.647 3.85992 266.647 6.74177V6.9666C266.647 9.84845 268.277 11.0748 271.743 11.5449Z" fill="white"/>
<path d="M101.924 35.172V34.3544C101.924 28.836 99.9468 26.7921 95.218 26.7921H90.3465V42.7343H95.218C99.9468 42.7343 101.924 40.6904 101.924 35.172ZM93.6485 39.8729V29.6535H95.0345C97.7862 29.6535 98.5607 31.166 98.5607 34.3544V35.172C98.5607 38.3604 97.7862 39.8729 95.0345 39.8729H93.6485Z" fill="white"/>
<path d="M108.958 43C113.095 43 115.032 40.6904 115.032 35.172V34.3544C115.032 28.836 113.095 26.5264 108.958 26.5264C104.84 26.5264 102.904 28.836 102.904 34.3544V35.172C102.904 40.6904 104.84 43 108.958 43ZM108.876 40.1386C106.838 40.1386 106.247 38.3604 106.247 35.172V34.3544C106.247 31.166 106.838 29.3878 108.876 29.3878H109.06C111.098 29.3878 111.669 31.166 111.669 34.3544V35.172C111.669 38.3604 111.098 40.1386 109.06 40.1386H108.876Z" fill="white"/>
<path d="M123.125 37.0115H125.041C127.629 37.0115 130.564 36.3574 130.564 32.1062V31.6974C130.564 27.4666 127.629 26.7921 125.041 26.7921H119.823V42.7343H123.125V37.0115ZM123.125 34.15V29.6535H125.183C126.08 29.6535 127.222 30.001 127.222 31.7996V32.004C127.222 33.8026 126.08 34.15 125.183 34.15H123.125Z" fill="white"/>
<path d="M134.273 26.7512L130.298 42.7343H133.845L134.599 39.3006H138.492L139.266 42.7343H142.793L138.818 26.7512H134.273ZM136.535 30.5733L137.84 36.4392H135.231L136.535 30.5733Z" fill="white"/>
<path d="M148.721 29.6535H152.411V26.7921H141.75V29.6535H145.419V42.7343H148.721V29.6535Z" fill="white"/>
<path d="M156.582 37.0115H158.273L160.454 42.7343H164.021L161.514 36.5414C162.941 35.9487 164.021 34.6815 164.021 32.1062V31.6974C164.021 27.4666 161.086 26.7921 158.498 26.7921H153.28V42.7343H156.582V37.0115ZM156.582 34.15V29.6535H158.64C159.537 29.6535 160.679 30.001 160.679 31.7996V32.004C160.679 33.8026 159.537 34.15 158.64 34.15H156.582Z" fill="white"/>
<path d="M168.771 26.7921H165.469V42.7343H168.771V26.7921Z" fill="white"/>
<path d="M182.758 32.5354L182.677 35.7238V42.7343H185.979V26.7921H181.087L178.254 36.991L175.4 26.7921H170.529V42.7343H173.831V35.7238L173.729 32.5354L176.562 42.7343H179.925L182.758 32.5354Z" fill="white"/>
<path d="M193.34 43C197.477 43 199.414 40.6904 199.414 35.172V34.3544C199.414 28.836 197.477 26.5264 193.34 26.5264C189.222 26.5264 187.286 28.836 187.286 34.3544V35.172C187.286 40.6904 189.222 43 193.34 43ZM193.258 40.1386C191.22 40.1386 190.629 38.3604 190.629 35.172V34.3544C190.629 31.166 191.22 29.3878 193.258 29.3878H193.442C195.48 29.3878 196.051 31.166 196.051 34.3544V35.172C196.051 38.3604 195.48 40.1386 193.442 40.1386H193.258ZM192.871 23.3175L191.75 25.5658H194.93L196.234 23.3175H192.871Z" fill="white"/>
<path d="M212.374 26.7921H209.235V33.4756L209.337 36.6844L204.221 26.7921H200.736V42.7343H203.854V36.0508L203.752 32.842L208.889 42.7343H212.374V26.7921Z" fill="white"/>
<path d="M217.442 26.7921H214.14V42.7343H217.442V26.7921Z" fill="white"/>
<path d="M224.906 43C229.043 43 230.98 40.6904 230.98 35.172V34.3544C230.98 28.836 229.043 26.5264 224.906 26.5264C220.788 26.5264 218.852 28.836 218.852 34.3544V35.172C218.852 40.6904 220.788 43 224.906 43ZM224.824 40.1386C222.786 40.1386 222.195 38.3604 222.195 35.172V34.3544C222.195 31.166 222.786 29.3878 224.824 29.3878H225.008C227.046 29.3878 227.617 31.166 227.617 34.3544V35.172C227.617 38.3604 227.046 40.1386 225.008 40.1386H224.824Z" fill="white"/>
</svg>
